solid innerCylinder
   facet normal 5.147871e-02 0.000000e+00 9.986741e-01
      outer loop
         vertex 0.000000e+00 2.000000e-02 5.000000e-02
         vertex 5.141050e-03 -2.000000e-02 4.973499e-02
         vertex 5.141050e-03 2.000000e-02 4.973499e-02
      endloop
   endfacet
   facet normal 1.538905e-01 0.000000e+00 9.880879e-01
      outer loop
         vertex 5.141050e-03 2.000000e-02 4.973499e-02
         vertex 5.141050e-03 -2.000000e-02 4.973499e-02
         vertex 1.022760e-02 -2.000000e-02 4.894279e-02
      endloop
   endfacet
   facet normal 1.538905e-01 0.000000e+00 9.880879e-01
      outer loop
         vertex 5.141050e-03 2.000000e-02 4.973499e-02
         vertex 1.022760e-02 -2.000000e-02 4.894279e-02
         vertex 1.022760e-02 2.000000e-02 4.894279e-02
      endloop
   endfacet
   facet normal 2.546711e-01 0.000000e+00 9.670277e-01
      outer loop
         vertex 1.022760e-02 2.000000e-02 4.894279e-02
         vertex 1.022760e-02 -2.000000e-02 4.894279e-02
         vertex 1.520574e-02 -2.000000e-02 4.763177e-02
      endloop
   endfacet
   facet normal 2.546711e-01 0.000000e+00 9.670277e-01
      outer loop
         vertex 1.022760e-02 2.000000e-02 4.894279e-02
         vertex 1.520574e-02 -2.000000e-02 4.763177e-02
         vertex 1.520574e-02 2.000000e-02 4.763177e-02
      endloop
   endfacet
   facet normal 3.527525e-01 0.000000e+00 9.357167e-01
      outer loop
         vertex 1.520574e-02 2.000000e-02 4.763177e-02
         vertex 1.520574e-02 -2.000000e-02 4.763177e-02
         vertex 2.002270e-02 -2.000000e-02 4.581584e-02
      endloop
   endfacet
   facet normal 3.527525e-01 0.000000e+00 9.357167e-01
      outer loop
         vertex 1.520574e-02 2.000000e-02 4.763177e-02
         vertex 2.002270e-02 -2.000000e-02 4.581584e-02
         vertex 2.002270e-02 2.000000e-02 4.581584e-02
      endloop
   endfacet
   facet normal 4.470935e-01 0.000000e+00 8.944872e-01
      outer loop
         vertex 2.002270e-02 2.000000e-02 4.581584e-02
         vertex 2.002270e-02 -2.000000e-02 4.581584e-02
         vertex 2.462740e-02 -2.000000e-02 4.351426e-02
      endloop
   endfacet
   facet normal 4.470935e-01 0.000000e+00 8.944872e-01
      outer loop
         vertex 2.002270e-02 2.000000e-02 4.581584e-02
         vertex 2.462740e-02 -2.000000e-02 4.351426e-02
         vertex 2.462740e-02 2.000000e-02 4.351426e-02
      endloop
   endfacet
   facet normal 5.366964e-01 0.000000e+00 8.437754e-01
      outer loop
         vertex 2.462740e-02 2.000000e-02 4.351426e-02
         vertex 2.462740e-02 -2.000000e-02 4.351426e-02
         vertex 2.897106e-02 -2.000000e-02 4.075142e-02
      endloop
   endfacet
   facet normal 5.366964e-01 0.000000e+00 8.437754e-01
      outer loop
         vertex 2.462740e-02 2.000000e-02 4.351426e-02
         vertex 2.897106e-02 -2.000000e-02 4.075142e-02
         vertex 2.897106e-02 2.000000e-02 4.075142e-02
      endloop
   endfacet
   facet normal 6.206094e-01 0.000000e+00 7.841198e-01
      outer loop
         vertex 2.897106e-02 2.000000e-02 4.075142e-02
         vertex 2.897106e-02 -2.000000e-02 4.075142e-02
         vertex 3.300761e-02 -2.000000e-02 3.755660e-02
      endloop
   endfacet
   facet normal 6.206094e-01 0.000000e+00 7.841198e-01
      outer loop
         vertex 2.897106e-02 2.000000e-02 4.075142e-02
         vertex 3.300761e-02 -2.000000e-02 3.755660e-02
         vertex 3.300761e-02 2.000000e-02 3.755660e-02
      endloop
   endfacet
   facet normal 6.979442e-01 0.000000e+00 7.161521e-01
      outer loop
         vertex 3.300761e-02 2.000000e-02 3.755660e-02
         vertex 3.300761e-02 -2.000000e-02 3.755660e-02
         vertex 3.669427e-02 -2.000000e-02 3.396367e-02
      endloop
   endfacet
   facet normal 6.979442e-01 0.000000e+00 7.161521e-01
      outer loop
         vertex 3.300761e-02 2.000000e-02 3.755660e-02
         vertex 3.669427e-02 -2.000000e-02 3.396367e-02
         vertex 3.669427e-02 2.000000e-02 3.396367e-02
      endloop
   endfacet
   facet normal 7.678804e-01 0.000000e+00 6.405933e-01
      outer loop
         vertex 3.669427e-02 2.000000e-02 3.396367e-02
         vertex 3.669427e-02 -2.000000e-02 3.396367e-02
         vertex 3.999196e-02 -2.000000e-02 3.001071e-02
      endloop
   endfacet
   facet normal 7.678804e-01 0.000000e+00 6.405933e-01
      outer loop
         vertex 3.669427e-02 2.000000e-02 3.396367e-02
         vertex 3.999196e-02 -2.000000e-02 3.001071e-02
         vertex 3.999196e-02 2.000000e-02 3.001071e-02
      endloop
   endfacet
   facet normal 8.296772e-01 0.000000e+00 5.582435e-01
      outer loop
         vertex 3.999196e-02 2.000000e-02 3.001071e-02
         vertex 3.999196e-02 -2.000000e-02 3.001071e-02
         vertex 4.286573e-02 -2.000000e-02 2.573964e-02
      endloop
   endfacet
   facet normal 8.296772e-01 0.000000e+00 5.582435e-01
      outer loop
         vertex 3.999196e-02 2.000000e-02 3.001071e-02
         vertex 4.286573e-02 -2.000000e-02 2.573964e-02
         vertex 4.286573e-02 2.000000e-02 2.573964e-02
      endloop
   endfacet
   facet normal 8.826788e-01 0.000000e+00 4.699768e-01
      outer loop
         vertex 4.286573e-02 2.000000e-02 2.573964e-02
         vertex 4.286573e-02 -2.000000e-02 2.573964e-02
         vertex 4.528511e-02 -2.000000e-02 2.119572e-02
      endloop
   endfacet
   facet normal 8.826788e-01 0.000000e+00 4.699768e-01
      outer loop
         vertex 4.286573e-02 2.000000e-02 2.573964e-02
         vertex 4.528511e-02 -2.000000e-02 2.119572e-02
         vertex 4.528511e-02 2.000000e-02 2.119572e-02
      endloop
   endfacet
   facet normal 9.263239e-01 0.000000e+00 3.767280e-01
      outer loop
         vertex 4.528511e-02 2.000000e-02 2.119572e-02
         vertex 4.528511e-02 -2.000000e-02 2.119572e-02
         vertex 4.722446e-02 -2.000000e-02 1.642712e-02
      endloop
   endfacet
   facet normal 9.263239e-01 0.000000e+00 3.767280e-01
      outer loop
         vertex 4.528511e-02 2.000000e-02 2.119572e-02
         vertex 4.722446e-02 -2.000000e-02 1.642712e-02
         vertex 4.722446e-02 2.000000e-02 1.642712e-02
      endloop
   endfacet
   facet normal 9.601499e-01 0.000000e+00 2.794854e-01
      outer loop
         vertex 4.722446e-02 2.000000e-02 1.642712e-02
         vertex 4.722446e-02 -2.000000e-02 1.642712e-02
         vertex 4.866322e-02 -2.000000e-02 1.148439e-02
      endloop
   endfacet
   facet normal 9.601499e-01 0.000000e+00 2.794854e-01
      outer loop
         vertex 4.722446e-02 2.000000e-02 1.642712e-02
         vertex 4.866322e-02 -2.000000e-02 1.148439e-02
         vertex 4.866322e-02 2.000000e-02 1.148439e-02
      endloop
   endfacet
   facet normal 9.837980e-01 0.000000e+00 1.792807e-01
      outer loop
         vertex 4.866322e-02 2.000000e-02 1.148439e-02
         vertex 4.866322e-02 -2.000000e-02 1.148439e-02
         vertex 4.958613e-02 -2.000000e-02 6.419918e-03
      endloop
   endfacet
   facet normal 9.837980e-01 0.000000e+00 1.792807e-01
      outer loop
         vertex 4.866322e-02 2.000000e-02 1.148439e-02
         vertex 4.958613e-02 -2.000000e-02 6.419918e-03
         vertex 4.958613e-02 2.000000e-02 6.419918e-03
      endloop
   endfacet
   facet normal 9.970175e-01 0.000000e+00 7.717573e-02
      outer loop
         vertex 4.958613e-02 2.000000e-02 6.419918e-03
         vertex 4.958613e-02 -2.000000e-02 6.419918e-03
         vertex 4.998342e-02 -2.000000e-02 1.287396e-03
      endloop
   endfacet
   facet normal 9.970175e-01 0.000000e+00 7.717573e-02
      outer loop
         vertex 4.958613e-02 2.000000e-02 6.419918e-03
         vertex 4.998342e-02 -2.000000e-02 1.287396e-03
         vertex 4.998342e-02 2.000000e-02 1.287396e-03
      endloop
   endfacet
   facet normal 9.996685e-01 0.000000e+00 -2.574768e-02
      outer loop
         vertex 4.998342e-02 2.000000e-02 1.287396e-03
         vertex 4.998342e-02 -2.000000e-02 1.287396e-03
         vertex 4.985088e-02 -2.000000e-02 -3.858773e-03
      endloop
   endfacet
   facet normal 9.996685e-01 0.000000e+00 -2.574768e-02
      outer loop
         vertex 4.998342e-02 2.000000e-02 1.287396e-03
         vertex 4.985088e-02 -2.000000e-02 -3.858773e-03
         vertex 4.985088e-02 2.000000e-02 -3.858773e-03
      endloop
   endfacet
   facet normal 9.917227e-01 0.000000e+00 -1.283983e-01
      outer loop
         vertex 4.985088e-02 2.000000e-02 -3.858773e-03
         vertex 4.985088e-02 -2.000000e-02 -3.858773e-03
         vertex 4.918990e-02 -2.000000e-02 -8.964038e-03
      endloop
   endfacet
   facet normal 9.917227e-01 0.000000e+00 -1.283983e-01
      outer loop
         vertex 4.985088e-02 2.000000e-02 -3.858773e-03
         vertex 4.918990e-02 -2.000000e-02 -8.964038e-03
         vertex 4.918990e-02 2.000000e-02 -8.964038e-03
      endloop
   endfacet
   facet normal 9.732642e-01 0.000000e+00 -2.296883e-01
      outer loop
         vertex 4.918990e-02 2.000000e-02 -8.964038e-03
         vertex 4.918990e-02 -2.000000e-02 -8.964038e-03
         vertex 4.800749e-02 -2.000000e-02 -1.397428e-02
      endloop
   endfacet
   facet normal 9.732642e-01 0.000000e+00 -2.296883e-01
      outer loop
         vertex 4.918990e-02 2.000000e-02 -8.964038e-03
         vertex 4.800749e-02 -2.000000e-02 -1.397428e-02
         vertex 4.800749e-02 2.000000e-02 -1.397428e-02
      endloop
   endfacet
   facet normal 9.444893e-01 0.000000e+00 -3.285420e-01
      outer loop
         vertex 4.800749e-02 2.000000e-02 -1.397428e-02
         vertex 4.800749e-02 -2.000000e-02 -1.397428e-02
         vertex 4.631620e-02 -2.000000e-02 -1.883639e-02
      endloop
   endfacet
   facet normal 9.444893e-01 0.000000e+00 -3.285420e-01
      outer loop
         vertex 4.800749e-02 2.000000e-02 -1.397428e-02
         vertex 4.631620e-02 -2.000000e-02 -1.883639e-02
         vertex 4.631620e-02 2.000000e-02 -1.883639e-02
      endloop
   endfacet
   facet normal 9.057022e-01 0.000000e+00 -4.239146e-01
      outer loop
         vertex 4.631620e-02 2.000000e-02 -1.883639e-02
         vertex 4.631620e-02 -2.000000e-02 -1.883639e-02
         vertex 4.413394e-02 -2.000000e-02 -2.349884e-02
      endloop
   endfacet
   facet normal 9.057022e-01 0.000000e+00 -4.239146e-01
      outer loop
         vertex 4.631620e-02 2.000000e-02 -1.883639e-02
         vertex 4.413394e-02 -2.000000e-02 -2.349884e-02
         vertex 4.413394e-02 2.000000e-02 -2.349884e-02
      endloop
   endfacet
   facet normal 8.573146e-01 0.000000e+00 -5.147928e-01
      outer loop
         vertex 4.413394e-02 2.000000e-02 -2.349884e-02
         vertex 4.413394e-02 -2.000000e-02 -2.349884e-02
         vertex 4.148385e-02 -2.000000e-02 -2.791219e-02
      endloop
   endfacet
   facet normal 8.573146e-01 0.000000e+00 -5.147928e-01
      outer loop
         vertex 4.413394e-02 2.000000e-02 -2.349884e-02
         vertex 4.148385e-02 -2.000000e-02 -2.791219e-02
         vertex 4.148385e-02 2.000000e-02 -2.791219e-02
      endloop
   endfacet
   facet normal 7.998394e-01 0.000000e+00 -6.002141e-01
      outer loop
         vertex 4.148385e-02 2.000000e-02 -2.791219e-02
         vertex 4.148385e-02 -2.000000e-02 -2.791219e-02
         vertex 3.839402e-02 -2.000000e-02 -3.202966e-02
      endloop
   endfacet
   facet normal 7.998394e-01 0.000000e+00 -6.002141e-01
      outer loop
         vertex 4.148385e-02 2.000000e-02 -2.791219e-02
         vertex 3.839402e-02 -2.000000e-02 -3.202966e-02
         vertex 3.839402e-02 2.000000e-02 -3.202966e-02
      endloop
   endfacet
   facet normal 7.338854e-01 0.000000e+00 -6.792733e-01
      outer loop
         vertex 3.839402e-02 2.000000e-02 -3.202966e-02
         vertex 3.839402e-02 -2.000000e-02 -3.202966e-02
         vertex 3.489721e-02 -2.000000e-02 -3.580761e-02
      endloop
   endfacet
   facet normal 7.338854e-01 0.000000e+00 -6.792733e-01
      outer loop
         vertex 3.839402e-02 2.000000e-02 -3.202966e-02
         vertex 3.489721e-02 -2.000000e-02 -3.580761e-02
         vertex 3.489721e-02 2.000000e-02 -3.580761e-02
      endloop
   endfacet
   facet normal 6.601521e-01 0.000000e+00 -7.511319e-01
      outer loop
         vertex 3.489721e-02 2.000000e-02 -3.580761e-02
         vertex 3.489721e-02 -2.000000e-02 -3.580761e-02
         vertex 3.103047e-02 -2.000000e-02 -3.920599e-02
      endloop
   endfacet
   facet normal 6.601521e-01 0.000000e+00 -7.511319e-01
      outer loop
         vertex 3.489721e-02 2.000000e-02 -3.580761e-02
         vertex 3.103047e-02 -2.000000e-02 -3.920599e-02
         vertex 3.103047e-02 2.000000e-02 -3.920599e-02
      endloop
   endfacet
   facet normal 5.794211e-01 0.000000e+00 -8.150283e-01
      outer loop
         vertex 3.103047e-02 2.000000e-02 -3.920599e-02
         vertex 3.103047e-02 -2.000000e-02 -3.920599e-02
         vertex 2.683481e-02 -2.000000e-02 -4.218878e-02
      endloop
   endfacet
   facet normal 5.794211e-01 0.000000e+00 -8.150283e-01
      outer loop
         vertex 3.103047e-02 2.000000e-02 -3.920599e-02
         vertex 2.683481e-02 -2.000000e-02 -4.218878e-02
         vertex 2.683481e-02 2.000000e-02 -4.218878e-02
      endloop
   endfacet
   facet normal 4.925478e-01 0.000000e+00 -8.702854e-01
      outer loop
         vertex 2.683481e-02 2.000000e-02 -4.218878e-02
         vertex 2.683481e-02 -2.000000e-02 -4.218878e-02
         vertex 2.235469e-02 -2.000000e-02 -4.472435e-02
      endloop
   endfacet
   facet normal 4.925478e-01 0.000000e+00 -8.702854e-01
      outer loop
         vertex 2.683481e-02 2.000000e-02 -4.218878e-02
         vertex 2.235469e-02 -2.000000e-02 -4.472435e-02
         vertex 2.235469e-02 2.000000e-02 -4.472435e-02
      endloop
   endfacet
   facet normal 4.004544e-01 0.000000e+00 -9.163167e-01
      outer loop
         vertex 2.235469e-02 2.000000e-02 -4.472435e-02
         vertex 2.235469e-02 -2.000000e-02 -4.472435e-02
         vertex 1.763760e-02 -2.000000e-02 -4.678584e-02
      endloop
   endfacet
   facet normal 4.004544e-01 0.000000e+00 -9.163167e-01
      outer loop
         vertex 2.235469e-02 2.000000e-02 -4.472435e-02
         vertex 1.763760e-02 -2.000000e-02 -4.678584e-02
         vertex 1.763760e-02 2.000000e-02 -4.678584e-02
      endloop
   endfacet
   facet normal 3.041143e-01 0.000000e+00 -9.526356e-01
      outer loop
         vertex 1.763760e-02 2.000000e-02 -4.678584e-02
         vertex 1.763760e-02 -2.000000e-02 -4.678584e-02
         vertex 1.273356e-02 -2.000000e-02 -4.835138e-02
      endloop
   endfacet
   facet normal 3.041143e-01 0.000000e+00 -9.526356e-01
      outer loop
         vertex 1.763760e-02 2.000000e-02 -4.678584e-02
         vertex 1.273356e-02 -2.000000e-02 -4.835138e-02
         vertex 1.273356e-02 2.000000e-02 -4.835138e-02
      endloop
   endfacet
   facet normal 2.045522e-01 0.000000e+00 -9.788557e-01
      outer loop
         vertex 1.273356e-02 2.000000e-02 -4.835138e-02
         vertex 1.273356e-02 -2.000000e-02 -4.835138e-02
         vertex 7.694529e-03 -2.000000e-02 -4.940439e-02
      endloop
   endfacet
   facet normal 2.045522e-01 0.000000e+00 -9.788557e-01
      outer loop
         vertex 1.273356e-02 2.000000e-02 -4.835138e-02
         vertex 7.694529e-03 -2.000000e-02 -4.940439e-02
         vertex 7.694529e-03 2.000000e-02 -4.940439e-02
      endloop
   endfacet
   facet normal 1.028214e-01 0.000000e+00 -9.946998e-01
      outer loop
         vertex 7.694529e-03 2.000000e-02 -4.940439e-02
         vertex 7.694529e-03 -2.000000e-02 -4.940439e-02
         vertex 2.573938e-03 -2.000000e-02 -4.993371e-02
      endloop
   endfacet
   facet normal 1.028214e-01 0.000000e+00 -9.946998e-01
      outer loop
         vertex 7.694529e-03 2.000000e-02 -4.940439e-02
         vertex 2.573938e-03 -2.000000e-02 -4.993371e-02
         vertex 2.573938e-03 2.000000e-02 -4.993371e-02
      endloop
   endfacet
   facet normal 0.000000e+00 -0.000000e+00 -1.000000e+00
      outer loop
         vertex 2.573938e-03 2.000000e-02 -4.993371e-02
         vertex 2.573938e-03 -2.000000e-02 -4.993371e-02
         vertex -2.573938e-03 -2.000000e-02 -4.993371e-02
      endloop
   endfacet
   facet normal -0.000000e+00 0.000000e+00 -1.000000e+00
      outer loop
         vertex 2.573938e-03 2.000000e-02 -4.993371e-02
         vertex -2.573938e-03 -2.000000e-02 -4.993371e-02
         vertex -2.573938e-03 2.000000e-02 -4.993371e-02
      endloop
   endfacet
   facet normal -1.028214e-01 -0.000000e+00 -9.946998e-01
      outer loop
         vertex -2.573938e-03 2.000000e-02 -4.993371e-02
         vertex -2.573938e-03 -2.000000e-02 -4.993371e-02
         vertex -7.694529e-03 -2.000000e-02 -4.940439e-02
      endloop
   endfacet
   facet normal -1.028214e-01 0.000000e+00 -9.946998e-01
      outer loop
         vertex -2.573938e-03 2.000000e-02 -4.993371e-02
         vertex -7.694529e-03 -2.000000e-02 -4.940439e-02
         vertex -7.694529e-03 2.000000e-02 -4.940439e-02
      endloop
   endfacet
   facet normal -2.045522e-01 -0.000000e+00 -9.788557e-01
      outer loop
         vertex -7.694529e-03 2.000000e-02 -4.940439e-02
         vertex -7.694529e-03 -2.000000e-02 -4.940439e-02
         vertex -1.273356e-02 -2.000000e-02 -4.835138e-02
      endloop
   endfacet
   facet normal -2.045522e-01 0.000000e+00 -9.788557e-01
      outer loop
         vertex -7.694529e-03 2.000000e-02 -4.940439e-02
         vertex -1.273356e-02 -2.000000e-02 -4.835138e-02
         vertex -1.273356e-02 2.000000e-02 -4.835138e-02
      endloop
   endfacet
   facet normal -3.041143e-01 -0.000000e+00 -9.526356e-01
      outer loop
         vertex -1.273356e-02 2.000000e-02 -4.835138e-02
         vertex -1.273356e-02 -2.000000e-02 -4.835138e-02
         vertex -1.763760e-02 -2.000000e-02 -4.678584e-02
      endloop
   endfacet
   facet normal -3.041143e-01 0.000000e+00 -9.526356e-01
      outer loop
         vertex -1.273356e-02 2.000000e-02 -4.835138e-02
         vertex -1.763760e-02 -2.000000e-02 -4.678584e-02
         vertex -1.763760e-02 2.000000e-02 -4.678584e-02
      endloop
   endfacet
   facet normal -4.004544e-01 -0.000000e+00 -9.163167e-01
      outer loop
         vertex -1.763760e-02 2.000000e-02 -4.678584e-02
         vertex -1.763760e-02 -2.000000e-02 -4.678584e-02
         vertex -2.235469e-02 -2.000000e-02 -4.472435e-02
      endloop
   endfacet
   facet normal -4.004544e-01 0.000000e+00 -9.163167e-01
      outer loop
         vertex -1.763760e-02 2.000000e-02 -4.678584e-02
         vertex -2.235469e-02 -2.000000e-02 -4.472435e-02
         vertex -2.235469e-02 2.000000e-02 -4.472435e-02
      endloop
   endfacet
   facet normal -4.925478e-01 -0.000000e+00 -8.702854e-01
      outer loop
         vertex -2.235469e-02 2.000000e-02 -4.472435e-02
         vertex -2.235469e-02 -2.000000e-02 -4.472435e-02
         vertex -2.683481e-02 -2.000000e-02 -4.218878e-02
      endloop
   endfacet
   facet normal -4.925478e-01 0.000000e+00 -8.702854e-01
      outer loop
         vertex -2.235469e-02 2.000000e-02 -4.472435e-02
         vertex -2.683481e-02 -2.000000e-02 -4.218878e-02
         vertex -2.683481e-02 2.000000e-02 -4.218878e-02
      endloop
   endfacet
   facet normal -5.794211e-01 -0.000000e+00 -8.150283e-01
      outer loop
         vertex -2.683481e-02 2.000000e-02 -4.218878e-02
         vertex -2.683481e-02 -2.000000e-02 -4.218878e-02
         vertex -3.103047e-02 -2.000000e-02 -3.920599e-02
      endloop
   endfacet
   facet normal -5.794211e-01 0.000000e+00 -8.150283e-01
      outer loop
         vertex -2.683481e-02 2.000000e-02 -4.218878e-02
         vertex -3.103047e-02 -2.000000e-02 -3.920599e-02
         vertex -3.103047e-02 2.000000e-02 -3.920599e-02
      endloop
   endfacet
   facet normal -6.601521e-01 -0.000000e+00 -7.511319e-01
      outer loop
         vertex -3.103047e-02 2.000000e-02 -3.920599e-02
         vertex -3.103047e-02 -2.000000e-02 -3.920599e-02
         vertex -3.489721e-02 -2.000000e-02 -3.580761e-02
      endloop
   endfacet
   facet normal -6.601521e-01 0.000000e+00 -7.511319e-01
      outer loop
         vertex -3.103047e-02 2.000000e-02 -3.920599e-02
         vertex -3.489721e-02 -2.000000e-02 -3.580761e-02
         vertex -3.489721e-02 2.000000e-02 -3.580761e-02
      endloop
   endfacet
   facet normal -7.338854e-01 -0.000000e+00 -6.792733e-01
      outer loop
         vertex -3.489721e-02 2.000000e-02 -3.580761e-02
         vertex -3.489721e-02 -2.000000e-02 -3.580761e-02
         vertex -3.839402e-02 -2.000000e-02 -3.202966e-02
      endloop
   endfacet
   facet normal -7.338854e-01 0.000000e+00 -6.792733e-01
      outer loop
         vertex -3.489721e-02 2.000000e-02 -3.580761e-02
         vertex -3.839402e-02 -2.000000e-02 -3.202966e-02
         vertex -3.839402e-02 2.000000e-02 -3.202966e-02
      endloop
   endfacet
   facet normal -7.998394e-01 -0.000000e+00 -6.002141e-01
      outer loop
         vertex -3.839402e-02 2.000000e-02 -3.202966e-02
         vertex -3.839402e-02 -2.000000e-02 -3.202966e-02
         vertex -4.148385e-02 -2.000000e-02 -2.791219e-02
      endloop
   endfacet
   facet normal -7.998394e-01 0.000000e+00 -6.002141e-01
      outer loop
         vertex -3.839402e-02 2.000000e-02 -3.202966e-02
         vertex -4.148385e-02 -2.000000e-02 -2.791219e-02
         vertex -4.148385e-02 2.000000e-02 -2.791219e-02
      endloop
   endfacet
   facet normal -8.573146e-01 -0.000000e+00 -5.147928e-01
      outer loop
         vertex -4.148385e-02 2.000000e-02 -2.791219e-02
         vertex -4.148385e-02 -2.000000e-02 -2.791219e-02
         vertex -4.413394e-02 -2.000000e-02 -2.349884e-02
      endloop
   endfacet
   facet normal -8.573146e-01 0.000000e+00 -5.147928e-01
      outer loop
         vertex -4.148385e-02 2.000000e-02 -2.791219e-02
         vertex -4.413394e-02 -2.000000e-02 -2.349884e-02
         vertex -4.413394e-02 2.000000e-02 -2.349884e-02
      endloop
   endfacet
   facet normal -9.057022e-01 -0.000000e+00 -4.239146e-01
      outer loop
         vertex -4.413394e-02 2.000000e-02 -2.349884e-02
         vertex -4.413394e-02 -2.000000e-02 -2.349884e-02
         vertex -4.631620e-02 -2.000000e-02 -1.883639e-02
      endloop
   endfacet
   facet normal -9.057022e-01 0.000000e+00 -4.239146e-01
      outer loop
         vertex -4.413394e-02 2.000000e-02 -2.349884e-02
         vertex -4.631620e-02 -2.000000e-02 -1.883639e-02
         vertex -4.631620e-02 2.000000e-02 -1.883639e-02
      endloop
   endfacet
   facet normal -9.444893e-01 -0.000000e+00 -3.285420e-01
      outer loop
         vertex -4.631620e-02 2.000000e-02 -1.883639e-02
         vertex -4.631620e-02 -2.000000e-02 -1.883639e-02
         vertex -4.800749e-02 -2.000000e-02 -1.397428e-02
      endloop
   endfacet
   facet normal -9.444893e-01 0.000000e+00 -3.285420e-01
      outer loop
         vertex -4.631620e-02 2.000000e-02 -1.883639e-02
         vertex -4.800749e-02 -2.000000e-02 -1.397428e-02
         vertex -4.800749e-02 2.000000e-02 -1.397428e-02
      endloop
   endfacet
   facet normal -9.732642e-01 -0.000000e+00 -2.296883e-01
      outer loop
         vertex -4.800749e-02 2.000000e-02 -1.397428e-02
         vertex -4.800749e-02 -2.000000e-02 -1.397428e-02
         vertex -4.918990e-02 -2.000000e-02 -8.964038e-03
      endloop
   endfacet
   facet normal -9.732642e-01 0.000000e+00 -2.296883e-01
      outer loop
         vertex -4.800749e-02 2.000000e-02 -1.397428e-02
         vertex -4.918990e-02 -2.000000e-02 -8.964038e-03
         vertex -4.918990e-02 2.000000e-02 -8.964038e-03
      endloop
   endfacet
   facet normal -9.917227e-01 -0.000000e+00 -1.283983e-01
      outer loop
         vertex -4.918990e-02 2.000000e-02 -8.964038e-03
         vertex -4.918990e-02 -2.000000e-02 -8.964038e-03
         vertex -4.985088e-02 -2.000000e-02 -3.858773e-03
      endloop
   endfacet
   facet normal -9.917227e-01 0.000000e+00 -1.283983e-01
      outer loop
         vertex -4.918990e-02 2.000000e-02 -8.964038e-03
         vertex -4.985088e-02 -2.000000e-02 -3.858773e-03
         vertex -4.985088e-02 2.000000e-02 -3.858773e-03
      endloop
   endfacet
   facet normal -9.996685e-01 -0.000000e+00 -2.574768e-02
      outer loop
         vertex -4.985088e-02 2.000000e-02 -3.858773e-03
         vertex -4.985088e-02 -2.000000e-02 -3.858773e-03
         vertex -4.998342e-02 -2.000000e-02 1.287396e-03
      endloop
   endfacet
   facet normal -9.996685e-01 0.000000e+00 -2.574768e-02
      outer loop
         vertex -4.985088e-02 2.000000e-02 -3.858773e-03
         vertex -4.998342e-02 -2.000000e-02 1.287396e-03
         vertex -4.998342e-02 2.000000e-02 1.287396e-03
      endloop
   endfacet
   facet normal -9.970175e-01 0.000000e+00 7.717573e-02
      outer loop
         vertex -4.998342e-02 2.000000e-02 1.287396e-03
         vertex -4.998342e-02 -2.000000e-02 1.287396e-03
         vertex -4.958613e-02 -2.000000e-02 6.419918e-03
      endloop
   endfacet
   facet normal -9.970175e-01 0.000000e+00 7.717573e-02
      outer loop
         vertex -4.998342e-02 2.000000e-02 1.287396e-03
         vertex -4.958613e-02 -2.000000e-02 6.419918e-03
         vertex -4.958613e-02 2.000000e-02 6.419918e-03
      endloop
   endfacet
   facet normal -9.837980e-01 0.000000e+00 1.792807e-01
      outer loop
         vertex -4.958613e-02 2.000000e-02 6.419918e-03
         vertex -4.958613e-02 -2.000000e-02 6.419918e-03
         vertex -4.866322e-02 -2.000000e-02 1.148439e-02
      endloop
   endfacet
   facet normal -9.837980e-01 0.000000e+00 1.792807e-01
      outer loop
         vertex -4.958613e-02 2.000000e-02 6.419918e-03
         vertex -4.866322e-02 -2.000000e-02 1.148439e-02
         vertex -4.866322e-02 2.000000e-02 1.148439e-02
      endloop
   endfacet
   facet normal -9.601499e-01 0.000000e+00 2.794854e-01
      outer loop
         vertex -4.866322e-02 2.000000e-02 1.148439e-02
         vertex -4.866322e-02 -2.000000e-02 1.148439e-02
         vertex -4.722446e-02 -2.000000e-02 1.642712e-02
      endloop
   endfacet
   facet normal -9.601499e-01 0.000000e+00 2.794854e-01
      outer loop
         vertex -4.866322e-02 2.000000e-02 1.148439e-02
         vertex -4.722446e-02 -2.000000e-02 1.642712e-02
         vertex -4.722446e-02 2.000000e-02 1.642712e-02
      endloop
   endfacet
   facet normal -9.263239e-01 0.000000e+00 3.767280e-01
      outer loop
         vertex -4.722446e-02 2.000000e-02 1.642712e-02
         vertex -4.722446e-02 -2.000000e-02 1.642712e-02
         vertex -4.528511e-02 -2.000000e-02 2.119572e-02
      endloop
   endfacet
   facet normal -9.263239e-01 0.000000e+00 3.767280e-01
      outer loop
         vertex -4.722446e-02 2.000000e-02 1.642712e-02
         vertex -4.528511e-02 -2.000000e-02 2.119572e-02
         vertex -4.528511e-02 2.000000e-02 2.119572e-02
      endloop
   endfacet
   facet normal -8.826788e-01 0.000000e+00 4.699768e-01
      outer loop
         vertex -4.528511e-02 2.000000e-02 2.119572e-02
         vertex -4.528511e-02 -2.000000e-02 2.119572e-02
         vertex -4.286573e-02 -2.000000e-02 2.573964e-02
      endloop
   endfacet
   facet normal -8.826788e-01 0.000000e+00 4.699768e-01
      outer loop
         vertex -4.528511e-02 2.000000e-02 2.119572e-02
         vertex -4.286573e-02 -2.000000e-02 2.573964e-02
         vertex -4.286573e-02 2.000000e-02 2.573964e-02
      endloop
   endfacet
   facet normal -8.296772e-01 0.000000e+00 5.582435e-01
      outer loop
         vertex -4.286573e-02 2.000000e-02 2.573964e-02
         vertex -4.286573e-02 -2.000000e-02 2.573964e-02
         vertex -3.999196e-02 -2.000000e-02 3.001071e-02
      endloop
   endfacet
   facet normal -8.296772e-01 0.000000e+00 5.582435e-01
      outer loop
         vertex -4.286573e-02 2.000000e-02 2.573964e-02
         vertex -3.999196e-02 -2.000000e-02 3.001071e-02
         vertex -3.999196e-02 2.000000e-02 3.001071e-02
      endloop
   endfacet
   facet normal -7.678804e-01 0.000000e+00 6.405933e-01
      outer loop
         vertex -3.999196e-02 2.000000e-02 3.001071e-02
         vertex -3.999196e-02 -2.000000e-02 3.001071e-02
         vertex -3.669427e-02 -2.000000e-02 3.396367e-02
      endloop
   endfacet
   facet normal -7.678804e-01 0.000000e+00 6.405933e-01
      outer loop
         vertex -3.999196e-02 2.000000e-02 3.001071e-02
         vertex -3.669427e-02 -2.000000e-02 3.396367e-02
         vertex -3.669427e-02 2.000000e-02 3.396367e-02
      endloop
   endfacet
   facet normal -6.979442e-01 0.000000e+00 7.161521e-01
      outer loop
         vertex -3.669427e-02 2.000000e-02 3.396367e-02
         vertex -3.669427e-02 -2.000000e-02 3.396367e-02
         vertex -3.300761e-02 -2.000000e-02 3.755660e-02
      endloop
   endfacet
   facet normal -6.979442e-01 0.000000e+00 7.161521e-01
      outer loop
         vertex -3.669427e-02 2.000000e-02 3.396367e-02
         vertex -3.300761e-02 -2.000000e-02 3.755660e-02
         vertex -3.300761e-02 2.000000e-02 3.755660e-02
      endloop
   endfacet
   facet normal -6.206094e-01 0.000000e+00 7.841198e-01
      outer loop
         vertex -3.300761e-02 2.000000e-02 3.755660e-02
         vertex -3.300761e-02 -2.000000e-02 3.755660e-02
         vertex -2.897106e-02 -2.000000e-02 4.075142e-02
      endloop
   endfacet
   facet normal -6.206094e-01 0.000000e+00 7.841198e-01
      outer loop
         vertex -3.300761e-02 2.000000e-02 3.755660e-02
         vertex -2.897106e-02 -2.000000e-02 4.075142e-02
         vertex -2.897106e-02 2.000000e-02 4.075142e-02
      endloop
   endfacet
   facet normal -5.366964e-01 0.000000e+00 8.437754e-01
      outer loop
         vertex -2.897106e-02 2.000000e-02 4.075142e-02
         vertex -2.897106e-02 -2.000000e-02 4.075142e-02
         vertex -2.462740e-02 -2.000000e-02 4.351426e-02
      endloop
   endfacet
   facet normal -5.366964e-01 0.000000e+00 8.437754e-01
      outer loop
         vertex -2.897106e-02 2.000000e-02 4.075142e-02
         vertex -2.462740e-02 -2.000000e-02 4.351426e-02
         vertex -2.462740e-02 2.000000e-02 4.351426e-02
      endloop
   endfacet
   facet normal -4.470935e-01 0.000000e+00 8.944872e-01
      outer loop
         vertex -2.462740e-02 2.000000e-02 4.351426e-02
         vertex -2.462740e-02 -2.000000e-02 4.351426e-02
         vertex -2.002270e-02 -2.000000e-02 4.581584e-02
      endloop
   endfacet
   facet normal -4.470935e-01 0.000000e+00 8.944872e-01
      outer loop
         vertex -2.462740e-02 2.000000e-02 4.351426e-02
         vertex -2.002270e-02 -2.000000e-02 4.581584e-02
         vertex -2.002270e-02 2.000000e-02 4.581584e-02
      endloop
   endfacet
   facet normal -3.527525e-01 0.000000e+00 9.357167e-01
      outer loop
         vertex -2.002270e-02 2.000000e-02 4.581584e-02
         vertex -2.002270e-02 -2.000000e-02 4.581584e-02
         vertex -1.520574e-02 -2.000000e-02 4.763177e-02
      endloop
   endfacet
   facet normal -3.527525e-01 0.000000e+00 9.357167e-01
      outer loop
         vertex -2.002270e-02 2.000000e-02 4.581584e-02
         vertex -1.520574e-02 -2.000000e-02 4.763177e-02
         vertex -1.520574e-02 2.000000e-02 4.763177e-02
      endloop
   endfacet
   facet normal -2.546711e-01 0.000000e+00 9.670277e-01
      outer loop
         vertex -1.520574e-02 2.000000e-02 4.763177e-02
         vertex -1.520574e-02 -2.000000e-02 4.763177e-02
         vertex -1.022760e-02 -2.000000e-02 4.894279e-02
      endloop
   endfacet
   facet normal -2.546711e-01 0.000000e+00 9.670277e-01
      outer loop
         vertex -1.520574e-02 2.000000e-02 4.763177e-02
         vertex -1.022760e-02 -2.000000e-02 4.894279e-02
         vertex -1.022760e-02 2.000000e-02 4.894279e-02
      endloop
   endfacet
   facet normal -1.538905e-01 0.000000e+00 9.880879e-01
      outer loop
         vertex -1.022760e-02 2.000000e-02 4.894279e-02
         vertex -1.022760e-02 -2.000000e-02 4.894279e-02
         vertex -5.141050e-03 -2.000000e-02 4.973499e-02
      endloop
   endfacet
   facet normal -1.538905e-01 0.000000e+00 9.880879e-01
      outer loop
         vertex -1.022760e-02 2.000000e-02 4.894279e-02
         vertex -5.141050e-03 -2.000000e-02 4.973499e-02
         vertex -5.141050e-03 2.000000e-02 4.973499e-02
      endloop
   endfacet
   facet normal -5.147871e-02 0.000000e+00 9.986741e-01
      outer loop
         vertex -5.141050e-03 2.000000e-02 4.973499e-02
         vertex -5.141050e-03 -2.000000e-02 4.973499e-02
         vertex 0.000000e+00 -2.000000e-02 5.000000e-02
      endloop
   endfacet
   facet normal -5.147871e-02 0.000000e+00 9.986741e-01
      outer loop
         vertex -5.141050e-03 2.000000e-02 4.973499e-02
         vertex 0.000000e+00 -2.000000e-02 5.000000e-02
         vertex 0.000000e+00 2.000000e-02 5.000000e-02
      endloop
   endfacet
   facet normal 5.147871e-02 0.000000e+00 9.986741e-01
      outer loop
         vertex 0.000000e+00 2.000000e-02 5.000000e-02
         vertex 0.000000e+00 -2.000000e-02 5.000000e-02
         vertex 5.141050e-03 -2.000000e-02 4.973499e-02
      endloop
   endfacet
   facet normal 0.000000e+00 -1.000000e+00 -0.000000e+00
      outer loop
         vertex 0.000000e+00 -2.000000e-02 5.000000e-02
         vertex -5.141050e-03 -2.000000e-02 4.973499e-02
         vertex 0.000000e+00 -2.000000e-02 0.000000e+00
      endloop
   endfacet
   facet normal -0.000000e+00 -1.000000e+00 0.000000e+00
      outer loop
         vertex 1.520574e-02 -2.000000e-02 4.763177e-02
         vertex 1.022760e-02 -2.000000e-02 4.894279e-02
         vertex 0.000000e+00 -2.000000e-02 0.000000e+00
      endloop
   endfacet
   facet normal 0.000000e+00 -1.000000e+00 0.000000e+00
      outer loop
         vertex 0.000000e+00 -2.000000e-02 0.000000e+00
         vertex 1.022760e-02 -2.000000e-02 4.894279e-02
         vertex 5.141050e-03 -2.000000e-02 4.973499e-02
      endloop
   endfacet
   facet normal 0.000000e+00 -1.000000e+00 0.000000e+00
      outer loop
         vertex 0.000000e+00 -2.000000e-02 0.000000e+00
         vertex 5.141050e-03 -2.000000e-02 4.973499e-02
         vertex 0.000000e+00 -2.000000e-02 5.000000e-02
      endloop
   endfacet
   facet normal -0.000000e+00 -1.000000e+00 0.000000e+00
      outer loop
         vertex 2.897106e-02 -2.000000e-02 4.075142e-02
         vertex 2.462740e-02 -2.000000e-02 4.351426e-02
         vertex 0.000000e+00 -2.000000e-02 0.000000e+00
      endloop
   endfacet
   facet normal 0.000000e+00 -1.000000e+00 0.000000e+00
      outer loop
         vertex 0.000000e+00 -2.000000e-02 0.000000e+00
         vertex 2.462740e-02 -2.000000e-02 4.351426e-02
         vertex 2.002270e-02 -2.000000e-02 4.581584e-02
      endloop
   endfacet
   facet normal 0.000000e+00 -1.000000e+00 0.000000e+00
      outer loop
         vertex 0.000000e+00 -2.000000e-02 0.000000e+00
         vertex 2.002270e-02 -2.000000e-02 4.581584e-02
         vertex 1.520574e-02 -2.000000e-02 4.763177e-02
      endloop
   endfacet
   facet normal -0.000000e+00 -1.000000e+00 0.000000e+00
      outer loop
         vertex 3.999196e-02 -2.000000e-02 3.001071e-02
         vertex 3.669427e-02 -2.000000e-02 3.396367e-02
         vertex 0.000000e+00 -2.000000e-02 0.000000e+00
      endloop
   endfacet
   facet normal 0.000000e+00 -1.000000e+00 0.000000e+00
      outer loop
         vertex 0.000000e+00 -2.000000e-02 0.000000e+00
         vertex 3.669427e-02 -2.000000e-02 3.396367e-02
         vertex 3.300761e-02 -2.000000e-02 3.755660e-02
      endloop
   endfacet
   facet normal 0.000000e+00 -1.000000e+00 0.000000e+00
      outer loop
         vertex 0.000000e+00 -2.000000e-02 0.000000e+00
         vertex 3.300761e-02 -2.000000e-02 3.755660e-02
         vertex 2.897106e-02 -2.000000e-02 4.075142e-02
      endloop
   endfacet
   facet normal -0.000000e+00 -1.000000e+00 0.000000e+00
      outer loop
         vertex 4.722446e-02 -2.000000e-02 1.642712e-02
         vertex 4.528511e-02 -2.000000e-02 2.119572e-02
         vertex 0.000000e+00 -2.000000e-02 0.000000e+00
      endloop
   endfacet
   facet normal 0.000000e+00 -1.000000e+00 0.000000e+00
      outer loop
         vertex 0.000000e+00 -2.000000e-02 0.000000e+00
         vertex 4.528511e-02 -2.000000e-02 2.119572e-02
         vertex 4.286573e-02 -2.000000e-02 2.573964e-02
      endloop
   endfacet
   facet normal 0.000000e+00 -1.000000e+00 0.000000e+00
      outer loop
         vertex 0.000000e+00 -2.000000e-02 0.000000e+00
         vertex 4.286573e-02 -2.000000e-02 2.573964e-02
         vertex 3.999196e-02 -2.000000e-02 3.001071e-02
      endloop
   endfacet
   facet normal -0.000000e+00 -1.000000e+00 0.000000e+00
      outer loop
         vertex 4.998342e-02 -2.000000e-02 1.287396e-03
         vertex 4.958613e-02 -2.000000e-02 6.419918e-03
         vertex 0.000000e+00 -2.000000e-02 0.000000e+00
      endloop
   endfacet
   facet normal 0.000000e+00 -1.000000e+00 0.000000e+00
      outer loop
         vertex 0.000000e+00 -2.000000e-02 0.000000e+00
         vertex 4.958613e-02 -2.000000e-02 6.419918e-03
         vertex 4.866322e-02 -2.000000e-02 1.148439e-02
      endloop
   endfacet
   facet normal 0.000000e+00 -1.000000e+00 0.000000e+00
      outer loop
         vertex 0.000000e+00 -2.000000e-02 0.000000e+00
         vertex 4.866322e-02 -2.000000e-02 1.148439e-02
         vertex 4.722446e-02 -2.000000e-02 1.642712e-02
      endloop
   endfacet
   facet normal 0.000000e+00 -1.000000e+00 0.000000e+00
      outer loop
         vertex 4.800749e-02 -2.000000e-02 -1.397428e-02
         vertex 4.918990e-02 -2.000000e-02 -8.964038e-03
         vertex 0.000000e+00 -2.000000e-02 0.000000e+00
      endloop
   endfacet
   facet normal 0.000000e+00 -1.000000e+00 0.000000e+00
      outer loop
         vertex 0.000000e+00 -2.000000e-02 0.000000e+00
         vertex 4.918990e-02 -2.000000e-02 -8.964038e-03
         vertex 4.985088e-02 -2.000000e-02 -3.858773e-03
      endloop
   endfacet
   facet normal 0.000000e+00 -1.000000e+00 0.000000e+00
      outer loop
         vertex 0.000000e+00 -2.000000e-02 0.000000e+00
         vertex 4.985088e-02 -2.000000e-02 -3.858773e-03
         vertex 4.998342e-02 -2.000000e-02 1.287396e-03
      endloop
   endfacet
   facet normal 0.000000e+00 -1.000000e+00 0.000000e+00
      outer loop
         vertex 4.148385e-02 -2.000000e-02 -2.791219e-02
         vertex 4.413394e-02 -2.000000e-02 -2.349884e-02
         vertex 0.000000e+00 -2.000000e-02 0.000000e+00
      endloop
   endfacet
   facet normal 0.000000e+00 -1.000000e+00 0.000000e+00
      outer loop
         vertex 0.000000e+00 -2.000000e-02 0.000000e+00
         vertex 4.413394e-02 -2.000000e-02 -2.349884e-02
         vertex 4.631620e-02 -2.000000e-02 -1.883639e-02
      endloop
   endfacet
   facet normal 0.000000e+00 -1.000000e+00 0.000000e+00
      outer loop
         vertex 0.000000e+00 -2.000000e-02 0.000000e+00
         vertex 4.631620e-02 -2.000000e-02 -1.883639e-02
         vertex 4.800749e-02 -2.000000e-02 -1.397428e-02
      endloop
   endfacet
   facet normal 0.000000e+00 -1.000000e+00 0.000000e+00
      outer loop
         vertex 3.103047e-02 -2.000000e-02 -3.920599e-02
         vertex 3.489721e-02 -2.000000e-02 -3.580761e-02
         vertex 0.000000e+00 -2.000000e-02 0.000000e+00
      endloop
   endfacet
   facet normal 0.000000e+00 -1.000000e+00 0.000000e+00
      outer loop
         vertex 0.000000e+00 -2.000000e-02 0.000000e+00
         vertex 3.489721e-02 -2.000000e-02 -3.580761e-02
         vertex 3.839402e-02 -2.000000e-02 -3.202966e-02
      endloop
   endfacet
   facet normal 0.000000e+00 -1.000000e+00 0.000000e+00
      outer loop
         vertex 0.000000e+00 -2.000000e-02 0.000000e+00
         vertex 3.839402e-02 -2.000000e-02 -3.202966e-02
         vertex 4.148385e-02 -2.000000e-02 -2.791219e-02
      endloop
   endfacet
   facet normal 0.000000e+00 -1.000000e+00 0.000000e+00
      outer loop
         vertex 1.763760e-02 -2.000000e-02 -4.678584e-02
         vertex 2.235469e-02 -2.000000e-02 -4.472435e-02
         vertex 0.000000e+00 -2.000000e-02 0.000000e+00
      endloop
   endfacet
   facet normal 0.000000e+00 -1.000000e+00 0.000000e+00
      outer loop
         vertex 0.000000e+00 -2.000000e-02 0.000000e+00
         vertex 2.235469e-02 -2.000000e-02 -4.472435e-02
         vertex 2.683481e-02 -2.000000e-02 -4.218878e-02
      endloop
   endfacet
   facet normal 0.000000e+00 -1.000000e+00 0.000000e+00
      outer loop
         vertex 0.000000e+00 -2.000000e-02 0.000000e+00
         vertex 2.683481e-02 -2.000000e-02 -4.218878e-02
         vertex 3.103047e-02 -2.000000e-02 -3.920599e-02
      endloop
   endfacet
   facet normal 0.000000e+00 -1.000000e+00 0.000000e+00
      outer loop
         vertex 2.573938e-03 -2.000000e-02 -4.993371e-02
         vertex 7.694529e-03 -2.000000e-02 -4.940439e-02
         vertex 0.000000e+00 -2.000000e-02 0.000000e+00
      endloop
   endfacet
   facet normal 0.000000e+00 -1.000000e+00 0.000000e+00
      outer loop
         vertex 0.000000e+00 -2.000000e-02 0.000000e+00
         vertex 7.694529e-03 -2.000000e-02 -4.940439e-02
         vertex 1.273356e-02 -2.000000e-02 -4.835138e-02
      endloop
   endfacet
   facet normal 0.000000e+00 -1.000000e+00 0.000000e+00
      outer loop
         vertex 0.000000e+00 -2.000000e-02 0.000000e+00
         vertex 1.273356e-02 -2.000000e-02 -4.835138e-02
         vertex 1.763760e-02 -2.000000e-02 -4.678584e-02
      endloop
   endfacet
   facet normal 0.000000e+00 -1.000000e+00 0.000000e+00
      outer loop
         vertex -1.273356e-02 -2.000000e-02 -4.835138e-02
         vertex -7.694529e-03 -2.000000e-02 -4.940439e-02
         vertex 0.000000e+00 -2.000000e-02 0.000000e+00
      endloop
   endfacet
   facet normal 0.000000e+00 -1.000000e+00 0.000000e+00
      outer loop
         vertex 0.000000e+00 -2.000000e-02 0.000000e+00
         vertex -7.694529e-03 -2.000000e-02 -4.940439e-02
         vertex -2.573938e-03 -2.000000e-02 -4.993371e-02
      endloop
   endfacet
   facet normal 0.000000e+00 -1.000000e+00 -0.000000e+00
      outer loop
         vertex 0.000000e+00 -2.000000e-02 0.000000e+00
         vertex -2.573938e-03 -2.000000e-02 -4.993371e-02
         vertex 2.573938e-03 -2.000000e-02 -4.993371e-02
      endloop
   endfacet
   facet normal 0.000000e+00 -1.000000e+00 0.000000e+00
      outer loop
         vertex -2.683481e-02 -2.000000e-02 -4.218878e-02
         vertex -2.235469e-02 -2.000000e-02 -4.472435e-02
         vertex 0.000000e+00 -2.000000e-02 0.000000e+00
      endloop
   endfacet
   facet normal 0.000000e+00 -1.000000e+00 0.000000e+00
      outer loop
         vertex 0.000000e+00 -2.000000e-02 0.000000e+00
         vertex -2.235469e-02 -2.000000e-02 -4.472435e-02
         vertex -1.763760e-02 -2.000000e-02 -4.678584e-02
      endloop
   endfacet
   facet normal 0.000000e+00 -1.000000e+00 0.000000e+00
      outer loop
         vertex 0.000000e+00 -2.000000e-02 0.000000e+00
         vertex -1.763760e-02 -2.000000e-02 -4.678584e-02
         vertex -1.273356e-02 -2.000000e-02 -4.835138e-02
      endloop
   endfacet
   facet normal 0.000000e+00 -1.000000e+00 0.000000e+00
      outer loop
         vertex -3.839402e-02 -2.000000e-02 -3.202966e-02
         vertex -3.489721e-02 -2.000000e-02 -3.580761e-02
         vertex 0.000000e+00 -2.000000e-02 0.000000e+00
      endloop
   endfacet
   facet normal 0.000000e+00 -1.000000e+00 0.000000e+00
      outer loop
         vertex 0.000000e+00 -2.000000e-02 0.000000e+00
         vertex -3.489721e-02 -2.000000e-02 -3.580761e-02
         vertex -3.103047e-02 -2.000000e-02 -3.920599e-02
      endloop
   endfacet
   facet normal 0.000000e+00 -1.000000e+00 0.000000e+00
      outer loop
         vertex 0.000000e+00 -2.000000e-02 0.000000e+00
         vertex -3.103047e-02 -2.000000e-02 -3.920599e-02
         vertex -2.683481e-02 -2.000000e-02 -4.218878e-02
      endloop
   endfacet
   facet normal 0.000000e+00 -1.000000e+00 0.000000e+00
      outer loop
         vertex -4.631620e-02 -2.000000e-02 -1.883639e-02
         vertex -4.413394e-02 -2.000000e-02 -2.349884e-02
         vertex 0.000000e+00 -2.000000e-02 0.000000e+00
      endloop
   endfacet
   facet normal 0.000000e+00 -1.000000e+00 0.000000e+00
      outer loop
         vertex 0.000000e+00 -2.000000e-02 0.000000e+00
         vertex -4.413394e-02 -2.000000e-02 -2.349884e-02
         vertex -4.148385e-02 -2.000000e-02 -2.791219e-02
      endloop
   endfacet
   facet normal 0.000000e+00 -1.000000e+00 0.000000e+00
      outer loop
         vertex 0.000000e+00 -2.000000e-02 0.000000e+00
         vertex -4.148385e-02 -2.000000e-02 -2.791219e-02
         vertex -3.839402e-02 -2.000000e-02 -3.202966e-02
      endloop
   endfacet
   facet normal 0.000000e+00 -1.000000e+00 0.000000e+00
      outer loop
         vertex -4.985088e-02 -2.000000e-02 -3.858773e-03
         vertex -4.918990e-02 -2.000000e-02 -8.964038e-03
         vertex 0.000000e+00 -2.000000e-02 0.000000e+00
      endloop
   endfacet
   facet normal 0.000000e+00 -1.000000e+00 0.000000e+00
      outer loop
         vertex 0.000000e+00 -2.000000e-02 0.000000e+00
         vertex -4.918990e-02 -2.000000e-02 -8.964038e-03
         vertex -4.800749e-02 -2.000000e-02 -1.397428e-02
      endloop
   endfacet
   facet normal 0.000000e+00 -1.000000e+00 0.000000e+00
      outer loop
         vertex 0.000000e+00 -2.000000e-02 0.000000e+00
         vertex -4.800749e-02 -2.000000e-02 -1.397428e-02
         vertex -4.631620e-02 -2.000000e-02 -1.883639e-02
      endloop
   endfacet
   facet normal 0.000000e+00 -1.000000e+00 -0.000000e+00
      outer loop
         vertex -4.866322e-02 -2.000000e-02 1.148439e-02
         vertex -4.958613e-02 -2.000000e-02 6.419918e-03
         vertex 0.000000e+00 -2.000000e-02 0.000000e+00
      endloop
   endfacet
   facet normal 0.000000e+00 -1.000000e+00 0.000000e+00
      outer loop
         vertex 0.000000e+00 -2.000000e-02 0.000000e+00
         vertex -4.958613e-02 -2.000000e-02 6.419918e-03
         vertex -4.998342e-02 -2.000000e-02 1.287396e-03
      endloop
   endfacet
   facet normal -0.000000e+00 -1.000000e+00 0.000000e+00
      outer loop
         vertex 0.000000e+00 -2.000000e-02 0.000000e+00
         vertex -4.998342e-02 -2.000000e-02 1.287396e-03
         vertex -4.985088e-02 -2.000000e-02 -3.858773e-03
      endloop
   endfacet
   facet normal 0.000000e+00 -1.000000e+00 -0.000000e+00
      outer loop
         vertex -4.286573e-02 -2.000000e-02 2.573964e-02
         vertex -4.528511e-02 -2.000000e-02 2.119572e-02
         vertex 0.000000e+00 -2.000000e-02 0.000000e+00
      endloop
   endfacet
   facet normal 0.000000e+00 -1.000000e+00 0.000000e+00
      outer loop
         vertex 0.000000e+00 -2.000000e-02 0.000000e+00
         vertex -4.528511e-02 -2.000000e-02 2.119572e-02
         vertex -4.722446e-02 -2.000000e-02 1.642712e-02
      endloop
   endfacet
   facet normal 0.000000e+00 -1.000000e+00 0.000000e+00
      outer loop
         vertex 0.000000e+00 -2.000000e-02 0.000000e+00
         vertex -4.722446e-02 -2.000000e-02 1.642712e-02
         vertex -4.866322e-02 -2.000000e-02 1.148439e-02
      endloop
   endfacet
   facet normal 0.000000e+00 -1.000000e+00 -0.000000e+00
      outer loop
         vertex -3.300761e-02 -2.000000e-02 3.755660e-02
         vertex -3.669427e-02 -2.000000e-02 3.396367e-02
         vertex 0.000000e+00 -2.000000e-02 0.000000e+00
      endloop
   endfacet
   facet normal 0.000000e+00 -1.000000e+00 0.000000e+00
      outer loop
         vertex 0.000000e+00 -2.000000e-02 0.000000e+00
         vertex -3.669427e-02 -2.000000e-02 3.396367e-02
         vertex -3.999196e-02 -2.000000e-02 3.001071e-02
      endloop
   endfacet
   facet normal 0.000000e+00 -1.000000e+00 0.000000e+00
      outer loop
         vertex 0.000000e+00 -2.000000e-02 0.000000e+00
         vertex -3.999196e-02 -2.000000e-02 3.001071e-02
         vertex -4.286573e-02 -2.000000e-02 2.573964e-02
      endloop
   endfacet
   facet normal 0.000000e+00 -1.000000e+00 -0.000000e+00
      outer loop
         vertex -2.002270e-02 -2.000000e-02 4.581584e-02
         vertex -2.462740e-02 -2.000000e-02 4.351426e-02
         vertex 0.000000e+00 -2.000000e-02 0.000000e+00
      endloop
   endfacet
   facet normal 0.000000e+00 -1.000000e+00 0.000000e+00
      outer loop
         vertex 0.000000e+00 -2.000000e-02 0.000000e+00
         vertex -2.462740e-02 -2.000000e-02 4.351426e-02
         vertex -2.897106e-02 -2.000000e-02 4.075142e-02
      endloop
   endfacet
   facet normal 0.000000e+00 -1.000000e+00 0.000000e+00
      outer loop
         vertex 0.000000e+00 -2.000000e-02 0.000000e+00
         vertex -2.897106e-02 -2.000000e-02 4.075142e-02
         vertex -3.300761e-02 -2.000000e-02 3.755660e-02
      endloop
   endfacet
   facet normal 0.000000e+00 -1.000000e+00 -0.000000e+00
      outer loop
         vertex -5.141050e-03 -2.000000e-02 4.973499e-02
         vertex -1.022760e-02 -2.000000e-02 4.894279e-02
         vertex 0.000000e+00 -2.000000e-02 0.000000e+00
      endloop
   endfacet
   facet normal 0.000000e+00 -1.000000e+00 0.000000e+00
      outer loop
         vertex 0.000000e+00 -2.000000e-02 0.000000e+00
         vertex -1.022760e-02 -2.000000e-02 4.894279e-02
         vertex -1.520574e-02 -2.000000e-02 4.763177e-02
      endloop
   endfacet
   facet normal 0.000000e+00 -1.000000e+00 0.000000e+00
      outer loop
         vertex 0.000000e+00 -2.000000e-02 0.000000e+00
         vertex -1.520574e-02 -2.000000e-02 4.763177e-02
         vertex -2.002270e-02 -2.000000e-02 4.581584e-02
      endloop
   endfacet
   facet normal 0.000000e+00 1.000000e+00 0.000000e+00
      outer loop
         vertex -1.224647e-17 2.000000e-02 5.000000e-02
         vertex 5.141050e-03 2.000000e-02 4.973499e-02
         vertex 0.000000e+00 2.000000e-02 0.000000e+00
      endloop
   endfacet
   facet normal -0.000000e+00 1.000000e+00 0.000000e+00
      outer loop
         vertex -1.520574e-02 2.000000e-02 4.763177e-02
         vertex -1.022760e-02 2.000000e-02 4.894279e-02
         vertex 0.000000e+00 2.000000e-02 0.000000e+00
      endloop
   endfacet
   facet normal 0.000000e+00 1.000000e+00 0.000000e+00
      outer loop
         vertex 0.000000e+00 2.000000e-02 0.000000e+00
         vertex -1.022760e-02 2.000000e-02 4.894279e-02
         vertex -5.141050e-03 2.000000e-02 4.973499e-02
      endloop
   endfacet
   facet normal 0.000000e+00 1.000000e+00 0.000000e+00
      outer loop
         vertex 0.000000e+00 2.000000e-02 0.000000e+00
         vertex -5.141050e-03 2.000000e-02 4.973499e-02
         vertex -1.224647e-17 2.000000e-02 5.000000e-02
      endloop
   endfacet
   facet normal -0.000000e+00 1.000000e+00 0.000000e+00
      outer loop
         vertex -2.897106e-02 2.000000e-02 4.075142e-02
         vertex -2.462740e-02 2.000000e-02 4.351426e-02
         vertex 0.000000e+00 2.000000e-02 0.000000e+00
      endloop
   endfacet
   facet normal 0.000000e+00 1.000000e+00 0.000000e+00
      outer loop
         vertex 0.000000e+00 2.000000e-02 0.000000e+00
         vertex -2.462740e-02 2.000000e-02 4.351426e-02
         vertex -2.002270e-02 2.000000e-02 4.581584e-02
      endloop
   endfacet
   facet normal 0.000000e+00 1.000000e+00 0.000000e+00
      outer loop
         vertex 0.000000e+00 2.000000e-02 0.000000e+00
         vertex -2.002270e-02 2.000000e-02 4.581584e-02
         vertex -1.520574e-02 2.000000e-02 4.763177e-02
      endloop
   endfacet
   facet normal -0.000000e+00 1.000000e+00 0.000000e+00
      outer loop
         vertex -3.999196e-02 2.000000e-02 3.001071e-02
         vertex -3.669427e-02 2.000000e-02 3.396367e-02
         vertex 0.000000e+00 2.000000e-02 0.000000e+00
      endloop
   endfacet
   facet normal 0.000000e+00 1.000000e+00 0.000000e+00
      outer loop
         vertex 0.000000e+00 2.000000e-02 0.000000e+00
         vertex -3.669427e-02 2.000000e-02 3.396367e-02
         vertex -3.300761e-02 2.000000e-02 3.755660e-02
      endloop
   endfacet
   facet normal 0.000000e+00 1.000000e+00 0.000000e+00
      outer loop
         vertex 0.000000e+00 2.000000e-02 0.000000e+00
         vertex -3.300761e-02 2.000000e-02 3.755660e-02
         vertex -2.897106e-02 2.000000e-02 4.075142e-02
      endloop
   endfacet
   facet normal -0.000000e+00 1.000000e+00 0.000000e+00
      outer loop
         vertex -4.722446e-02 2.000000e-02 1.642712e-02
         vertex -4.528511e-02 2.000000e-02 2.119572e-02
         vertex 0.000000e+00 2.000000e-02 0.000000e+00
      endloop
   endfacet
   facet normal 0.000000e+00 1.000000e+00 0.000000e+00
      outer loop
         vertex 0.000000e+00 2.000000e-02 0.000000e+00
         vertex -4.528511e-02 2.000000e-02 2.119572e-02
         vertex -4.286573e-02 2.000000e-02 2.573964e-02
      endloop
   endfacet
   facet normal 0.000000e+00 1.000000e+00 0.000000e+00
      outer loop
         vertex 0.000000e+00 2.000000e-02 0.000000e+00
         vertex -4.286573e-02 2.000000e-02 2.573964e-02
         vertex -3.999196e-02 2.000000e-02 3.001071e-02
      endloop
   endfacet
   facet normal -0.000000e+00 1.000000e+00 0.000000e+00
      outer loop
         vertex -4.998342e-02 2.000000e-02 1.287396e-03
         vertex -4.958613e-02 2.000000e-02 6.419918e-03
         vertex 0.000000e+00 2.000000e-02 0.000000e+00
      endloop
   endfacet
   facet normal 0.000000e+00 1.000000e+00 0.000000e+00
      outer loop
         vertex 0.000000e+00 2.000000e-02 0.000000e+00
         vertex -4.958613e-02 2.000000e-02 6.419918e-03
         vertex -4.866322e-02 2.000000e-02 1.148439e-02
      endloop
   endfacet
   facet normal 0.000000e+00 1.000000e+00 0.000000e+00
      outer loop
         vertex 0.000000e+00 2.000000e-02 0.000000e+00
         vertex -4.866322e-02 2.000000e-02 1.148439e-02
         vertex -4.722446e-02 2.000000e-02 1.642712e-02
      endloop
   endfacet
   facet normal 0.000000e+00 1.000000e+00 -0.000000e+00
      outer loop
         vertex -4.800749e-02 2.000000e-02 -1.397428e-02
         vertex -4.918990e-02 2.000000e-02 -8.964038e-03
         vertex 0.000000e+00 2.000000e-02 0.000000e+00
      endloop
   endfacet
   facet normal 0.000000e+00 1.000000e+00 0.000000e+00
      outer loop
         vertex 0.000000e+00 2.000000e-02 0.000000e+00
         vertex -4.918990e-02 2.000000e-02 -8.964038e-03
         vertex -4.985088e-02 2.000000e-02 -3.858773e-03
      endloop
   endfacet
   facet normal 0.000000e+00 1.000000e+00 0.000000e+00
      outer loop
         vertex 0.000000e+00 2.000000e-02 0.000000e+00
         vertex -4.985088e-02 2.000000e-02 -3.858773e-03
         vertex -4.998342e-02 2.000000e-02 1.287396e-03
      endloop
   endfacet
   facet normal 0.000000e+00 1.000000e+00 -0.000000e+00
      outer loop
         vertex -4.148385e-02 2.000000e-02 -2.791219e-02
         vertex -4.413394e-02 2.000000e-02 -2.349884e-02
         vertex 0.000000e+00 2.000000e-02 0.000000e+00
      endloop
   endfacet
   facet normal 0.000000e+00 1.000000e+00 0.000000e+00
      outer loop
         vertex 0.000000e+00 2.000000e-02 0.000000e+00
         vertex -4.413394e-02 2.000000e-02 -2.349884e-02
         vertex -4.631620e-02 2.000000e-02 -1.883639e-02
      endloop
   endfacet
   facet normal 0.000000e+00 1.000000e+00 0.000000e+00
      outer loop
         vertex 0.000000e+00 2.000000e-02 0.000000e+00
         vertex -4.631620e-02 2.000000e-02 -1.883639e-02
         vertex -4.800749e-02 2.000000e-02 -1.397428e-02
      endloop
   endfacet
   facet normal 0.000000e+00 1.000000e+00 -0.000000e+00
      outer loop
         vertex -3.103047e-02 2.000000e-02 -3.920599e-02
         vertex -3.489721e-02 2.000000e-02 -3.580761e-02
         vertex 0.000000e+00 2.000000e-02 0.000000e+00
      endloop
   endfacet
   facet normal 0.000000e+00 1.000000e+00 0.000000e+00
      outer loop
         vertex 0.000000e+00 2.000000e-02 0.000000e+00
         vertex -3.489721e-02 2.000000e-02 -3.580761e-02
         vertex -3.839402e-02 2.000000e-02 -3.202966e-02
      endloop
   endfacet
   facet normal 0.000000e+00 1.000000e+00 0.000000e+00
      outer loop
         vertex 0.000000e+00 2.000000e-02 0.000000e+00
         vertex -3.839402e-02 2.000000e-02 -3.202966e-02
         vertex -4.148385e-02 2.000000e-02 -2.791219e-02
      endloop
   endfacet
   facet normal 0.000000e+00 1.000000e+00 -0.000000e+00
      outer loop
         vertex -1.763760e-02 2.000000e-02 -4.678584e-02
         vertex -2.235469e-02 2.000000e-02 -4.472435e-02
         vertex 0.000000e+00 2.000000e-02 0.000000e+00
      endloop
   endfacet
   facet normal 0.000000e+00 1.000000e+00 0.000000e+00
      outer loop
         vertex 0.000000e+00 2.000000e-02 0.000000e+00
         vertex -2.235469e-02 2.000000e-02 -4.472435e-02
         vertex -2.683481e-02 2.000000e-02 -4.218878e-02
      endloop
   endfacet
   facet normal 0.000000e+00 1.000000e+00 0.000000e+00
      outer loop
         vertex 0.000000e+00 2.000000e-02 0.000000e+00
         vertex -2.683481e-02 2.000000e-02 -4.218878e-02
         vertex -3.103047e-02 2.000000e-02 -3.920599e-02
      endloop
   endfacet
   facet normal 0.000000e+00 1.000000e+00 -0.000000e+00
      outer loop
         vertex -2.573938e-03 2.000000e-02 -4.993371e-02
         vertex -7.694529e-03 2.000000e-02 -4.940439e-02
         vertex 0.000000e+00 2.000000e-02 0.000000e+00
      endloop
   endfacet
   facet normal 0.000000e+00 1.000000e+00 0.000000e+00
      outer loop
         vertex 0.000000e+00 2.000000e-02 0.000000e+00
         vertex -7.694529e-03 2.000000e-02 -4.940439e-02
         vertex -1.273356e-02 2.000000e-02 -4.835138e-02
      endloop
   endfacet
   facet normal 0.000000e+00 1.000000e+00 0.000000e+00
      outer loop
         vertex 0.000000e+00 2.000000e-02 0.000000e+00
         vertex -1.273356e-02 2.000000e-02 -4.835138e-02
         vertex -1.763760e-02 2.000000e-02 -4.678584e-02
      endloop
   endfacet
   facet normal 0.000000e+00 1.000000e+00 0.000000e+00
      outer loop
         vertex 1.273356e-02 2.000000e-02 -4.835138e-02
         vertex 7.694529e-03 2.000000e-02 -4.940439e-02
         vertex 0.000000e+00 2.000000e-02 0.000000e+00
      endloop
   endfacet
   facet normal 0.000000e+00 1.000000e+00 0.000000e+00
      outer loop
         vertex 0.000000e+00 2.000000e-02 0.000000e+00
         vertex 7.694529e-03 2.000000e-02 -4.940439e-02
         vertex 2.573938e-03 2.000000e-02 -4.993371e-02
      endloop
   endfacet
   facet normal 0.000000e+00 1.000000e+00 0.000000e+00
      outer loop
         vertex 0.000000e+00 2.000000e-02 0.000000e+00
         vertex 2.573938e-03 2.000000e-02 -4.993371e-02
         vertex -2.573938e-03 2.000000e-02 -4.993371e-02
      endloop
   endfacet
   facet normal 0.000000e+00 1.000000e+00 0.000000e+00
      outer loop
         vertex 2.683481e-02 2.000000e-02 -4.218878e-02
         vertex 2.235469e-02 2.000000e-02 -4.472435e-02
         vertex 0.000000e+00 2.000000e-02 0.000000e+00
      endloop
   endfacet
   facet normal 0.000000e+00 1.000000e+00 0.000000e+00
      outer loop
         vertex 0.000000e+00 2.000000e-02 0.000000e+00
         vertex 2.235469e-02 2.000000e-02 -4.472435e-02
         vertex 1.763760e-02 2.000000e-02 -4.678584e-02
      endloop
   endfacet
   facet normal 0.000000e+00 1.000000e+00 0.000000e+00
      outer loop
         vertex 0.000000e+00 2.000000e-02 0.000000e+00
         vertex 1.763760e-02 2.000000e-02 -4.678584e-02
         vertex 1.273356e-02 2.000000e-02 -4.835138e-02
      endloop
   endfacet
   facet normal 0.000000e+00 1.000000e+00 0.000000e+00
      outer loop
         vertex 3.839402e-02 2.000000e-02 -3.202966e-02
         vertex 3.489721e-02 2.000000e-02 -3.580761e-02
         vertex 0.000000e+00 2.000000e-02 0.000000e+00
      endloop
   endfacet
   facet normal 0.000000e+00 1.000000e+00 0.000000e+00
      outer loop
         vertex 0.000000e+00 2.000000e-02 0.000000e+00
         vertex 3.489721e-02 2.000000e-02 -3.580761e-02
         vertex 3.103047e-02 2.000000e-02 -3.920599e-02
      endloop
   endfacet
   facet normal 0.000000e+00 1.000000e+00 0.000000e+00
      outer loop
         vertex 0.000000e+00 2.000000e-02 0.000000e+00
         vertex 3.103047e-02 2.000000e-02 -3.920599e-02
         vertex 2.683481e-02 2.000000e-02 -4.218878e-02
      endloop
   endfacet
   facet normal 0.000000e+00 1.000000e+00 0.000000e+00
      outer loop
         vertex 4.631620e-02 2.000000e-02 -1.883639e-02
         vertex 4.413394e-02 2.000000e-02 -2.349884e-02
         vertex 0.000000e+00 2.000000e-02 0.000000e+00
      endloop
   endfacet
   facet normal 0.000000e+00 1.000000e+00 0.000000e+00
      outer loop
         vertex 0.000000e+00 2.000000e-02 0.000000e+00
         vertex 4.413394e-02 2.000000e-02 -2.349884e-02
         vertex 4.148385e-02 2.000000e-02 -2.791219e-02
      endloop
   endfacet
   facet normal 0.000000e+00 1.000000e+00 0.000000e+00
      outer loop
         vertex 0.000000e+00 2.000000e-02 0.000000e+00
         vertex 4.148385e-02 2.000000e-02 -2.791219e-02
         vertex 3.839402e-02 2.000000e-02 -3.202966e-02
      endloop
   endfacet
   facet normal 0.000000e+00 1.000000e+00 0.000000e+00
      outer loop
         vertex 4.985088e-02 2.000000e-02 -3.858773e-03
         vertex 4.918990e-02 2.000000e-02 -8.964038e-03
         vertex 0.000000e+00 2.000000e-02 0.000000e+00
      endloop
   endfacet
   facet normal 0.000000e+00 1.000000e+00 0.000000e+00
      outer loop
         vertex 0.000000e+00 2.000000e-02 0.000000e+00
         vertex 4.918990e-02 2.000000e-02 -8.964038e-03
         vertex 4.800749e-02 2.000000e-02 -1.397428e-02
      endloop
   endfacet
   facet normal 0.000000e+00 1.000000e+00 0.000000e+00
      outer loop
         vertex 0.000000e+00 2.000000e-02 0.000000e+00
         vertex 4.800749e-02 2.000000e-02 -1.397428e-02
         vertex 4.631620e-02 2.000000e-02 -1.883639e-02
      endloop
   endfacet
   facet normal 0.000000e+00 1.000000e+00 0.000000e+00
      outer loop
         vertex 4.866322e-02 2.000000e-02 1.148439e-02
         vertex 4.958613e-02 2.000000e-02 6.419918e-03
         vertex 0.000000e+00 2.000000e-02 0.000000e+00
      endloop
   endfacet
   facet normal 0.000000e+00 1.000000e+00 0.000000e+00
      outer loop
         vertex 0.000000e+00 2.000000e-02 0.000000e+00
         vertex 4.958613e-02 2.000000e-02 6.419918e-03
         vertex 4.998342e-02 2.000000e-02 1.287396e-03
      endloop
   endfacet
   facet normal -0.000000e+00 1.000000e+00 0.000000e+00
      outer loop
         vertex 0.000000e+00 2.000000e-02 0.000000e+00
         vertex 4.998342e-02 2.000000e-02 1.287396e-03
         vertex 4.985088e-02 2.000000e-02 -3.858773e-03
      endloop
   endfacet
   facet normal 0.000000e+00 1.000000e+00 0.000000e+00
      outer loop
         vertex 4.286573e-02 2.000000e-02 2.573964e-02
         vertex 4.528511e-02 2.000000e-02 2.119572e-02
         vertex 0.000000e+00 2.000000e-02 0.000000e+00
      endloop
   endfacet
   facet normal 0.000000e+00 1.000000e+00 0.000000e+00
      outer loop
         vertex 0.000000e+00 2.000000e-02 0.000000e+00
         vertex 4.528511e-02 2.000000e-02 2.119572e-02
         vertex 4.722446e-02 2.000000e-02 1.642712e-02
      endloop
   endfacet
   facet normal 0.000000e+00 1.000000e+00 0.000000e+00
      outer loop
         vertex 0.000000e+00 2.000000e-02 0.000000e+00
         vertex 4.722446e-02 2.000000e-02 1.642712e-02
         vertex 4.866322e-02 2.000000e-02 1.148439e-02
      endloop
   endfacet
   facet normal 0.000000e+00 1.000000e+00 0.000000e+00
      outer loop
         vertex 3.300761e-02 2.000000e-02 3.755660e-02
         vertex 3.669427e-02 2.000000e-02 3.396367e-02
         vertex 0.000000e+00 2.000000e-02 0.000000e+00
      endloop
   endfacet
   facet normal 0.000000e+00 1.000000e+00 0.000000e+00
      outer loop
         vertex 0.000000e+00 2.000000e-02 0.000000e+00
         vertex 3.669427e-02 2.000000e-02 3.396367e-02
         vertex 3.999196e-02 2.000000e-02 3.001071e-02
      endloop
   endfacet
   facet normal 0.000000e+00 1.000000e+00 0.000000e+00
      outer loop
         vertex 0.000000e+00 2.000000e-02 0.000000e+00
         vertex 3.999196e-02 2.000000e-02 3.001071e-02
         vertex 4.286573e-02 2.000000e-02 2.573964e-02
      endloop
   endfacet
   facet normal 0.000000e+00 1.000000e+00 0.000000e+00
      outer loop
         vertex 2.002270e-02 2.000000e-02 4.581584e-02
         vertex 2.462740e-02 2.000000e-02 4.351426e-02
         vertex 0.000000e+00 2.000000e-02 0.000000e+00
      endloop
   endfacet
   facet normal 0.000000e+00 1.000000e+00 0.000000e+00
      outer loop
         vertex 0.000000e+00 2.000000e-02 0.000000e+00
         vertex 2.462740e-02 2.000000e-02 4.351426e-02
         vertex 2.897106e-02 2.000000e-02 4.075142e-02
      endloop
   endfacet
   facet normal 0.000000e+00 1.000000e+00 0.000000e+00
      outer loop
         vertex 0.000000e+00 2.000000e-02 0.000000e+00
         vertex 2.897106e-02 2.000000e-02 4.075142e-02
         vertex 3.300761e-02 2.000000e-02 3.755660e-02
      endloop
   endfacet
   facet normal 0.000000e+00 1.000000e+00 0.000000e+00
      outer loop
         vertex 5.141050e-03 2.000000e-02 4.973499e-02
         vertex 1.022760e-02 2.000000e-02 4.894279e-02
         vertex 0.000000e+00 2.000000e-02 0.000000e+00
      endloop
   endfacet
   facet normal 0.000000e+00 1.000000e+00 0.000000e+00
      outer loop
         vertex 0.000000e+00 2.000000e-02 0.000000e+00
         vertex 1.022760e-02 2.000000e-02 4.894279e-02
         vertex 1.520574e-02 2.000000e-02 4.763177e-02
      endloop
   endfacet
   facet normal 0.000000e+00 1.000000e+00 0.000000e+00
      outer loop
         vertex 0.000000e+00 2.000000e-02 0.000000e+00
         vertex 1.520574e-02 2.000000e-02 4.763177e-02
         vertex 2.002270e-02 2.000000e-02 4.581584e-02
      endloop
   endfacet
endsolid