solid middleCylinder
   facet normal 8.370229e-002 0.000000e+000 9.964908e-001
      outer loop
         vertex 0.000000e+000 1.250000e-001 7.500000e-002
         vertex 9.399992e-003 -1.250000e-001 7.440861e-002
         vertex 9.399992e-003 1.250000e-001 7.440861e-002
      endloop
   endfacet
   facet normal 1.667446e-001 0.000000e+000 9.860001e-001
      outer loop
         vertex 9.399992e-003 1.250000e-001 7.440861e-002
         vertex 9.399992e-003 -1.250000e-001 7.440861e-002
         vertex 1.865174e-002 -1.250000e-001 7.264373e-002
      endloop
   endfacet
   facet normal 2.079357e-001 0.000000e+000 9.781425e-001
      outer loop
         vertex 9.399992e-003 1.250000e-001 7.440861e-002
         vertex 1.865174e-002 -1.250000e-001 7.264373e-002
         vertex 1.865174e-002 1.250000e-001 7.264373e-002
      endloop
   endfacet
   facet normal 2.890083e-001 0.000000e+000 9.573266e-001
      outer loop
         vertex 1.865174e-002 1.250000e-001 7.264373e-002
         vertex 1.865174e-002 -1.250000e-001 7.264373e-002
         vertex 2.760934e-002 -1.250000e-001 6.973324e-002
      endloop
   endfacet
   facet normal 3.288898e-001 0.000000e+000 9.443683e-001
      outer loop
         vertex 1.865174e-002 1.250000e-001 7.264373e-002
         vertex 2.760934e-002 -1.250000e-001 6.973324e-002
         vertex 2.760934e-002 1.250000e-001 6.973324e-002
      endloop
   endfacet
   facet normal 4.067142e-001 0.000000e+000 9.135554e-001
      outer loop
         vertex 2.760934e-002 1.250000e-001 6.973324e-002
         vertex 2.760934e-002 -1.250000e-001 6.973324e-002
         vertex 3.613153e-002 -1.250000e-001 6.572300e-002
      endloop
   endfacet
   facet normal 4.446571e-001 0.000000e+000 8.957008e-001
      outer loop
         vertex 2.760934e-002 1.250000e-001 6.973324e-002
         vertex 3.613153e-002 -1.250000e-001 6.572300e-002
         vertex 3.613153e-002 1.250000e-001 6.572300e-002
      endloop
   endfacet
   facet normal 5.180060e-001 0.000000e+000 8.553770e-001
      outer loop
         vertex 3.613153e-002 1.250000e-001 6.572300e-002
         vertex 3.613153e-002 -1.250000e-001 6.572300e-002
         vertex 4.408389e-002 -1.250000e-001 6.067627e-002
      endloop
   endfacet
   facet normal 5.534120e-001 0.000000e+000 8.329076e-001
      outer loop
         vertex 3.613153e-002 1.250000e-001 6.572300e-002
         vertex 4.408389e-002 -1.250000e-001 6.067627e-002
         vertex 4.408389e-002 1.250000e-001 6.067627e-002
      endloop
   endfacet
   facet normal 6.211286e-001 0.000000e+000 7.837087e-001
      outer loop
         vertex 4.408389e-002 1.250000e-001 6.067627e-002
         vertex 4.408389e-002 -1.250000e-001 6.067627e-002
         vertex 5.134103e-002 -1.250000e-001 5.467265e-002
      endloop
   endfacet
   facet normal 6.534392e-001 0.000000e+000 7.569790e-001
      outer loop
         vertex 4.408389e-002 1.250000e-001 6.067627e-002
         vertex 5.134103e-002 -1.250000e-001 5.467265e-002
         vertex 5.134103e-002 1.250000e-001 5.467265e-002
      endloop
   endfacet
   facet normal 7.144555e-001 0.000000e+000 6.996809e-001
      outer loop
         vertex 5.134103e-002 1.250000e-001 5.467265e-002
         vertex 5.134103e-002 -1.250000e-001 5.467265e-002
         vertex 5.778849e-002 -1.250000e-001 4.780680e-002
      endloop
   endfacet
   facet normal 7.431613e-001 0.000000e+000 6.691124e-001
      outer loop
         vertex 5.134103e-002 1.250000e-001 5.467265e-002
         vertex 5.778849e-002 -1.250000e-001 4.780680e-002
         vertex 5.778849e-002 1.250000e-001 4.780680e-002
      endloop
   endfacet
   facet normal 7.965151e-001 0.000000e+000 6.046186e-001
      outer loop
         vertex 5.778849e-002 1.250000e-001 4.780680e-002
         vertex 5.778849e-002 -1.250000e-001 4.780680e-002
         vertex 6.332459e-002 -1.250000e-001 4.018701e-002
      endloop
   endfacet
   facet normal 8.211632e-001 0.000000e+000 5.706934e-001
      outer loop
         vertex 5.778849e-002 1.250000e-001 4.780680e-002
         vertex 6.332459e-002 -1.250000e-001 4.018701e-002
         vertex 6.332459e-002 1.250000e-001 4.018701e-002
      endloop
   endfacet
   facet normal 8.660132e-001 0.000000e+000 5.000213e-001
      outer loop
         vertex 6.332459e-002 1.250000e-001 4.018701e-002
         vertex 6.332459e-002 -1.250000e-001 4.018701e-002
         vertex 6.786203e-002 -1.250000e-001 3.193345e-002
      endloop
   endfacet
   facet normal 8.862150e-001 0.000000e+000 4.632743e-001
      outer loop
         vertex 6.332459e-002 1.250000e-001 4.018701e-002
         vertex 6.786203e-002 -1.250000e-001 3.193345e-002
         vertex 6.786203e-002 1.250000e-001 3.193345e-002
      endloop
   endfacet
   facet normal 9.218537e-001 0.000000e+000 3.875382e-001
      outer loop
         vertex 6.786203e-002 1.250000e-001 3.193345e-002
         vertex 6.786203e-002 -1.250000e-001 3.193345e-002
         vertex 7.132924e-002 -1.250000e-001 2.317628e-002
      endloop
   endfacet
   facet normal 9.372905e-001 0.000000e+000 3.485490e-001
      outer loop
         vertex 6.786203e-002 1.250000e-001 3.193345e-002
         vertex 7.132924e-002 -1.250000e-001 2.317628e-002
         vertex 7.132924e-002 1.250000e-001 2.317628e-002
      endloop
   endfacet
   facet normal 9.631560e-001 0.000000e+000 2.689435e-001
      outer loop
         vertex 7.132924e-002 1.250000e-001 2.317628e-002
         vertex 7.132924e-002 -1.250000e-001 2.317628e-002
         vertex 7.367154e-002 -1.250000e-001 1.405360e-002
      endloop
   endfacet
   facet normal 9.735845e-001 0.000000e+000 2.283270e-001
      outer loop
         vertex 7.132924e-002 1.250000e-001 2.317628e-002
         vertex 7.367154e-002 -1.250000e-001 1.405360e-002
         vertex 7.367154e-002 1.250000e-001 1.405360e-002
      endloop
   endfacet
   facet normal 9.892687e-001 0.000000e+000 1.461073e-001
      outer loop
         vertex 7.367154e-002 1.250000e-001 1.405360e-002
         vertex 7.367154e-002 -1.250000e-001 1.405360e-002
         vertex 7.485200e-002 -1.250000e-001 4.709289e-003
      endloop
   endfacet
   facet normal 9.945244e-001 0.000000e+000 1.045041e-001
      outer loop
         vertex 7.367154e-002 1.250000e-001 1.405360e-002
         vertex 7.485200e-002 -1.250000e-001 4.709289e-003
         vertex 7.485200e-002 1.250000e-001 4.709289e-003
      endloop
   endfacet
   facet normal 9.997802e-001 0.000000e+000 2.096695e-002
      outer loop
         vertex 7.485200e-002 1.250000e-001 4.709289e-003
         vertex 7.485200e-002 -1.250000e-001 4.709289e-003
         vertex 7.485200e-002 -1.250000e-001 -4.709289e-003
      endloop
   endfacet
   facet normal 9.997802e-001 0.000000e+000 -2.096695e-002
      outer loop
         vertex 7.485200e-002 1.250000e-001 4.709289e-003
         vertex 7.485200e-002 -1.250000e-001 -4.709289e-003
         vertex 7.485200e-002 1.250000e-001 -4.709289e-003
      endloop
   endfacet
   facet normal 9.945244e-001 0.000000e+000 -1.045041e-001
      outer loop
         vertex 7.485200e-002 1.250000e-001 -4.709289e-003
         vertex 7.485200e-002 -1.250000e-001 -4.709289e-003
         vertex 7.367154e-002 -1.250000e-001 -1.405360e-002
      endloop
   endfacet
   facet normal 9.892687e-001 0.000000e+000 -1.461073e-001
      outer loop
         vertex 7.485200e-002 1.250000e-001 -4.709289e-003
         vertex 7.367154e-002 -1.250000e-001 -1.405360e-002
         vertex 7.367154e-002 1.250000e-001 -1.405360e-002
      endloop
   endfacet
   facet normal 9.735845e-001 0.000000e+000 -2.283270e-001
      outer loop
         vertex 7.367154e-002 1.250000e-001 -1.405360e-002
         vertex 7.367154e-002 -1.250000e-001 -1.405360e-002
         vertex 7.132924e-002 -1.250000e-001 -2.317628e-002
      endloop
   endfacet
   facet normal 9.631560e-001 0.000000e+000 -2.689435e-001
      outer loop
         vertex 7.367154e-002 1.250000e-001 -1.405360e-002
         vertex 7.132924e-002 -1.250000e-001 -2.317628e-002
         vertex 7.132924e-002 1.250000e-001 -2.317628e-002
      endloop
   endfacet
   facet normal 9.372905e-001 0.000000e+000 -3.485490e-001
      outer loop
         vertex 7.132924e-002 1.250000e-001 -2.317628e-002
         vertex 7.132924e-002 -1.250000e-001 -2.317628e-002
         vertex 6.786203e-002 -1.250000e-001 -3.193345e-002
      endloop
   endfacet
   facet normal 9.218537e-001 0.000000e+000 -3.875382e-001
      outer loop
         vertex 7.132924e-002 1.250000e-001 -2.317628e-002
         vertex 6.786203e-002 -1.250000e-001 -3.193345e-002
         vertex 6.786203e-002 1.250000e-001 -3.193345e-002
      endloop
   endfacet
   facet normal 8.862150e-001 0.000000e+000 -4.632743e-001
      outer loop
         vertex 6.786203e-002 1.250000e-001 -3.193345e-002
         vertex 6.786203e-002 -1.250000e-001 -3.193345e-002
         vertex 6.332459e-002 -1.250000e-001 -4.018701e-002
      endloop
   endfacet
   facet normal 8.660132e-001 0.000000e+000 -5.000213e-001
      outer loop
         vertex 6.786203e-002 1.250000e-001 -3.193345e-002
         vertex 6.332459e-002 -1.250000e-001 -4.018701e-002
         vertex 6.332459e-002 1.250000e-001 -4.018701e-002
      endloop
   endfacet
   facet normal 8.211632e-001 0.000000e+000 -5.706934e-001
      outer loop
         vertex 6.332459e-002 1.250000e-001 -4.018701e-002
         vertex 6.332459e-002 -1.250000e-001 -4.018701e-002
         vertex 5.778849e-002 -1.250000e-001 -4.780680e-002
      endloop
   endfacet
   facet normal 7.965151e-001 0.000000e+000 -6.046186e-001
      outer loop
         vertex 6.332459e-002 1.250000e-001 -4.018701e-002
         vertex 5.778849e-002 -1.250000e-001 -4.780680e-002
         vertex 5.778849e-002 1.250000e-001 -4.780680e-002
      endloop
   endfacet
   facet normal 7.431613e-001 0.000000e+000 -6.691124e-001
      outer loop
         vertex 5.778849e-002 1.250000e-001 -4.780680e-002
         vertex 5.778849e-002 -1.250000e-001 -4.780680e-002
         vertex 5.134103e-002 -1.250000e-001 -5.467265e-002
      endloop
   endfacet
   facet normal 7.144555e-001 0.000000e+000 -6.996809e-001
      outer loop
         vertex 5.778849e-002 1.250000e-001 -4.780680e-002
         vertex 5.134103e-002 -1.250000e-001 -5.467265e-002
         vertex 5.134103e-002 1.250000e-001 -5.467265e-002
      endloop
   endfacet
   facet normal 6.534392e-001 0.000000e+000 -7.569790e-001
      outer loop
         vertex 5.134103e-002 1.250000e-001 -5.467265e-002
         vertex 5.134103e-002 -1.250000e-001 -5.467265e-002
         vertex 4.408389e-002 -1.250000e-001 -6.067627e-002
      endloop
   endfacet
   facet normal 6.211286e-001 0.000000e+000 -7.837087e-001
      outer loop
         vertex 5.134103e-002 1.250000e-001 -5.467265e-002
         vertex 4.408389e-002 -1.250000e-001 -6.067627e-002
         vertex 4.408389e-002 1.250000e-001 -6.067627e-002
      endloop
   endfacet
   facet normal 5.534120e-001 0.000000e+000 -8.329076e-001
      outer loop
         vertex 4.408389e-002 1.250000e-001 -6.067627e-002
         vertex 4.408389e-002 -1.250000e-001 -6.067627e-002
         vertex 3.613153e-002 -1.250000e-001 -6.572300e-002
      endloop
   endfacet
   facet normal 5.180060e-001 0.000000e+000 -8.553770e-001
      outer loop
         vertex 4.408389e-002 1.250000e-001 -6.067627e-002
         vertex 3.613153e-002 -1.250000e-001 -6.572300e-002
         vertex 3.613153e-002 1.250000e-001 -6.572300e-002
      endloop
   endfacet
   facet normal 4.446571e-001 0.000000e+000 -8.957008e-001
      outer loop
         vertex 3.613153e-002 1.250000e-001 -6.572300e-002
         vertex 3.613153e-002 -1.250000e-001 -6.572300e-002
         vertex 2.760934e-002 -1.250000e-001 -6.973324e-002
      endloop
   endfacet
   facet normal 4.067142e-001 0.000000e+000 -9.135554e-001
      outer loop
         vertex 3.613153e-002 1.250000e-001 -6.572300e-002
         vertex 2.760934e-002 -1.250000e-001 -6.973324e-002
         vertex 2.760934e-002 1.250000e-001 -6.973324e-002
      endloop
   endfacet
   facet normal 3.288898e-001 0.000000e+000 -9.443683e-001
      outer loop
         vertex 2.760934e-002 1.250000e-001 -6.973324e-002
         vertex 2.760934e-002 -1.250000e-001 -6.973324e-002
         vertex 1.865174e-002 -1.250000e-001 -7.264373e-002
      endloop
   endfacet
   facet normal 2.890083e-001 0.000000e+000 -9.573266e-001
      outer loop
         vertex 2.760934e-002 1.250000e-001 -6.973324e-002
         vertex 1.865174e-002 -1.250000e-001 -7.264373e-002
         vertex 1.865174e-002 1.250000e-001 -7.264373e-002
      endloop
   endfacet
   facet normal 2.079357e-001 0.000000e+000 -9.781425e-001
      outer loop
         vertex 1.865174e-002 1.250000e-001 -7.264373e-002
         vertex 1.865174e-002 -1.250000e-001 -7.264373e-002
         vertex 9.399992e-003 -1.250000e-001 -7.440861e-002
      endloop
   endfacet
   facet normal 1.667446e-001 0.000000e+000 -9.860001e-001
      outer loop
         vertex 1.865174e-002 1.250000e-001 -7.264373e-002
         vertex 9.399992e-003 -1.250000e-001 -7.440861e-002
         vertex 9.399992e-003 1.250000e-001 -7.440861e-002
      endloop
   endfacet
   facet normal 8.370229e-002 0.000000e+000 -9.964908e-001
      outer loop
         vertex 9.399992e-003 1.250000e-001 -7.440861e-002
         vertex 9.399992e-003 -1.250000e-001 -7.440861e-002
         vertex 9.184851e-018 -1.250000e-001 -7.500000e-002
      endloop
   endfacet
   facet normal 4.185114e-002 0.000000e+000 -9.991238e-001
      outer loop
         vertex 9.399992e-003 1.250000e-001 -7.440861e-002
         vertex 9.184851e-018 -1.250000e-001 -7.500000e-002
         vertex 9.184851e-018 1.250000e-001 -7.500000e-002
      endloop
   endfacet
   facet normal -4.185114e-002 0.000000e+000 -9.991238e-001
      outer loop
         vertex 9.184851e-018 1.250000e-001 -7.500000e-002
         vertex 9.184851e-018 -1.250000e-001 -7.500000e-002
         vertex -9.399992e-003 -1.250000e-001 -7.440861e-002
      endloop
   endfacet
   facet normal -8.370229e-002 0.000000e+000 -9.964908e-001
      outer loop
         vertex 9.184851e-018 1.250000e-001 -7.500000e-002
         vertex -9.399992e-003 -1.250000e-001 -7.440861e-002
         vertex -9.399992e-003 1.250000e-001 -7.440861e-002
      endloop
   endfacet
   facet normal -1.667446e-001 0.000000e+000 -9.860001e-001
      outer loop
         vertex -9.399992e-003 1.250000e-001 -7.440861e-002
         vertex -9.399992e-003 -1.250000e-001 -7.440861e-002
         vertex -1.865174e-002 -1.250000e-001 -7.264373e-002
      endloop
   endfacet
   facet normal -2.079357e-001 0.000000e+000 -9.781425e-001
      outer loop
         vertex -9.399992e-003 1.250000e-001 -7.440861e-002
         vertex -1.865174e-002 -1.250000e-001 -7.264373e-002
         vertex -1.865174e-002 1.250000e-001 -7.264373e-002
      endloop
   endfacet
   facet normal -2.890083e-001 0.000000e+000 -9.573266e-001
      outer loop
         vertex -1.865174e-002 1.250000e-001 -7.264373e-002
         vertex -1.865174e-002 -1.250000e-001 -7.264373e-002
         vertex -2.760934e-002 -1.250000e-001 -6.973324e-002
      endloop
   endfacet
   facet normal -3.288898e-001 0.000000e+000 -9.443683e-001
      outer loop
         vertex -1.865174e-002 1.250000e-001 -7.264373e-002
         vertex -2.760934e-002 -1.250000e-001 -6.973324e-002
         vertex -2.760934e-002 1.250000e-001 -6.973324e-002
      endloop
   endfacet
   facet normal -4.067142e-001 0.000000e+000 -9.135554e-001
      outer loop
         vertex -2.760934e-002 1.250000e-001 -6.973324e-002
         vertex -2.760934e-002 -1.250000e-001 -6.973324e-002
         vertex -3.613153e-002 -1.250000e-001 -6.572300e-002
      endloop
   endfacet
   facet normal -4.446571e-001 0.000000e+000 -8.957008e-001
      outer loop
         vertex -2.760934e-002 1.250000e-001 -6.973324e-002
         vertex -3.613153e-002 -1.250000e-001 -6.572300e-002
         vertex -3.613153e-002 1.250000e-001 -6.572300e-002
      endloop
   endfacet
   facet normal -5.180060e-001 0.000000e+000 -8.553770e-001
      outer loop
         vertex -3.613153e-002 1.250000e-001 -6.572300e-002
         vertex -3.613153e-002 -1.250000e-001 -6.572300e-002
         vertex -4.408389e-002 -1.250000e-001 -6.067627e-002
      endloop
   endfacet
   facet normal -5.534120e-001 0.000000e+000 -8.329076e-001
      outer loop
         vertex -3.613153e-002 1.250000e-001 -6.572300e-002
         vertex -4.408389e-002 -1.250000e-001 -6.067627e-002
         vertex -4.408389e-002 1.250000e-001 -6.067627e-002
      endloop
   endfacet
   facet normal -6.211286e-001 0.000000e+000 -7.837087e-001
      outer loop
         vertex -4.408389e-002 1.250000e-001 -6.067627e-002
         vertex -4.408389e-002 -1.250000e-001 -6.067627e-002
         vertex -5.134103e-002 -1.250000e-001 -5.467265e-002
      endloop
   endfacet
   facet normal -6.534392e-001 0.000000e+000 -7.569790e-001
      outer loop
         vertex -4.408389e-002 1.250000e-001 -6.067627e-002
         vertex -5.134103e-002 -1.250000e-001 -5.467265e-002
         vertex -5.134103e-002 1.250000e-001 -5.467265e-002
      endloop
   endfacet
   facet normal -7.144555e-001 0.000000e+000 -6.996809e-001
      outer loop
         vertex -5.134103e-002 1.250000e-001 -5.467265e-002
         vertex -5.134103e-002 -1.250000e-001 -5.467265e-002
         vertex -5.778849e-002 -1.250000e-001 -4.780680e-002
      endloop
   endfacet
   facet normal -7.431613e-001 0.000000e+000 -6.691124e-001
      outer loop
         vertex -5.134103e-002 1.250000e-001 -5.467265e-002
         vertex -5.778849e-002 -1.250000e-001 -4.780680e-002
         vertex -5.778849e-002 1.250000e-001 -4.780680e-002
      endloop
   endfacet
   facet normal -7.965151e-001 0.000000e+000 -6.046186e-001
      outer loop
         vertex -5.778849e-002 1.250000e-001 -4.780680e-002
         vertex -5.778849e-002 -1.250000e-001 -4.780680e-002
         vertex -6.332459e-002 -1.250000e-001 -4.018701e-002
      endloop
   endfacet
   facet normal -8.211632e-001 0.000000e+000 -5.706934e-001
      outer loop
         vertex -5.778849e-002 1.250000e-001 -4.780680e-002
         vertex -6.332459e-002 -1.250000e-001 -4.018701e-002
         vertex -6.332459e-002 1.250000e-001 -4.018701e-002
      endloop
   endfacet
   facet normal -8.660132e-001 0.000000e+000 -5.000213e-001
      outer loop
         vertex -6.332459e-002 1.250000e-001 -4.018701e-002
         vertex -6.332459e-002 -1.250000e-001 -4.018701e-002
         vertex -6.786203e-002 -1.250000e-001 -3.193345e-002
      endloop
   endfacet
   facet normal -8.862150e-001 0.000000e+000 -4.632743e-001
      outer loop
         vertex -6.332459e-002 1.250000e-001 -4.018701e-002
         vertex -6.786203e-002 -1.250000e-001 -3.193345e-002
         vertex -6.786203e-002 1.250000e-001 -3.193345e-002
      endloop
   endfacet
   facet normal -9.218537e-001 0.000000e+000 -3.875382e-001
      outer loop
         vertex -6.786203e-002 1.250000e-001 -3.193345e-002
         vertex -6.786203e-002 -1.250000e-001 -3.193345e-002
         vertex -7.132924e-002 -1.250000e-001 -2.317628e-002
      endloop
   endfacet
   facet normal -9.372905e-001 0.000000e+000 -3.485490e-001
      outer loop
         vertex -6.786203e-002 1.250000e-001 -3.193345e-002
         vertex -7.132924e-002 -1.250000e-001 -2.317628e-002
         vertex -7.132924e-002 1.250000e-001 -2.317628e-002
      endloop
   endfacet
   facet normal -9.631560e-001 0.000000e+000 -2.689435e-001
      outer loop
         vertex -7.132924e-002 1.250000e-001 -2.317628e-002
         vertex -7.132924e-002 -1.250000e-001 -2.317628e-002
         vertex -7.367154e-002 -1.250000e-001 -1.405360e-002
      endloop
   endfacet
   facet normal -9.735845e-001 0.000000e+000 -2.283270e-001
      outer loop
         vertex -7.132924e-002 1.250000e-001 -2.317628e-002
         vertex -7.367154e-002 -1.250000e-001 -1.405360e-002
         vertex -7.367154e-002 1.250000e-001 -1.405360e-002
      endloop
   endfacet
   facet normal -9.892687e-001 0.000000e+000 -1.461073e-001
      outer loop
         vertex -7.367154e-002 1.250000e-001 -1.405360e-002
         vertex -7.367154e-002 -1.250000e-001 -1.405360e-002
         vertex -7.485200e-002 -1.250000e-001 -4.709289e-003
      endloop
   endfacet
   facet normal -9.945244e-001 0.000000e+000 -1.045041e-001
      outer loop
         vertex -7.367154e-002 1.250000e-001 -1.405360e-002
         vertex -7.485200e-002 -1.250000e-001 -4.709289e-003
         vertex -7.485200e-002 1.250000e-001 -4.709289e-003
      endloop
   endfacet
   facet normal -9.997802e-001 0.000000e+000 -2.096695e-002
      outer loop
         vertex -7.485200e-002 1.250000e-001 -4.709289e-003
         vertex -7.485200e-002 -1.250000e-001 -4.709289e-003
         vertex -7.485200e-002 -1.250000e-001 4.709289e-003
      endloop
   endfacet
   facet normal -9.997802e-001 0.000000e+000 2.096695e-002
      outer loop
         vertex -7.485200e-002 1.250000e-001 -4.709289e-003
         vertex -7.485200e-002 -1.250000e-001 4.709289e-003
         vertex -7.485200e-002 1.250000e-001 4.709289e-003
      endloop
   endfacet
   facet normal -9.945244e-001 0.000000e+000 1.045041e-001
      outer loop
         vertex -7.485200e-002 1.250000e-001 4.709289e-003
         vertex -7.485200e-002 -1.250000e-001 4.709289e-003
         vertex -7.367154e-002 -1.250000e-001 1.405360e-002
      endloop
   endfacet
   facet normal -9.892687e-001 0.000000e+000 1.461073e-001
      outer loop
         vertex -7.485200e-002 1.250000e-001 4.709289e-003
         vertex -7.367154e-002 -1.250000e-001 1.405360e-002
         vertex -7.367154e-002 1.250000e-001 1.405360e-002
      endloop
   endfacet
   facet normal -9.735845e-001 0.000000e+000 2.283270e-001
      outer loop
         vertex -7.367154e-002 1.250000e-001 1.405360e-002
         vertex -7.367154e-002 -1.250000e-001 1.405360e-002
         vertex -7.132924e-002 -1.250000e-001 2.317628e-002
      endloop
   endfacet
   facet normal -9.631560e-001 0.000000e+000 2.689435e-001
      outer loop
         vertex -7.367154e-002 1.250000e-001 1.405360e-002
         vertex -7.132924e-002 -1.250000e-001 2.317628e-002
         vertex -7.132924e-002 1.250000e-001 2.317628e-002
      endloop
   endfacet
   facet normal -9.372905e-001 0.000000e+000 3.485490e-001
      outer loop
         vertex -7.132924e-002 1.250000e-001 2.317628e-002
         vertex -7.132924e-002 -1.250000e-001 2.317628e-002
         vertex -6.786203e-002 -1.250000e-001 3.193345e-002
      endloop
   endfacet
   facet normal -9.218537e-001 0.000000e+000 3.875382e-001
      outer loop
         vertex -7.132924e-002 1.250000e-001 2.317628e-002
         vertex -6.786203e-002 -1.250000e-001 3.193345e-002
         vertex -6.786203e-002 1.250000e-001 3.193345e-002
      endloop
   endfacet
   facet normal -8.862150e-001 0.000000e+000 4.632743e-001
      outer loop
         vertex -6.786203e-002 1.250000e-001 3.193345e-002
         vertex -6.786203e-002 -1.250000e-001 3.193345e-002
         vertex -6.332459e-002 -1.250000e-001 4.018701e-002
      endloop
   endfacet
   facet normal -8.660132e-001 0.000000e+000 5.000213e-001
      outer loop
         vertex -6.786203e-002 1.250000e-001 3.193345e-002
         vertex -6.332459e-002 -1.250000e-001 4.018701e-002
         vertex -6.332459e-002 1.250000e-001 4.018701e-002
      endloop
   endfacet
   facet normal -8.211632e-001 0.000000e+000 5.706934e-001
      outer loop
         vertex -6.332459e-002 1.250000e-001 4.018701e-002
         vertex -6.332459e-002 -1.250000e-001 4.018701e-002
         vertex -5.778849e-002 -1.250000e-001 4.780680e-002
      endloop
   endfacet
   facet normal -7.965151e-001 0.000000e+000 6.046186e-001
      outer loop
         vertex -6.332459e-002 1.250000e-001 4.018701e-002
         vertex -5.778849e-002 -1.250000e-001 4.780680e-002
         vertex -5.778849e-002 1.250000e-001 4.780680e-002
      endloop
   endfacet
   facet normal -7.431613e-001 0.000000e+000 6.691124e-001
      outer loop
         vertex -5.778849e-002 1.250000e-001 4.780680e-002
         vertex -5.778849e-002 -1.250000e-001 4.780680e-002
         vertex -5.134103e-002 -1.250000e-001 5.467265e-002
      endloop
   endfacet
   facet normal -7.144555e-001 0.000000e+000 6.996809e-001
      outer loop
         vertex -5.778849e-002 1.250000e-001 4.780680e-002
         vertex -5.134103e-002 -1.250000e-001 5.467265e-002
         vertex -5.134103e-002 1.250000e-001 5.467265e-002
      endloop
   endfacet
   facet normal -6.534392e-001 0.000000e+000 7.569790e-001
      outer loop
         vertex -5.134103e-002 1.250000e-001 5.467265e-002
         vertex -5.134103e-002 -1.250000e-001 5.467265e-002
         vertex -4.408389e-002 -1.250000e-001 6.067627e-002
      endloop
   endfacet
   facet normal -6.211286e-001 0.000000e+000 7.837087e-001
      outer loop
         vertex -5.134103e-002 1.250000e-001 5.467265e-002
         vertex -4.408389e-002 -1.250000e-001 6.067627e-002
         vertex -4.408389e-002 1.250000e-001 6.067627e-002
      endloop
   endfacet
   facet normal -5.534120e-001 0.000000e+000 8.329076e-001
      outer loop
         vertex -4.408389e-002 1.250000e-001 6.067627e-002
         vertex -4.408389e-002 -1.250000e-001 6.067627e-002
         vertex -3.613153e-002 -1.250000e-001 6.572300e-002
      endloop
   endfacet
   facet normal -5.180060e-001 0.000000e+000 8.553770e-001
      outer loop
         vertex -4.408389e-002 1.250000e-001 6.067627e-002
         vertex -3.613153e-002 -1.250000e-001 6.572300e-002
         vertex -3.613153e-002 1.250000e-001 6.572300e-002
      endloop
   endfacet
   facet normal -4.446571e-001 0.000000e+000 8.957008e-001
      outer loop
         vertex -3.613153e-002 1.250000e-001 6.572300e-002
         vertex -3.613153e-002 -1.250000e-001 6.572300e-002
         vertex -2.760934e-002 -1.250000e-001 6.973324e-002
      endloop
   endfacet
   facet normal -4.067142e-001 0.000000e+000 9.135554e-001
      outer loop
         vertex -3.613153e-002 1.250000e-001 6.572300e-002
         vertex -2.760934e-002 -1.250000e-001 6.973324e-002
         vertex -2.760934e-002 1.250000e-001 6.973324e-002
      endloop
   endfacet
   facet normal -3.288898e-001 0.000000e+000 9.443683e-001
      outer loop
         vertex -2.760934e-002 1.250000e-001 6.973324e-002
         vertex -2.760934e-002 -1.250000e-001 6.973324e-002
         vertex -1.865174e-002 -1.250000e-001 7.264373e-002
      endloop
   endfacet
   facet normal -2.890083e-001 0.000000e+000 9.573266e-001
      outer loop
         vertex -2.760934e-002 1.250000e-001 6.973324e-002
         vertex -1.865174e-002 -1.250000e-001 7.264373e-002
         vertex -1.865174e-002 1.250000e-001 7.264373e-002
      endloop
   endfacet
   facet normal -2.079357e-001 0.000000e+000 9.781425e-001
      outer loop
         vertex -1.865174e-002 1.250000e-001 7.264373e-002
         vertex -1.865174e-002 -1.250000e-001 7.264373e-002
         vertex -9.399992e-003 -1.250000e-001 7.440861e-002
      endloop
   endfacet
   facet normal -1.667446e-001 0.000000e+000 9.860001e-001
      outer loop
         vertex -1.865174e-002 1.250000e-001 7.264373e-002
         vertex -9.399992e-003 -1.250000e-001 7.440861e-002
         vertex -9.399992e-003 1.250000e-001 7.440861e-002
      endloop
   endfacet
   facet normal -8.370229e-002 0.000000e+000 9.964908e-001
      outer loop
         vertex -9.399992e-003 1.250000e-001 7.440861e-002
         vertex -9.399992e-003 -1.250000e-001 7.440861e-002
         vertex 0.000000e+000 -1.250000e-001 7.500000e-002
      endloop
   endfacet
   facet normal -4.185114e-002 0.000000e+000 9.991238e-001
      outer loop
         vertex -9.399992e-003 1.250000e-001 7.440861e-002
         vertex 0.000000e+000 -1.250000e-001 7.500000e-002
         vertex 0.000000e+000 1.250000e-001 7.500000e-002
      endloop
   endfacet
   facet normal 4.185114e-002 0.000000e+000 9.991238e-001
      outer loop
         vertex 0.000000e+000 1.250000e-001 7.500000e-002
         vertex 0.000000e+000 -1.250000e-001 7.500000e-002
         vertex 9.399992e-003 -1.250000e-001 7.440861e-002
      endloop
   endfacet
   facet normal 0.000000e+000 -1.000000e+000 0.000000e+000
      outer loop
         vertex 0.000000e+000 -1.250000e-001 7.500000e-002
         vertex -9.399992e-003 -1.250000e-001 7.440861e-002
         vertex 0.000000e+000 -1.250000e-001 0.000000e+000
      endloop
   endfacet
   facet normal 0.000000e+000 -1.000000e+000 0.000000e+000
      outer loop
         vertex 0.000000e+000 -1.250000e-001 7.500000e-002
         vertex 0.000000e+000 -1.250000e-001 0.000000e+000
         vertex 9.399992e-003 -1.250000e-001 7.440861e-002
      endloop
   endfacet
   facet normal 0.000000e+000 -1.000000e+000 0.000000e+000
      outer loop
         vertex 3.613153e-002 -1.250000e-001 6.572300e-002
         vertex 2.760934e-002 -1.250000e-001 6.973324e-002
         vertex 0.000000e+000 -1.250000e-001 0.000000e+000
      endloop
   endfacet
   facet normal 0.000000e+000 -1.000000e+000 0.000000e+000
      outer loop
         vertex 0.000000e+000 -1.250000e-001 0.000000e+000
         vertex 2.760934e-002 -1.250000e-001 6.973324e-002
         vertex 1.865174e-002 -1.250000e-001 7.264373e-002
      endloop
   endfacet
   facet normal 0.000000e+000 -1.000000e+000 0.000000e+000
      outer loop
         vertex 0.000000e+000 -1.250000e-001 0.000000e+000
         vertex 1.865174e-002 -1.250000e-001 7.264373e-002
         vertex 9.399992e-003 -1.250000e-001 7.440861e-002
      endloop
   endfacet
   facet normal 0.000000e+000 -1.000000e+000 0.000000e+000
      outer loop
         vertex 5.778849e-002 -1.250000e-001 4.780680e-002
         vertex 5.134103e-002 -1.250000e-001 5.467265e-002
         vertex 0.000000e+000 -1.250000e-001 0.000000e+000
      endloop
   endfacet
   facet normal 0.000000e+000 -1.000000e+000 0.000000e+000
      outer loop
         vertex 0.000000e+000 -1.250000e-001 0.000000e+000
         vertex 5.134103e-002 -1.250000e-001 5.467265e-002
         vertex 4.408389e-002 -1.250000e-001 6.067627e-002
      endloop
   endfacet
   facet normal 0.000000e+000 -1.000000e+000 0.000000e+000
      outer loop
         vertex 0.000000e+000 -1.250000e-001 0.000000e+000
         vertex 4.408389e-002 -1.250000e-001 6.067627e-002
         vertex 3.613153e-002 -1.250000e-001 6.572300e-002
      endloop
   endfacet
   facet normal 0.000000e+000 -1.000000e+000 0.000000e+000
      outer loop
         vertex 7.132924e-002 -1.250000e-001 2.317628e-002
         vertex 6.786203e-002 -1.250000e-001 3.193345e-002
         vertex 0.000000e+000 -1.250000e-001 0.000000e+000
      endloop
   endfacet
   facet normal 0.000000e+000 -1.000000e+000 0.000000e+000
      outer loop
         vertex 0.000000e+000 -1.250000e-001 0.000000e+000
         vertex 6.786203e-002 -1.250000e-001 3.193345e-002
         vertex 6.332459e-002 -1.250000e-001 4.018701e-002
      endloop
   endfacet
   facet normal 0.000000e+000 -1.000000e+000 0.000000e+000
      outer loop
         vertex 0.000000e+000 -1.250000e-001 0.000000e+000
         vertex 6.332459e-002 -1.250000e-001 4.018701e-002
         vertex 5.778849e-002 -1.250000e-001 4.780680e-002
      endloop
   endfacet
   facet normal 0.000000e+000 -1.000000e+000 0.000000e+000
      outer loop
         vertex 7.485200e-002 -1.250000e-001 -4.709289e-003
         vertex 7.485200e-002 -1.250000e-001 4.709289e-003
         vertex 0.000000e+000 -1.250000e-001 0.000000e+000
      endloop
   endfacet
   facet normal 0.000000e+000 -1.000000e+000 0.000000e+000
      outer loop
         vertex 0.000000e+000 -1.250000e-001 0.000000e+000
         vertex 7.485200e-002 -1.250000e-001 4.709289e-003
         vertex 7.367154e-002 -1.250000e-001 1.405360e-002
      endloop
   endfacet
   facet normal 0.000000e+000 -1.000000e+000 0.000000e+000
      outer loop
         vertex 0.000000e+000 -1.250000e-001 0.000000e+000
         vertex 7.367154e-002 -1.250000e-001 1.405360e-002
         vertex 7.132924e-002 -1.250000e-001 2.317628e-002
      endloop
   endfacet
   facet normal 0.000000e+000 -1.000000e+000 0.000000e+000
      outer loop
         vertex 6.786203e-002 -1.250000e-001 -3.193345e-002
         vertex 7.132924e-002 -1.250000e-001 -2.317628e-002
         vertex 0.000000e+000 -1.250000e-001 0.000000e+000
      endloop
   endfacet
   facet normal 0.000000e+000 -1.000000e+000 0.000000e+000
      outer loop
         vertex 0.000000e+000 -1.250000e-001 0.000000e+000
         vertex 7.132924e-002 -1.250000e-001 -2.317628e-002
         vertex 7.367154e-002 -1.250000e-001 -1.405360e-002
      endloop
   endfacet
   facet normal 0.000000e+000 -1.000000e+000 0.000000e+000
      outer loop
         vertex 0.000000e+000 -1.250000e-001 0.000000e+000
         vertex 7.367154e-002 -1.250000e-001 -1.405360e-002
         vertex 7.485200e-002 -1.250000e-001 -4.709289e-003
      endloop
   endfacet
   facet normal 0.000000e+000 -1.000000e+000 0.000000e+000
      outer loop
         vertex 5.134103e-002 -1.250000e-001 -5.467265e-002
         vertex 5.778849e-002 -1.250000e-001 -4.780680e-002
         vertex 0.000000e+000 -1.250000e-001 0.000000e+000
      endloop
   endfacet
   facet normal 0.000000e+000 -1.000000e+000 0.000000e+000
      outer loop
         vertex 0.000000e+000 -1.250000e-001 0.000000e+000
         vertex 5.778849e-002 -1.250000e-001 -4.780680e-002
         vertex 6.332459e-002 -1.250000e-001 -4.018701e-002
      endloop
   endfacet
   facet normal 0.000000e+000 -1.000000e+000 0.000000e+000
      outer loop
         vertex 0.000000e+000 -1.250000e-001 0.000000e+000
         vertex 6.332459e-002 -1.250000e-001 -4.018701e-002
         vertex 6.786203e-002 -1.250000e-001 -3.193345e-002
      endloop
   endfacet
   facet normal 0.000000e+000 -1.000000e+000 0.000000e+000
      outer loop
         vertex 2.760934e-002 -1.250000e-001 -6.973324e-002
         vertex 3.613153e-002 -1.250000e-001 -6.572300e-002
         vertex 0.000000e+000 -1.250000e-001 0.000000e+000
      endloop
   endfacet
   facet normal 0.000000e+000 -1.000000e+000 0.000000e+000
      outer loop
         vertex 0.000000e+000 -1.250000e-001 0.000000e+000
         vertex 3.613153e-002 -1.250000e-001 -6.572300e-002
         vertex 4.408389e-002 -1.250000e-001 -6.067627e-002
      endloop
   endfacet
   facet normal 0.000000e+000 -1.000000e+000 0.000000e+000
      outer loop
         vertex 0.000000e+000 -1.250000e-001 0.000000e+000
         vertex 4.408389e-002 -1.250000e-001 -6.067627e-002
         vertex 5.134103e-002 -1.250000e-001 -5.467265e-002
      endloop
   endfacet
   facet normal 0.000000e+000 -1.000000e+000 0.000000e+000
      outer loop
         vertex 9.184851e-018 -1.250000e-001 -7.500000e-002
         vertex 9.399992e-003 -1.250000e-001 -7.440861e-002
         vertex 0.000000e+000 -1.250000e-001 0.000000e+000
      endloop
   endfacet
   facet normal 0.000000e+000 -1.000000e+000 0.000000e+000
      outer loop
         vertex 0.000000e+000 -1.250000e-001 0.000000e+000
         vertex 9.399992e-003 -1.250000e-001 -7.440861e-002
         vertex 1.865174e-002 -1.250000e-001 -7.264373e-002
      endloop
   endfacet
   facet normal 0.000000e+000 -1.000000e+000 0.000000e+000
      outer loop
         vertex 0.000000e+000 -1.250000e-001 0.000000e+000
         vertex 1.865174e-002 -1.250000e-001 -7.264373e-002
         vertex 2.760934e-002 -1.250000e-001 -6.973324e-002
      endloop
   endfacet
   facet normal 0.000000e+000 -1.000000e+000 0.000000e+000
      outer loop
         vertex -2.760934e-002 -1.250000e-001 -6.973324e-002
         vertex -1.865174e-002 -1.250000e-001 -7.264373e-002
         vertex 0.000000e+000 -1.250000e-001 0.000000e+000
      endloop
   endfacet
   facet normal 0.000000e+000 -1.000000e+000 0.000000e+000
      outer loop
         vertex 0.000000e+000 -1.250000e-001 0.000000e+000
         vertex -1.865174e-002 -1.250000e-001 -7.264373e-002
         vertex -9.399992e-003 -1.250000e-001 -7.440861e-002
      endloop
   endfacet
   facet normal 0.000000e+000 -1.000000e+000 0.000000e+000
      outer loop
         vertex 0.000000e+000 -1.250000e-001 0.000000e+000
         vertex -9.399992e-003 -1.250000e-001 -7.440861e-002
         vertex 9.184851e-018 -1.250000e-001 -7.500000e-002
      endloop
   endfacet
   facet normal 0.000000e+000 -1.000000e+000 0.000000e+000
      outer loop
         vertex -5.134103e-002 -1.250000e-001 -5.467265e-002
         vertex -4.408389e-002 -1.250000e-001 -6.067627e-002
         vertex 0.000000e+000 -1.250000e-001 0.000000e+000
      endloop
   endfacet
   facet normal 0.000000e+000 -1.000000e+000 0.000000e+000
      outer loop
         vertex 0.000000e+000 -1.250000e-001 0.000000e+000
         vertex -4.408389e-002 -1.250000e-001 -6.067627e-002
         vertex -3.613153e-002 -1.250000e-001 -6.572300e-002
      endloop
   endfacet
   facet normal 0.000000e+000 -1.000000e+000 0.000000e+000
      outer loop
         vertex 0.000000e+000 -1.250000e-001 0.000000e+000
         vertex -3.613153e-002 -1.250000e-001 -6.572300e-002
         vertex -2.760934e-002 -1.250000e-001 -6.973324e-002
      endloop
   endfacet
   facet normal 0.000000e+000 -1.000000e+000 0.000000e+000
      outer loop
         vertex -6.786203e-002 -1.250000e-001 -3.193345e-002
         vertex -6.332459e-002 -1.250000e-001 -4.018701e-002
         vertex 0.000000e+000 -1.250000e-001 0.000000e+000
      endloop
   endfacet
   facet normal 0.000000e+000 -1.000000e+000 0.000000e+000
      outer loop
         vertex 0.000000e+000 -1.250000e-001 0.000000e+000
         vertex -6.332459e-002 -1.250000e-001 -4.018701e-002
         vertex -5.778849e-002 -1.250000e-001 -4.780680e-002
      endloop
   endfacet
   facet normal 0.000000e+000 -1.000000e+000 0.000000e+000
      outer loop
         vertex 0.000000e+000 -1.250000e-001 0.000000e+000
         vertex -5.778849e-002 -1.250000e-001 -4.780680e-002
         vertex -5.134103e-002 -1.250000e-001 -5.467265e-002
      endloop
   endfacet
   facet normal 0.000000e+000 -1.000000e+000 0.000000e+000
      outer loop
         vertex -7.485200e-002 -1.250000e-001 -4.709289e-003
         vertex -7.367154e-002 -1.250000e-001 -1.405360e-002
         vertex 0.000000e+000 -1.250000e-001 0.000000e+000
      endloop
   endfacet
   facet normal 0.000000e+000 -1.000000e+000 0.000000e+000
      outer loop
         vertex 0.000000e+000 -1.250000e-001 0.000000e+000
         vertex -7.367154e-002 -1.250000e-001 -1.405360e-002
         vertex -7.132924e-002 -1.250000e-001 -2.317628e-002
      endloop
   endfacet
   facet normal 0.000000e+000 -1.000000e+000 0.000000e+000
      outer loop
         vertex 0.000000e+000 -1.250000e-001 0.000000e+000
         vertex -7.132924e-002 -1.250000e-001 -2.317628e-002
         vertex -6.786203e-002 -1.250000e-001 -3.193345e-002
      endloop
   endfacet
   facet normal 0.000000e+000 -1.000000e+000 0.000000e+000
      outer loop
         vertex -7.132924e-002 -1.250000e-001 2.317628e-002
         vertex -7.367154e-002 -1.250000e-001 1.405360e-002
         vertex 0.000000e+000 -1.250000e-001 0.000000e+000
      endloop
   endfacet
   facet normal 0.000000e+000 -1.000000e+000 0.000000e+000
      outer loop
         vertex 0.000000e+000 -1.250000e-001 0.000000e+000
         vertex -7.367154e-002 -1.250000e-001 1.405360e-002
         vertex -7.485200e-002 -1.250000e-001 4.709289e-003
      endloop
   endfacet
   facet normal 0.000000e+000 -1.000000e+000 0.000000e+000
      outer loop
         vertex 0.000000e+000 -1.250000e-001 0.000000e+000
         vertex -7.485200e-002 -1.250000e-001 4.709289e-003
         vertex -7.485200e-002 -1.250000e-001 -4.709289e-003
      endloop
   endfacet
   facet normal 0.000000e+000 -1.000000e+000 0.000000e+000
      outer loop
         vertex -5.778849e-002 -1.250000e-001 4.780680e-002
         vertex -6.332459e-002 -1.250000e-001 4.018701e-002
         vertex 0.000000e+000 -1.250000e-001 0.000000e+000
      endloop
   endfacet
   facet normal 0.000000e+000 -1.000000e+000 0.000000e+000
      outer loop
         vertex 0.000000e+000 -1.250000e-001 0.000000e+000
         vertex -6.332459e-002 -1.250000e-001 4.018701e-002
         vertex -6.786203e-002 -1.250000e-001 3.193345e-002
      endloop
   endfacet
   facet normal 0.000000e+000 -1.000000e+000 0.000000e+000
      outer loop
         vertex 0.000000e+000 -1.250000e-001 0.000000e+000
         vertex -6.786203e-002 -1.250000e-001 3.193345e-002
         vertex -7.132924e-002 -1.250000e-001 2.317628e-002
      endloop
   endfacet
   facet normal 0.000000e+000 -1.000000e+000 0.000000e+000
      outer loop
         vertex -3.613153e-002 -1.250000e-001 6.572300e-002
         vertex -4.408389e-002 -1.250000e-001 6.067627e-002
         vertex 0.000000e+000 -1.250000e-001 0.000000e+000
      endloop
   endfacet
   facet normal 0.000000e+000 -1.000000e+000 0.000000e+000
      outer loop
         vertex 0.000000e+000 -1.250000e-001 0.000000e+000
         vertex -4.408389e-002 -1.250000e-001 6.067627e-002
         vertex -5.134103e-002 -1.250000e-001 5.467265e-002
      endloop
   endfacet
   facet normal 0.000000e+000 -1.000000e+000 0.000000e+000
      outer loop
         vertex 0.000000e+000 -1.250000e-001 0.000000e+000
         vertex -5.134103e-002 -1.250000e-001 5.467265e-002
         vertex -5.778849e-002 -1.250000e-001 4.780680e-002
      endloop
   endfacet
   facet normal 0.000000e+000 -1.000000e+000 0.000000e+000
      outer loop
         vertex -9.399992e-003 -1.250000e-001 7.440861e-002
         vertex -1.865174e-002 -1.250000e-001 7.264373e-002
         vertex 0.000000e+000 -1.250000e-001 0.000000e+000
      endloop
   endfacet
   facet normal 0.000000e+000 -1.000000e+000 0.000000e+000
      outer loop
         vertex 0.000000e+000 -1.250000e-001 0.000000e+000
         vertex -1.865174e-002 -1.250000e-001 7.264373e-002
         vertex -2.760934e-002 -1.250000e-001 6.973324e-002
      endloop
   endfacet
   facet normal 0.000000e+000 -1.000000e+000 0.000000e+000
      outer loop
         vertex 0.000000e+000 -1.250000e-001 0.000000e+000
         vertex -2.760934e-002 -1.250000e-001 6.973324e-002
         vertex -3.613153e-002 -1.250000e-001 6.572300e-002
      endloop
   endfacet
   facet normal 0.000000e+000 1.000000e+000 0.000000e+000
      outer loop
         vertex -1.836970e-017 1.250000e-001 7.500000e-002
         vertex 9.399992e-003 1.250000e-001 7.440861e-002
         vertex 0.000000e+000 1.250000e-001 0.000000e+000
      endloop
   endfacet
   facet normal 0.000000e+000 1.000000e+000 0.000000e+000
      outer loop
         vertex -1.836970e-017 1.250000e-001 7.500000e-002
         vertex 0.000000e+000 1.250000e-001 0.000000e+000
         vertex -9.399992e-003 1.250000e-001 7.440861e-002
      endloop
   endfacet
   facet normal 0.000000e+000 1.000000e+000 0.000000e+000
      outer loop
         vertex -3.613153e-002 1.250000e-001 6.572300e-002
         vertex -2.760934e-002 1.250000e-001 6.973324e-002
         vertex 0.000000e+000 1.250000e-001 0.000000e+000
      endloop
   endfacet
   facet normal 0.000000e+000 1.000000e+000 0.000000e+000
      outer loop
         vertex 0.000000e+000 1.250000e-001 0.000000e+000
         vertex -2.760934e-002 1.250000e-001 6.973324e-002
         vertex -1.865174e-002 1.250000e-001 7.264373e-002
      endloop
   endfacet
   facet normal 0.000000e+000 1.000000e+000 0.000000e+000
      outer loop
         vertex 0.000000e+000 1.250000e-001 0.000000e+000
         vertex -1.865174e-002 1.250000e-001 7.264373e-002
         vertex -9.399992e-003 1.250000e-001 7.440861e-002
      endloop
   endfacet
   facet normal 0.000000e+000 1.000000e+000 0.000000e+000
      outer loop
         vertex -5.778849e-002 1.250000e-001 4.780680e-002
         vertex -5.134103e-002 1.250000e-001 5.467265e-002
         vertex 0.000000e+000 1.250000e-001 0.000000e+000
      endloop
   endfacet
   facet normal 0.000000e+000 1.000000e+000 0.000000e+000
      outer loop
         vertex 0.000000e+000 1.250000e-001 0.000000e+000
         vertex -5.134103e-002 1.250000e-001 5.467265e-002
         vertex -4.408389e-002 1.250000e-001 6.067627e-002
      endloop
   endfacet
   facet normal 0.000000e+000 1.000000e+000 0.000000e+000
      outer loop
         vertex 0.000000e+000 1.250000e-001 0.000000e+000
         vertex -4.408389e-002 1.250000e-001 6.067627e-002
         vertex -3.613153e-002 1.250000e-001 6.572300e-002
      endloop
   endfacet
   facet normal 0.000000e+000 1.000000e+000 0.000000e+000
      outer loop
         vertex -7.132924e-002 1.250000e-001 2.317628e-002
         vertex -6.786203e-002 1.250000e-001 3.193345e-002
         vertex 0.000000e+000 1.250000e-001 0.000000e+000
      endloop
   endfacet
   facet normal 0.000000e+000 1.000000e+000 0.000000e+000
      outer loop
         vertex 0.000000e+000 1.250000e-001 0.000000e+000
         vertex -6.786203e-002 1.250000e-001 3.193345e-002
         vertex -6.332459e-002 1.250000e-001 4.018701e-002
      endloop
   endfacet
   facet normal 0.000000e+000 1.000000e+000 0.000000e+000
      outer loop
         vertex 0.000000e+000 1.250000e-001 0.000000e+000
         vertex -6.332459e-002 1.250000e-001 4.018701e-002
         vertex -5.778849e-002 1.250000e-001 4.780680e-002
      endloop
   endfacet
   facet normal 0.000000e+000 1.000000e+000 0.000000e+000
      outer loop
         vertex -7.485200e-002 1.250000e-001 -4.709289e-003
         vertex -7.485200e-002 1.250000e-001 4.709289e-003
         vertex 0.000000e+000 1.250000e-001 0.000000e+000
      endloop
   endfacet
   facet normal 0.000000e+000 1.000000e+000 0.000000e+000
      outer loop
         vertex 0.000000e+000 1.250000e-001 0.000000e+000
         vertex -7.485200e-002 1.250000e-001 4.709289e-003
         vertex -7.367154e-002 1.250000e-001 1.405360e-002
      endloop
   endfacet
   facet normal 0.000000e+000 1.000000e+000 0.000000e+000
      outer loop
         vertex 0.000000e+000 1.250000e-001 0.000000e+000
         vertex -7.367154e-002 1.250000e-001 1.405360e-002
         vertex -7.132924e-002 1.250000e-001 2.317628e-002
      endloop
   endfacet
   facet normal 0.000000e+000 1.000000e+000 0.000000e+000
      outer loop
         vertex -6.786203e-002 1.250000e-001 -3.193345e-002
         vertex -7.132924e-002 1.250000e-001 -2.317628e-002
         vertex 0.000000e+000 1.250000e-001 0.000000e+000
      endloop
   endfacet
   facet normal 0.000000e+000 1.000000e+000 0.000000e+000
      outer loop
         vertex 0.000000e+000 1.250000e-001 0.000000e+000
         vertex -7.132924e-002 1.250000e-001 -2.317628e-002
         vertex -7.367154e-002 1.250000e-001 -1.405360e-002
      endloop
   endfacet
   facet normal 0.000000e+000 1.000000e+000 0.000000e+000
      outer loop
         vertex 0.000000e+000 1.250000e-001 0.000000e+000
         vertex -7.367154e-002 1.250000e-001 -1.405360e-002
         vertex -7.485200e-002 1.250000e-001 -4.709289e-003
      endloop
   endfacet
   facet normal 0.000000e+000 1.000000e+000 0.000000e+000
      outer loop
         vertex -5.134103e-002 1.250000e-001 -5.467265e-002
         vertex -5.778849e-002 1.250000e-001 -4.780680e-002
         vertex 0.000000e+000 1.250000e-001 0.000000e+000
      endloop
   endfacet
   facet normal 0.000000e+000 1.000000e+000 0.000000e+000
      outer loop
         vertex 0.000000e+000 1.250000e-001 0.000000e+000
         vertex -5.778849e-002 1.250000e-001 -4.780680e-002
         vertex -6.332459e-002 1.250000e-001 -4.018701e-002
      endloop
   endfacet
   facet normal 0.000000e+000 1.000000e+000 0.000000e+000
      outer loop
         vertex 0.000000e+000 1.250000e-001 0.000000e+000
         vertex -6.332459e-002 1.250000e-001 -4.018701e-002
         vertex -6.786203e-002 1.250000e-001 -3.193345e-002
      endloop
   endfacet
   facet normal 0.000000e+000 1.000000e+000 0.000000e+000
      outer loop
         vertex -2.760934e-002 1.250000e-001 -6.973324e-002
         vertex -3.613153e-002 1.250000e-001 -6.572300e-002
         vertex 0.000000e+000 1.250000e-001 0.000000e+000
      endloop
   endfacet
   facet normal 0.000000e+000 1.000000e+000 0.000000e+000
      outer loop
         vertex 0.000000e+000 1.250000e-001 0.000000e+000
         vertex -3.613153e-002 1.250000e-001 -6.572300e-002
         vertex -4.408389e-002 1.250000e-001 -6.067627e-002
      endloop
   endfacet
   facet normal 0.000000e+000 1.000000e+000 0.000000e+000
      outer loop
         vertex 0.000000e+000 1.250000e-001 0.000000e+000
         vertex -4.408389e-002 1.250000e-001 -6.067627e-002
         vertex -5.134103e-002 1.250000e-001 -5.467265e-002
      endloop
   endfacet
   facet normal 0.000000e+000 1.000000e+000 0.000000e+000
      outer loop
         vertex 9.184851e-018 1.250000e-001 -7.500000e-002
         vertex -9.399992e-003 1.250000e-001 -7.440861e-002
         vertex 0.000000e+000 1.250000e-001 0.000000e+000
      endloop
   endfacet
   facet normal 0.000000e+000 1.000000e+000 0.000000e+000
      outer loop
         vertex 0.000000e+000 1.250000e-001 0.000000e+000
         vertex -9.399992e-003 1.250000e-001 -7.440861e-002
         vertex -1.865174e-002 1.250000e-001 -7.264373e-002
      endloop
   endfacet
   facet normal 0.000000e+000 1.000000e+000 0.000000e+000
      outer loop
         vertex 0.000000e+000 1.250000e-001 0.000000e+000
         vertex -1.865174e-002 1.250000e-001 -7.264373e-002
         vertex -2.760934e-002 1.250000e-001 -6.973324e-002
      endloop
   endfacet
   facet normal 0.000000e+000 1.000000e+000 0.000000e+000
      outer loop
         vertex 2.760934e-002 1.250000e-001 -6.973324e-002
         vertex 1.865174e-002 1.250000e-001 -7.264373e-002
         vertex 0.000000e+000 1.250000e-001 0.000000e+000
      endloop
   endfacet
   facet normal 0.000000e+000 1.000000e+000 0.000000e+000
      outer loop
         vertex 0.000000e+000 1.250000e-001 0.000000e+000
         vertex 1.865174e-002 1.250000e-001 -7.264373e-002
         vertex 9.399992e-003 1.250000e-001 -7.440861e-002
      endloop
   endfacet
   facet normal 0.000000e+000 1.000000e+000 0.000000e+000
      outer loop
         vertex 0.000000e+000 1.250000e-001 0.000000e+000
         vertex 9.399992e-003 1.250000e-001 -7.440861e-002
         vertex 9.184851e-018 1.250000e-001 -7.500000e-002
      endloop
   endfacet
   facet normal 0.000000e+000 1.000000e+000 0.000000e+000
      outer loop
         vertex 5.134103e-002 1.250000e-001 -5.467265e-002
         vertex 4.408389e-002 1.250000e-001 -6.067627e-002
         vertex 0.000000e+000 1.250000e-001 0.000000e+000
      endloop
   endfacet
   facet normal 0.000000e+000 1.000000e+000 0.000000e+000
      outer loop
         vertex 0.000000e+000 1.250000e-001 0.000000e+000
         vertex 4.408389e-002 1.250000e-001 -6.067627e-002
         vertex 3.613153e-002 1.250000e-001 -6.572300e-002
      endloop
   endfacet
   facet normal 0.000000e+000 1.000000e+000 0.000000e+000
      outer loop
         vertex 0.000000e+000 1.250000e-001 0.000000e+000
         vertex 3.613153e-002 1.250000e-001 -6.572300e-002
         vertex 2.760934e-002 1.250000e-001 -6.973324e-002
      endloop
   endfacet
   facet normal 0.000000e+000 1.000000e+000 0.000000e+000
      outer loop
         vertex 6.786203e-002 1.250000e-001 -3.193345e-002
         vertex 6.332459e-002 1.250000e-001 -4.018701e-002
         vertex 0.000000e+000 1.250000e-001 0.000000e+000
      endloop
   endfacet
   facet normal 0.000000e+000 1.000000e+000 0.000000e+000
      outer loop
         vertex 0.000000e+000 1.250000e-001 0.000000e+000
         vertex 6.332459e-002 1.250000e-001 -4.018701e-002
         vertex 5.778849e-002 1.250000e-001 -4.780680e-002
      endloop
   endfacet
   facet normal 0.000000e+000 1.000000e+000 0.000000e+000
      outer loop
         vertex 0.000000e+000 1.250000e-001 0.000000e+000
         vertex 5.778849e-002 1.250000e-001 -4.780680e-002
         vertex 5.134103e-002 1.250000e-001 -5.467265e-002
      endloop
   endfacet
   facet normal 0.000000e+000 1.000000e+000 0.000000e+000
      outer loop
         vertex 7.485200e-002 1.250000e-001 -4.709289e-003
         vertex 7.367154e-002 1.250000e-001 -1.405360e-002
         vertex 0.000000e+000 1.250000e-001 0.000000e+000
      endloop
   endfacet
   facet normal 0.000000e+000 1.000000e+000 0.000000e+000
      outer loop
         vertex 0.000000e+000 1.250000e-001 0.000000e+000
         vertex 7.367154e-002 1.250000e-001 -1.405360e-002
         vertex 7.132924e-002 1.250000e-001 -2.317628e-002
      endloop
   endfacet
   facet normal 0.000000e+000 1.000000e+000 0.000000e+000
      outer loop
         vertex 0.000000e+000 1.250000e-001 0.000000e+000
         vertex 7.132924e-002 1.250000e-001 -2.317628e-002
         vertex 6.786203e-002 1.250000e-001 -3.193345e-002
      endloop
   endfacet
   facet normal 0.000000e+000 1.000000e+000 0.000000e+000
      outer loop
         vertex 7.132924e-002 1.250000e-001 2.317628e-002
         vertex 7.367154e-002 1.250000e-001 1.405360e-002
         vertex 0.000000e+000 1.250000e-001 0.000000e+000
      endloop
   endfacet
   facet normal 0.000000e+000 1.000000e+000 0.000000e+000
      outer loop
         vertex 0.000000e+000 1.250000e-001 0.000000e+000
         vertex 7.367154e-002 1.250000e-001 1.405360e-002
         vertex 7.485200e-002 1.250000e-001 4.709289e-003
      endloop
   endfacet
   facet normal 0.000000e+000 1.000000e+000 0.000000e+000
      outer loop
         vertex 0.000000e+000 1.250000e-001 0.000000e+000
         vertex 7.485200e-002 1.250000e-001 4.709289e-003
         vertex 7.485200e-002 1.250000e-001 -4.709289e-003
      endloop
   endfacet
   facet normal 0.000000e+000 1.000000e+000 0.000000e+000
      outer loop
         vertex 5.778849e-002 1.250000e-001 4.780680e-002
         vertex 6.332459e-002 1.250000e-001 4.018701e-002
         vertex 0.000000e+000 1.250000e-001 0.000000e+000
      endloop
   endfacet
   facet normal 0.000000e+000 1.000000e+000 0.000000e+000
      outer loop
         vertex 0.000000e+000 1.250000e-001 0.000000e+000
         vertex 6.332459e-002 1.250000e-001 4.018701e-002
         vertex 6.786203e-002 1.250000e-001 3.193345e-002
      endloop
   endfacet
   facet normal 0.000000e+000 1.000000e+000 0.000000e+000
      outer loop
         vertex 0.000000e+000 1.250000e-001 0.000000e+000
         vertex 6.786203e-002 1.250000e-001 3.193345e-002
         vertex 7.132924e-002 1.250000e-001 2.317628e-002
      endloop
   endfacet
   facet normal 0.000000e+000 1.000000e+000 0.000000e+000
      outer loop
         vertex 3.613153e-002 1.250000e-001 6.572300e-002
         vertex 4.408389e-002 1.250000e-001 6.067627e-002
         vertex 0.000000e+000 1.250000e-001 0.000000e+000
      endloop
   endfacet
   facet normal 0.000000e+000 1.000000e+000 0.000000e+000
      outer loop
         vertex 0.000000e+000 1.250000e-001 0.000000e+000
         vertex 4.408389e-002 1.250000e-001 6.067627e-002
         vertex 5.134103e-002 1.250000e-001 5.467265e-002
      endloop
   endfacet
   facet normal 0.000000e+000 1.000000e+000 0.000000e+000
      outer loop
         vertex 0.000000e+000 1.250000e-001 0.000000e+000
         vertex 5.134103e-002 1.250000e-001 5.467265e-002
         vertex 5.778849e-002 1.250000e-001 4.780680e-002
      endloop
   endfacet
   facet normal 0.000000e+000 1.000000e+000 0.000000e+000
      outer loop
         vertex 9.399992e-003 1.250000e-001 7.440861e-002
         vertex 1.865174e-002 1.250000e-001 7.264373e-002
         vertex 0.000000e+000 1.250000e-001 0.000000e+000
      endloop
   endfacet
   facet normal 0.000000e+000 1.000000e+000 0.000000e+000
      outer loop
         vertex 0.000000e+000 1.250000e-001 0.000000e+000
         vertex 1.865174e-002 1.250000e-001 7.264373e-002
         vertex 2.760934e-002 1.250000e-001 6.973324e-002
      endloop
   endfacet
   facet normal 0.000000e+000 1.000000e+000 0.000000e+000
      outer loop
         vertex 0.000000e+000 1.250000e-001 0.000000e+000
         vertex 2.760934e-002 1.250000e-001 6.973324e-002
         vertex 3.613153e-002 1.250000e-001 6.572300e-002
      endloop
   endfacet
endsolid