solid outerCylinder
   facet normal 8.903468e-002 0.000000e+000 9.960285e-001
      outer loop
         vertex 0.000000e+000 2.000000e-001 1.500000e-001
         vertex 1.999304e-002 -4.000000e-001 1.486616e-001
         vertex 1.999304e-002 2.000000e-001 1.486616e-001
      endloop
   endfacet
   facet normal 1.772750e-001 0.000000e+000 9.841614e-001
      outer loop
         vertex 1.999304e-002 2.000000e-001 1.486616e-001
         vertex 1.999304e-002 -4.000000e-001 1.486616e-001
         vertex 3.962931e-002 -4.000000e-001 1.446704e-001
      endloop
   endfacet
   facet normal 2.209979e-001 0.000000e+000 9.752743e-001
      outer loop
         vertex 1.999304e-002 2.000000e-001 1.486616e-001
         vertex 3.962931e-002 -4.000000e-001 1.446704e-001
         vertex 3.962931e-002 2.000000e-001 1.446704e-001
      endloop
   endfacet
   facet normal 3.068691e-001 0.000000e+000 9.517517e-001
      outer loop
         vertex 3.962931e-002 2.000000e-001 1.446704e-001
         vertex 3.962931e-002 -4.000000e-001 1.446704e-001
         vertex 5.855839e-002 -4.000000e-001 1.380975e-001
      endloop
   endfacet
   facet normal 3.490174e-001 0.000000e+000 9.371163e-001
      outer loop
         vertex 3.962931e-002 2.000000e-001 1.446704e-001
         vertex 5.855839e-002 -4.000000e-001 1.380975e-001
         vertex 5.855839e-002 2.000000e-001 1.380975e-001
      endloop
   endfacet
   facet normal 4.309871e-001 0.000000e+000 9.023581e-001
      outer loop
         vertex 5.855839e-002 2.000000e-001 1.380975e-001
         vertex 5.855839e-002 -4.000000e-001 1.380975e-001
         vertex 7.644249e-002 -4.000000e-001 1.290602e-001
      endloop
   endfacet
   facet normal 4.708086e-001 0.000000e+000 8.822354e-001
      outer loop
         vertex 5.855839e-002 2.000000e-001 1.380975e-001
         vertex 7.644249e-002 -4.000000e-001 1.290602e-001
         vertex 7.644249e-002 2.000000e-001 1.290602e-001
      endloop
   endfacet
   facet normal 5.474142e-001 0.000000e+000 8.368618e-001
      outer loop
         vertex 7.644249e-002 2.000000e-001 1.290602e-001
         vertex 7.644249e-002 -4.000000e-001 1.290602e-001
         vertex 9.296248e-002 -4.000000e-001 1.177199e-001
      endloop
   endfacet
   facet normal 5.841983e-001 0.000000e+000 8.116109e-001
      outer loop
         vertex 7.644249e-002 2.000000e-001 1.290602e-001
         vertex 9.296248e-002 -4.000000e-001 1.177199e-001
         vertex 9.296248e-002 2.000000e-001 1.177199e-001
      endloop
   endfacet
   facet normal 6.540726e-001 0.000000e+000 7.564318e-001
      outer loop
         vertex 9.296248e-002 2.000000e-001 1.177199e-001
         vertex 9.296248e-002 -4.000000e-001 1.177199e-001
         vertex 1.078236e-001 -4.000000e-001 1.042789e-001
      endloop
   endfacet
   facet normal 6.871629e-001 0.000000e+000 7.265033e-001
      outer loop
         vertex 9.296248e-002 2.000000e-001 1.177199e-001
         vertex 1.078236e-001 -4.000000e-001 1.042789e-001
         vertex 1.078236e-001 2.000000e-001 1.042789e-001
      endloop
   endfacet
   facet normal 7.490591e-001 0.000000e+000 6.625031e-001
      outer loop
         vertex 1.078236e-001 2.000000e-001 1.042789e-001
         vertex 1.078236e-001 -4.000000e-001 1.042789e-001
         vertex 1.207605e-001 -4.000000e-001 8.897696e-002
      endloop
   endfacet
   facet normal 7.778651e-001 0.000000e+000 6.284313e-001
      outer loop
         vertex 1.078236e-001 2.000000e-001 1.042789e-001
         vertex 1.207605e-001 -4.000000e-001 8.897696e-002
         vertex 1.207605e-001 2.000000e-001 8.897696e-002
      endloop
   endfacet
   facet normal 8.306787e-001 0.000000e+000 5.567521e-001
      outer loop
         vertex 1.207605e-001 2.000000e-001 8.897696e-002
         vertex 1.207605e-001 -4.000000e-001 8.897696e-002
         vertex 1.315425e-001 -4.000000e-001 7.208727e-002
      endloop
   endfacet
   facet normal 8.546863e-001 0.000000e+000 5.191448e-001
      outer loop
         vertex 1.207605e-001 2.000000e-001 8.897696e-002
         vertex 1.315425e-001 -4.000000e-001 7.208727e-002
         vertex 1.315425e-001 2.000000e-001 7.208727e-002
      endloop
   endfacet
   facet normal 8.974748e-001 0.000000e+000 4.410658e-001
      outer loop
         vertex 1.315425e-001 2.000000e-001 7.208727e-002
         vertex 1.315425e-001 -4.000000e-001 7.208727e-002
         vertex 1.399771e-001 -4.000000e-001 5.391116e-002
      endloop
   endfacet
   facet normal 9.162556e-001 0.000000e+000 4.005942e-001
      outer loop
         vertex 1.315425e-001 2.000000e-001 7.208727e-002
         vertex 1.399771e-001 -4.000000e-001 5.391116e-002
         vertex 1.399771e-001 2.000000e-001 5.391116e-002
      endloop
   endfacet
   facet normal 9.482554e-001 0.000000e+000 3.175088e-001
      outer loop
         vertex 1.399771e-001 2.000000e-001 5.391116e-002
         vertex 1.399771e-001 -4.000000e-001 5.391116e-002
         vertex 1.459138e-001 -4.000000e-001 3.477302e-002
      endloop
   endfacet
   facet normal 9.614743e-001 0.000000e+000 2.748950e-001
      outer loop
         vertex 1.399771e-001 2.000000e-001 5.391116e-002
         vertex 1.459138e-001 -4.000000e-001 3.477302e-002
         vertex 1.459138e-001 2.000000e-001 3.477302e-002
      endloop
   endfacet
   facet normal 9.821143e-001 0.000000e+000 1.882857e-001
      outer loop
         vertex 1.459138e-001 2.000000e-001 3.477302e-002
         vertex 1.459138e-001 -4.000000e-001 3.477302e-002
         vertex 1.492467e-001 -4.000000e-001 1.501435e-002
      endloop
   endfacet
   facet normal 9.895355e-001 0.000000e+000 1.442902e-001
      outer loop
         vertex 1.459138e-001 2.000000e-001 3.477302e-002
         vertex 1.492467e-001 -4.000000e-001 1.501435e-002
         vertex 1.492467e-001 2.000000e-001 1.501435e-002
      endloop
   endfacet
   facet normal 9.984474e-001 0.000000e+000 5.570269e-002
      outer loop
         vertex 1.492467e-001 2.000000e-001 1.501435e-002
         vertex 1.492467e-001 -4.000000e-001 1.501435e-002
         vertex 1.499162e-001 -4.000000e-001 -5.012247e-003
      endloop
   endfacet
   facet normal 9.999383e-001 0.000000e+000 1.111063e-002
      outer loop
         vertex 1.492467e-001 2.000000e-001 1.501435e-002
         vertex 1.499162e-001 -4.000000e-001 -5.012247e-003
         vertex 1.499162e-001 2.000000e-001 -5.012247e-003
      endloop
   endfacet
   facet normal 9.969632e-001 0.000000e+000 -7.787433e-002
      outer loop
         vertex 1.499162e-001 2.000000e-001 -5.012247e-003
         vertex 1.499162e-001 -4.000000e-001 -5.012247e-003
         vertex 1.479105e-001 -4.000000e-001 -2.494940e-002
      endloop
   endfacet
   facet normal 9.924972e-001 0.000000e+000 -1.222672e-001
      outer loop
         vertex 1.499162e-001 2.000000e-001 -5.012247e-003
         vertex 1.479105e-001 -4.000000e-001 -2.494940e-002
         vertex 1.479105e-001 2.000000e-001 -2.494940e-002
      endloop
   endfacet
   facet normal 9.776881e-001 0.000000e+000 -2.100617e-001
      outer loop
         vertex 1.479105e-001 2.000000e-001 -2.494940e-002
         vertex 1.479105e-001 -4.000000e-001 -2.494940e-002
         vertex 1.432654e-001 -4.000000e-001 -4.444134e-002
      endloop
   endfacet
   facet normal 9.673451e-001 0.000000e+000 -2.534632e-001
      outer loop
         vertex 1.479105e-001 2.000000e-001 -2.494940e-002
         vertex 1.432654e-001 -4.000000e-001 -4.444134e-002
         vertex 1.432654e-001 2.000000e-001 -4.444134e-002
      endloop
   endfacet
   facet normal 9.409662e-001 0.000000e+000 -3.385005e-001
      outer loop
         vertex 1.432654e-001 2.000000e-001 -4.444134e-002
         vertex 1.432654e-001 -4.000000e-001 -4.444134e-002
         vertex 1.360636e-001 -4.000000e-001 -6.314021e-002
      endloop
   endfacet
   facet normal 9.249305e-001 0.000000e+000 -3.801362e-001
      outer loop
         vertex 1.432654e-001 2.000000e-001 -4.444134e-002
         vertex 1.360636e-001 -4.000000e-001 -6.314021e-002
         vertex 1.360636e-001 2.000000e-001 -6.314021e-002
      endloop
   endfacet
   facet normal 8.874527e-001 0.000000e+000 -4.608988e-001
      outer loop
         vertex 1.360636e-001 2.000000e-001 -6.314021e-002
         vertex 1.360636e-001 -4.000000e-001 -6.314021e-002
         vertex 1.264338e-001 -4.000000e-001 -8.071236e-002
      endloop
   endfacet
   facet normal 8.660106e-001 0.000000e+000 -5.000256e-001
      outer loop
         vertex 1.360636e-001 2.000000e-001 -6.314021e-002
         vertex 1.264338e-001 -4.000000e-001 -8.071236e-002
         vertex 1.264338e-001 2.000000e-001 -8.071236e-002
      endloop
   endfacet
   facet normal 8.181027e-001 0.000000e+000 -5.750722e-001
      outer loop
         vertex 1.264338e-001 2.000000e-001 -8.071236e-002
         vertex 1.264338e-001 -4.000000e-001 -8.071236e-002
         vertex 1.145478e-001 -4.000000e-001 -9.684418e-002
      endloop
   endfacet
   facet normal 7.916368e-001 0.000000e+000 -6.109920e-001
      outer loop
         vertex 1.264338e-001 2.000000e-001 -8.071236e-002
         vertex 1.145478e-001 -4.000000e-001 -9.684418e-002
         vertex 1.145478e-001 2.000000e-001 -9.684418e-002
      endloop
   endfacet
   facet normal 7.341534e-001 0.000000e+000 -6.789836e-001
      outer loop
         vertex 1.145478e-001 2.000000e-001 -9.684418e-002
         vertex 1.145478e-001 -4.000000e-001 -9.684418e-002
         vertex 1.006177e-001 -4.000000e-001 -1.112478e-001
      endloop
   endfacet
   facet normal 7.031361e-001 0.000000e+000 -7.110553e-001
      outer loop
         vertex 1.145478e-001 2.000000e-001 -9.684418e-002
         vertex 1.006177e-001 -4.000000e-001 -1.112478e-001
         vertex 1.006177e-001 2.000000e-001 -1.112478e-001
      endloop
   endfacet
   facet normal 6.371033e-001 0.000000e+000 -7.707784e-001
      outer loop
         vertex 1.006177e-001 2.000000e-001 -1.112478e-001
         vertex 1.006177e-001 -4.000000e-001 -1.112478e-001
         vertex 8.489206e-002 -4.000000e-001 -1.236662e-001
      endloop
   endfacet
   facet normal 6.020879e-001 0.000000e+000 -7.984298e-001
      outer loop
         vertex 1.006177e-001 2.000000e-001 -1.112478e-001
         vertex 8.489206e-002 -4.000000e-001 -1.236662e-001
         vertex 8.489206e-002 2.000000e-001 -1.236662e-001
      endloop
   endfacet
   facet normal 5.286841e-001 0.000000e+000 -8.488187e-001
      outer loop
         vertex 8.489206e-002 2.000000e-001 -1.236662e-001
         vertex 8.489206e-002 -4.000000e-001 -1.236662e-001
         vertex 6.765152e-002 -4.000000e-001 -1.338778e-001
      endloop
   endfacet
   facet normal 4.902956e-001 0.000000e+000 -8.715562e-001
      outer loop
         vertex 8.489206e-002 2.000000e-001 -1.236662e-001
         vertex 6.765152e-002 -4.000000e-001 -1.338778e-001
         vertex 6.765152e-002 2.000000e-001 -1.338778e-001
      endloop
   endfacet
   facet normal 4.108304e-001 0.000000e+000 -9.117118e-001
      outer loop
         vertex 6.765152e-002 2.000000e-001 -1.338778e-001
         vertex 6.765152e-002 -4.000000e-001 -1.338778e-001
         vertex 4.920373e-002 -4.000000e-001 -1.417004e-001
      endloop
   endfacet
   facet normal 3.697538e-001 0.000000e+000 -9.291298e-001
      outer loop
         vertex 6.765152e-002 2.000000e-001 -1.338778e-001
         vertex 4.920373e-002 -4.000000e-001 -1.417004e-001
         vertex 4.920373e-002 2.000000e-001 -1.417004e-001
      endloop
   endfacet
   facet normal 2.856455e-001 0.000000e+000 -9.583354e-001
      outer loop
         vertex 4.920373e-002 2.000000e-001 -1.417004e-001
         vertex 4.920373e-002 -4.000000e-001 -1.417004e-001
         vertex 2.987790e-002 -4.000000e-001 -1.469943e-001
      endloop
   endfacet
   facet normal 2.426138e-001 0.000000e+000 -9.701230e-001
      outer loop
         vertex 4.920373e-002 2.000000e-001 -1.417004e-001
         vertex 2.987790e-002 -4.000000e-001 -1.469943e-001
         vertex 2.987790e-002 2.000000e-001 -1.469943e-001
      endloop
   endfacet
   facet normal 1.553632e-001 0.000000e+000 -9.878575e-001
      outer loop
         vertex 2.987790e-002 2.000000e-001 -1.469943e-001
         vertex 2.987790e-002 -4.000000e-001 -1.469943e-001
         vertex 1.001890e-002 -4.000000e-001 -1.496650e-001
      endloop
   endfacet
   facet normal 1.111444e-001 0.000000e+000 -9.938043e-001
      outer loop
         vertex 2.987790e-002 2.000000e-001 -1.469943e-001
         vertex 1.001890e-002 -4.000000e-001 -1.496650e-001
         vertex 1.001890e-002 2.000000e-001 -1.496650e-001
      endloop
   endfacet
   facet normal 2.230849e-002 0.000000e+000 -9.997512e-001
      outer loop
         vertex 1.001890e-002 2.000000e-001 -1.496650e-001
         vertex 1.001890e-002 -4.000000e-001 -1.496650e-001
         vertex -1.001890e-002 -4.000000e-001 -1.496650e-001
      endloop
   endfacet
   facet normal -2.230849e-002 0.000000e+000 -9.997512e-001
      outer loop
         vertex 1.001890e-002 2.000000e-001 -1.496650e-001
         vertex -1.001890e-002 -4.000000e-001 -1.496650e-001
         vertex -1.001890e-002 2.000000e-001 -1.496650e-001
      endloop
   endfacet
   facet normal -1.111443e-001 0.000000e+000 -9.938043e-001
      outer loop
         vertex -1.001890e-002 2.000000e-001 -1.496650e-001
         vertex -1.001890e-002 -4.000000e-001 -1.496650e-001
         vertex -2.987790e-002 -4.000000e-001 -1.469943e-001
      endloop
   endfacet
   facet normal -1.553632e-001 0.000000e+000 -9.878575e-001
      outer loop
         vertex -1.001890e-002 2.000000e-001 -1.496650e-001
         vertex -2.987790e-002 -4.000000e-001 -1.469943e-001
         vertex -2.987790e-002 2.000000e-001 -1.469943e-001
      endloop
   endfacet
   facet normal -2.426138e-001 0.000000e+000 -9.701230e-001
      outer loop
         vertex -2.987790e-002 2.000000e-001 -1.469943e-001
         vertex -2.987790e-002 -4.000000e-001 -1.469943e-001
         vertex -4.920373e-002 -4.000000e-001 -1.417004e-001
      endloop
   endfacet
   facet normal -2.856455e-001 0.000000e+000 -9.583354e-001
      outer loop
         vertex -2.987790e-002 2.000000e-001 -1.469943e-001
         vertex -4.920373e-002 -4.000000e-001 -1.417004e-001
         vertex -4.920373e-002 2.000000e-001 -1.417004e-001
      endloop
   endfacet
   facet normal -3.697538e-001 0.000000e+000 -9.291298e-001
      outer loop
         vertex -4.920373e-002 2.000000e-001 -1.417004e-001
         vertex -4.920373e-002 -4.000000e-001 -1.417004e-001
         vertex -6.765152e-002 -4.000000e-001 -1.338778e-001
      endloop
   endfacet
   facet normal -4.108304e-001 0.000000e+000 -9.117118e-001
      outer loop
         vertex -4.920373e-002 2.000000e-001 -1.417004e-001
         vertex -6.765152e-002 -4.000000e-001 -1.338778e-001
         vertex -6.765152e-002 2.000000e-001 -1.338778e-001
      endloop
   endfacet
   facet normal -4.902956e-001 0.000000e+000 -8.715562e-001
      outer loop
         vertex -6.765152e-002 2.000000e-001 -1.338778e-001
         vertex -6.765152e-002 -4.000000e-001 -1.338778e-001
         vertex -8.489206e-002 -4.000000e-001 -1.236662e-001
      endloop
   endfacet
   facet normal -5.286841e-001 0.000000e+000 -8.488187e-001
      outer loop
         vertex -6.765152e-002 2.000000e-001 -1.338778e-001
         vertex -8.489206e-002 -4.000000e-001 -1.236662e-001
         vertex -8.489206e-002 2.000000e-001 -1.236662e-001
      endloop
   endfacet
   facet normal -6.020879e-001 0.000000e+000 -7.984298e-001
      outer loop
         vertex -8.489206e-002 2.000000e-001 -1.236662e-001
         vertex -8.489206e-002 -4.000000e-001 -1.236662e-001
         vertex -1.006177e-001 -4.000000e-001 -1.112478e-001
      endloop
   endfacet
   facet normal -6.371033e-001 0.000000e+000 -7.707784e-001
      outer loop
         vertex -8.489206e-002 2.000000e-001 -1.236662e-001
         vertex -1.006177e-001 -4.000000e-001 -1.112478e-001
         vertex -1.006177e-001 2.000000e-001 -1.112478e-001
      endloop
   endfacet
   facet normal -7.031361e-001 0.000000e+000 -7.110553e-001
      outer loop
         vertex -1.006177e-001 2.000000e-001 -1.112478e-001
         vertex -1.006177e-001 -4.000000e-001 -1.112478e-001
         vertex -1.145478e-001 -4.000000e-001 -9.684418e-002
      endloop
   endfacet
   facet normal -7.341534e-001 0.000000e+000 -6.789836e-001
      outer loop
         vertex -1.006177e-001 2.000000e-001 -1.112478e-001
         vertex -1.145478e-001 -4.000000e-001 -9.684418e-002
         vertex -1.145478e-001 2.000000e-001 -9.684418e-002
      endloop
   endfacet
   facet normal -7.916368e-001 0.000000e+000 -6.109920e-001
      outer loop
         vertex -1.145478e-001 2.000000e-001 -9.684418e-002
         vertex -1.145478e-001 -4.000000e-001 -9.684418e-002
         vertex -1.264338e-001 -4.000000e-001 -8.071236e-002
      endloop
   endfacet
   facet normal -8.181027e-001 0.000000e+000 -5.750722e-001
      outer loop
         vertex -1.145478e-001 2.000000e-001 -9.684418e-002
         vertex -1.264338e-001 -4.000000e-001 -8.071236e-002
         vertex -1.264338e-001 2.000000e-001 -8.071236e-002
      endloop
   endfacet
   facet normal -8.660106e-001 0.000000e+000 -5.000256e-001
      outer loop
         vertex -1.264338e-001 2.000000e-001 -8.071236e-002
         vertex -1.264338e-001 -4.000000e-001 -8.071236e-002
         vertex -1.360636e-001 -4.000000e-001 -6.314021e-002
      endloop
   endfacet
   facet normal -8.874527e-001 0.000000e+000 -4.608988e-001
      outer loop
         vertex -1.264338e-001 2.000000e-001 -8.071236e-002
         vertex -1.360636e-001 -4.000000e-001 -6.314021e-002
         vertex -1.360636e-001 2.000000e-001 -6.314021e-002
      endloop
   endfacet
   facet normal -9.249305e-001 0.000000e+000 -3.801362e-001
      outer loop
         vertex -1.360636e-001 2.000000e-001 -6.314021e-002
         vertex -1.360636e-001 -4.000000e-001 -6.314021e-002
         vertex -1.432654e-001 -4.000000e-001 -4.444134e-002
      endloop
   endfacet
   facet normal -9.409662e-001 0.000000e+000 -3.385005e-001
      outer loop
         vertex -1.360636e-001 2.000000e-001 -6.314021e-002
         vertex -1.432654e-001 -4.000000e-001 -4.444134e-002
         vertex -1.432654e-001 2.000000e-001 -4.444134e-002
      endloop
   endfacet
   facet normal -9.673451e-001 0.000000e+000 -2.534632e-001
      outer loop
         vertex -1.432654e-001 2.000000e-001 -4.444134e-002
         vertex -1.432654e-001 -4.000000e-001 -4.444134e-002
         vertex -1.479105e-001 -4.000000e-001 -2.494940e-002
      endloop
   endfacet
   facet normal -9.776881e-001 0.000000e+000 -2.100617e-001
      outer loop
         vertex -1.432654e-001 2.000000e-001 -4.444134e-002
         vertex -1.479105e-001 -4.000000e-001 -2.494940e-002
         vertex -1.479105e-001 2.000000e-001 -2.494940e-002
      endloop
   endfacet
   facet normal -9.924972e-001 0.000000e+000 -1.222672e-001
      outer loop
         vertex -1.479105e-001 2.000000e-001 -2.494940e-002
         vertex -1.479105e-001 -4.000000e-001 -2.494940e-002
         vertex -1.499162e-001 -4.000000e-001 -5.012247e-003
      endloop
   endfacet
   facet normal -9.969632e-001 0.000000e+000 -7.787433e-002
      outer loop
         vertex -1.479105e-001 2.000000e-001 -2.494940e-002
         vertex -1.499162e-001 -4.000000e-001 -5.012247e-003
         vertex -1.499162e-001 2.000000e-001 -5.012247e-003
      endloop
   endfacet
   facet normal -9.999383e-001 0.000000e+000 1.111063e-002
      outer loop
         vertex -1.499162e-001 2.000000e-001 -5.012247e-003
         vertex -1.499162e-001 -4.000000e-001 -5.012247e-003
         vertex -1.492467e-001 -4.000000e-001 1.501435e-002
      endloop
   endfacet
   facet normal -9.984474e-001 0.000000e+000 5.570269e-002
      outer loop
         vertex -1.499162e-001 2.000000e-001 -5.012247e-003
         vertex -1.492467e-001 -4.000000e-001 1.501435e-002
         vertex -1.492467e-001 2.000000e-001 1.501435e-002
      endloop
   endfacet
   facet normal -9.895355e-001 0.000000e+000 1.442902e-001
      outer loop
         vertex -1.492467e-001 2.000000e-001 1.501435e-002
         vertex -1.492467e-001 -4.000000e-001 1.501435e-002
         vertex -1.459138e-001 -4.000000e-001 3.477302e-002
      endloop
   endfacet
   facet normal -9.821143e-001 0.000000e+000 1.882857e-001
      outer loop
         vertex -1.492467e-001 2.000000e-001 1.501435e-002
         vertex -1.459138e-001 -4.000000e-001 3.477302e-002
         vertex -1.459138e-001 2.000000e-001 3.477302e-002
      endloop
   endfacet
   facet normal -9.614743e-001 0.000000e+000 2.748950e-001
      outer loop
         vertex -1.459138e-001 2.000000e-001 3.477302e-002
         vertex -1.459138e-001 -4.000000e-001 3.477302e-002
         vertex -1.399771e-001 -4.000000e-001 5.391116e-002
      endloop
   endfacet
   facet normal -9.482554e-001 0.000000e+000 3.175088e-001
      outer loop
         vertex -1.459138e-001 2.000000e-001 3.477302e-002
         vertex -1.399771e-001 -4.000000e-001 5.391116e-002
         vertex -1.399771e-001 2.000000e-001 5.391116e-002
      endloop
   endfacet
   facet normal -9.162556e-001 0.000000e+000 4.005942e-001
      outer loop
         vertex -1.399771e-001 2.000000e-001 5.391116e-002
         vertex -1.399771e-001 -4.000000e-001 5.391116e-002
         vertex -1.315425e-001 -4.000000e-001 7.208727e-002
      endloop
   endfacet
   facet normal -8.974748e-001 0.000000e+000 4.410658e-001
      outer loop
         vertex -1.399771e-001 2.000000e-001 5.391116e-002
         vertex -1.315425e-001 -4.000000e-001 7.208727e-002
         vertex -1.315425e-001 2.000000e-001 7.208727e-002
      endloop
   endfacet
   facet normal -8.546863e-001 0.000000e+000 5.191448e-001
      outer loop
         vertex -1.315425e-001 2.000000e-001 7.208727e-002
         vertex -1.315425e-001 -4.000000e-001 7.208727e-002
         vertex -1.207605e-001 -4.000000e-001 8.897696e-002
      endloop
   endfacet
   facet normal -8.306787e-001 0.000000e+000 5.567521e-001
      outer loop
         vertex -1.315425e-001 2.000000e-001 7.208727e-002
         vertex -1.207605e-001 -4.000000e-001 8.897696e-002
         vertex -1.207605e-001 2.000000e-001 8.897696e-002
      endloop
   endfacet
   facet normal -7.778651e-001 0.000000e+000 6.284313e-001
      outer loop
         vertex -1.207605e-001 2.000000e-001 8.897696e-002
         vertex -1.207605e-001 -4.000000e-001 8.897696e-002
         vertex -1.078236e-001 -4.000000e-001 1.042789e-001
      endloop
   endfacet
   facet normal -7.490591e-001 0.000000e+000 6.625032e-001
      outer loop
         vertex -1.207605e-001 2.000000e-001 8.897696e-002
         vertex -1.078236e-001 -4.000000e-001 1.042789e-001
         vertex -1.078236e-001 2.000000e-001 1.042789e-001
      endloop
   endfacet
   facet normal -6.871629e-001 0.000000e+000 7.265033e-001
      outer loop
         vertex -1.078236e-001 2.000000e-001 1.042789e-001
         vertex -1.078236e-001 -4.000000e-001 1.042789e-001
         vertex -9.296248e-002 -4.000000e-001 1.177199e-001
      endloop
   endfacet
   facet normal -6.540726e-001 0.000000e+000 7.564318e-001
      outer loop
         vertex -1.078236e-001 2.000000e-001 1.042789e-001
         vertex -9.296248e-002 -4.000000e-001 1.177199e-001
         vertex -9.296248e-002 2.000000e-001 1.177199e-001
      endloop
   endfacet
   facet normal -5.841983e-001 0.000000e+000 8.116109e-001
      outer loop
         vertex -9.296248e-002 2.000000e-001 1.177199e-001
         vertex -9.296248e-002 -4.000000e-001 1.177199e-001
         vertex -7.644249e-002 -4.000000e-001 1.290602e-001
      endloop
   endfacet
   facet normal -5.474142e-001 0.000000e+000 8.368618e-001
      outer loop
         vertex -9.296248e-002 2.000000e-001 1.177199e-001
         vertex -7.644249e-002 -4.000000e-001 1.290602e-001
         vertex -7.644249e-002 2.000000e-001 1.290602e-001
      endloop
   endfacet
   facet normal -4.708086e-001 0.000000e+000 8.822354e-001
      outer loop
         vertex -7.644249e-002 2.000000e-001 1.290602e-001
         vertex -7.644249e-002 -4.000000e-001 1.290602e-001
         vertex -5.855839e-002 -4.000000e-001 1.380975e-001
      endloop
   endfacet
   facet normal -4.309871e-001 0.000000e+000 9.023581e-001
      outer loop
         vertex -7.644249e-002 2.000000e-001 1.290602e-001
         vertex -5.855839e-002 -4.000000e-001 1.380975e-001
         vertex -5.855839e-002 2.000000e-001 1.380975e-001
      endloop
   endfacet
   facet normal -3.490174e-001 0.000000e+000 9.371163e-001
      outer loop
         vertex -5.855839e-002 2.000000e-001 1.380975e-001
         vertex -5.855839e-002 -4.000000e-001 1.380975e-001
         vertex -3.962931e-002 -4.000000e-001 1.446704e-001
      endloop
   endfacet
   facet normal -3.068691e-001 0.000000e+000 9.517517e-001
      outer loop
         vertex -5.855839e-002 2.000000e-001 1.380975e-001
         vertex -3.962931e-002 -4.000000e-001 1.446704e-001
         vertex -3.962931e-002 2.000000e-001 1.446704e-001
      endloop
   endfacet
   facet normal -2.209979e-001 0.000000e+000 9.752743e-001
      outer loop
         vertex -3.962931e-002 2.000000e-001 1.446704e-001
         vertex -3.962931e-002 -4.000000e-001 1.446704e-001
         vertex -1.999304e-002 -4.000000e-001 1.486616e-001
      endloop
   endfacet
   facet normal -1.772750e-001 0.000000e+000 9.841614e-001
      outer loop
         vertex -3.962931e-002 2.000000e-001 1.446704e-001
         vertex -1.999304e-002 -4.000000e-001 1.486616e-001
         vertex -1.999304e-002 2.000000e-001 1.486616e-001
      endloop
   endfacet
   facet normal -8.903468e-002 0.000000e+000 9.960285e-001
      outer loop
         vertex -1.999304e-002 2.000000e-001 1.486616e-001
         vertex -1.999304e-002 -4.000000e-001 1.486616e-001
         vertex 0.000000e+000 -4.000000e-001 1.500000e-001
      endloop
   endfacet
   facet normal -4.451735e-002 0.000000e+000 9.990087e-001
      outer loop
         vertex -1.999304e-002 2.000000e-001 1.486616e-001
         vertex 0.000000e+000 -4.000000e-001 1.500000e-001
         vertex 0.000000e+000 2.000000e-001 1.500000e-001
      endloop
   endfacet
   facet normal 4.451735e-002 0.000000e+000 9.990087e-001
      outer loop
         vertex 0.000000e+000 2.000000e-001 1.500000e-001
         vertex 0.000000e+000 -4.000000e-001 1.500000e-001
         vertex 1.999304e-002 -4.000000e-001 1.486616e-001
      endloop
   endfacet
   facet normal 0.000000e+000 -1.000000e+000 0.000000e+000
      outer loop
         vertex 0.000000e+000 -4.000000e-001 1.500000e-001
         vertex -1.999304e-002 -4.000000e-001 1.486616e-001
         vertex 0.000000e+000 -4.000000e-001 0.000000e+000
      endloop
   endfacet
   facet normal 0.000000e+000 -1.000000e+000 0.000000e+000
      outer loop
         vertex 0.000000e+000 -4.000000e-001 1.500000e-001
         vertex 0.000000e+000 -4.000000e-001 0.000000e+000
         vertex 1.999304e-002 -4.000000e-001 1.486616e-001
      endloop
   endfacet
   facet normal 0.000000e+000 -1.000000e+000 0.000000e+000
      outer loop
         vertex 7.644249e-002 -4.000000e-001 1.290602e-001
         vertex 5.855839e-002 -4.000000e-001 1.380975e-001
         vertex 0.000000e+000 -4.000000e-001 0.000000e+000
      endloop
   endfacet
   facet normal 0.000000e+000 -1.000000e+000 0.000000e+000
      outer loop
         vertex 0.000000e+000 -4.000000e-001 0.000000e+000
         vertex 5.855839e-002 -4.000000e-001 1.380975e-001
         vertex 3.962931e-002 -4.000000e-001 1.446704e-001
      endloop
   endfacet
   facet normal 0.000000e+000 -1.000000e+000 0.000000e+000
      outer loop
         vertex 0.000000e+000 -4.000000e-001 0.000000e+000
         vertex 3.962931e-002 -4.000000e-001 1.446704e-001
         vertex 1.999304e-002 -4.000000e-001 1.486616e-001
      endloop
   endfacet
   facet normal 0.000000e+000 -1.000000e+000 0.000000e+000
      outer loop
         vertex 1.207605e-001 -4.000000e-001 8.897696e-002
         vertex 1.078236e-001 -4.000000e-001 1.042789e-001
         vertex 0.000000e+000 -4.000000e-001 0.000000e+000
      endloop
   endfacet
   facet normal 0.000000e+000 -1.000000e+000 0.000000e+000
      outer loop
         vertex 0.000000e+000 -4.000000e-001 0.000000e+000
         vertex 1.078236e-001 -4.000000e-001 1.042789e-001
         vertex 9.296248e-002 -4.000000e-001 1.177199e-001
      endloop
   endfacet
   facet normal 0.000000e+000 -1.000000e+000 0.000000e+000
      outer loop
         vertex 0.000000e+000 -4.000000e-001 0.000000e+000
         vertex 9.296248e-002 -4.000000e-001 1.177199e-001
         vertex 7.644249e-002 -4.000000e-001 1.290602e-001
      endloop
   endfacet
   facet normal 0.000000e+000 -1.000000e+000 0.000000e+000
      outer loop
         vertex 1.459138e-001 -4.000000e-001 3.477302e-002
         vertex 1.399771e-001 -4.000000e-001 5.391116e-002
         vertex 0.000000e+000 -4.000000e-001 0.000000e+000
      endloop
   endfacet
   facet normal 0.000000e+000 -1.000000e+000 0.000000e+000
      outer loop
         vertex 0.000000e+000 -4.000000e-001 0.000000e+000
         vertex 1.399771e-001 -4.000000e-001 5.391116e-002
         vertex 1.315425e-001 -4.000000e-001 7.208727e-002
      endloop
   endfacet
   facet normal 0.000000e+000 -1.000000e+000 0.000000e+000
      outer loop
         vertex 0.000000e+000 -4.000000e-001 0.000000e+000
         vertex 1.315425e-001 -4.000000e-001 7.208727e-002
         vertex 1.207605e-001 -4.000000e-001 8.897696e-002
      endloop
   endfacet
   facet normal 0.000000e+000 -1.000000e+000 0.000000e+000
      outer loop
         vertex 1.479105e-001 -4.000000e-001 -2.494940e-002
         vertex 1.499162e-001 -4.000000e-001 -5.012247e-003
         vertex 0.000000e+000 -4.000000e-001 0.000000e+000
      endloop
   endfacet
   facet normal 0.000000e+000 -1.000000e+000 0.000000e+000
      outer loop
         vertex 0.000000e+000 -4.000000e-001 0.000000e+000
         vertex 1.499162e-001 -4.000000e-001 -5.012247e-003
         vertex 1.492467e-001 -4.000000e-001 1.501435e-002
      endloop
   endfacet
   facet normal 0.000000e+000 -1.000000e+000 0.000000e+000
      outer loop
         vertex 0.000000e+000 -4.000000e-001 0.000000e+000
         vertex 1.492467e-001 -4.000000e-001 1.501435e-002
         vertex 1.459138e-001 -4.000000e-001 3.477302e-002
      endloop
   endfacet
   facet normal 0.000000e+000 -1.000000e+000 0.000000e+000
      outer loop
         vertex 1.264338e-001 -4.000000e-001 -8.071236e-002
         vertex 1.360636e-001 -4.000000e-001 -6.314021e-002
         vertex 0.000000e+000 -4.000000e-001 0.000000e+000
      endloop
   endfacet
   facet normal 0.000000e+000 -1.000000e+000 0.000000e+000
      outer loop
         vertex 0.000000e+000 -4.000000e-001 0.000000e+000
         vertex 1.360636e-001 -4.000000e-001 -6.314021e-002
         vertex 1.432654e-001 -4.000000e-001 -4.444134e-002
      endloop
   endfacet
   facet normal 0.000000e+000 -1.000000e+000 0.000000e+000
      outer loop
         vertex 0.000000e+000 -4.000000e-001 0.000000e+000
         vertex 1.432654e-001 -4.000000e-001 -4.444134e-002
         vertex 1.479105e-001 -4.000000e-001 -2.494940e-002
      endloop
   endfacet
   facet normal 0.000000e+000 -1.000000e+000 0.000000e+000
      outer loop
         vertex 8.489206e-002 -4.000000e-001 -1.236662e-001
         vertex 1.006177e-001 -4.000000e-001 -1.112478e-001
         vertex 0.000000e+000 -4.000000e-001 0.000000e+000
      endloop
   endfacet
   facet normal 0.000000e+000 -1.000000e+000 0.000000e+000
      outer loop
         vertex 0.000000e+000 -4.000000e-001 0.000000e+000
         vertex 1.006177e-001 -4.000000e-001 -1.112478e-001
         vertex 1.145478e-001 -4.000000e-001 -9.684418e-002
      endloop
   endfacet
   facet normal 0.000000e+000 -1.000000e+000 0.000000e+000
      outer loop
         vertex 0.000000e+000 -4.000000e-001 0.000000e+000
         vertex 1.145478e-001 -4.000000e-001 -9.684418e-002
         vertex 1.264338e-001 -4.000000e-001 -8.071236e-002
      endloop
   endfacet
   facet normal 0.000000e+000 -1.000000e+000 0.000000e+000
      outer loop
         vertex 2.987790e-002 -4.000000e-001 -1.469943e-001
         vertex 4.920373e-002 -4.000000e-001 -1.417004e-001
         vertex 0.000000e+000 -4.000000e-001 0.000000e+000
      endloop
   endfacet
   facet normal 0.000000e+000 -1.000000e+000 0.000000e+000
      outer loop
         vertex 0.000000e+000 -4.000000e-001 0.000000e+000
         vertex 4.920373e-002 -4.000000e-001 -1.417004e-001
         vertex 6.765152e-002 -4.000000e-001 -1.338778e-001
      endloop
   endfacet
   facet normal 0.000000e+000 -1.000000e+000 0.000000e+000
      outer loop
         vertex 0.000000e+000 -4.000000e-001 0.000000e+000
         vertex 6.765152e-002 -4.000000e-001 -1.338778e-001
         vertex 8.489206e-002 -4.000000e-001 -1.236662e-001
      endloop
   endfacet
   facet normal 0.000000e+000 -1.000000e+000 0.000000e+000
      outer loop
         vertex -2.987790e-002 -4.000000e-001 -1.469943e-001
         vertex -1.001890e-002 -4.000000e-001 -1.496650e-001
         vertex 0.000000e+000 -4.000000e-001 0.000000e+000
      endloop
   endfacet
   facet normal 0.000000e+000 -1.000000e+000 0.000000e+000
      outer loop
         vertex 0.000000e+000 -4.000000e-001 0.000000e+000
         vertex -1.001890e-002 -4.000000e-001 -1.496650e-001
         vertex 1.001890e-002 -4.000000e-001 -1.496650e-001
      endloop
   endfacet
   facet normal 0.000000e+000 -1.000000e+000 0.000000e+000
      outer loop
         vertex 0.000000e+000 -4.000000e-001 0.000000e+000
         vertex 1.001890e-002 -4.000000e-001 -1.496650e-001
         vertex 2.987790e-002 -4.000000e-001 -1.469943e-001
      endloop
   endfacet
   facet normal 0.000000e+000 -1.000000e+000 0.000000e+000
      outer loop
         vertex -8.489206e-002 -4.000000e-001 -1.236662e-001
         vertex -6.765152e-002 -4.000000e-001 -1.338778e-001
         vertex 0.000000e+000 -4.000000e-001 0.000000e+000
      endloop
   endfacet
   facet normal 0.000000e+000 -1.000000e+000 0.000000e+000
      outer loop
         vertex 0.000000e+000 -4.000000e-001 0.000000e+000
         vertex -6.765152e-002 -4.000000e-001 -1.338778e-001
         vertex -4.920373e-002 -4.000000e-001 -1.417004e-001
      endloop
   endfacet
   facet normal 0.000000e+000 -1.000000e+000 0.000000e+000
      outer loop
         vertex 0.000000e+000 -4.000000e-001 0.000000e+000
         vertex -4.920373e-002 -4.000000e-001 -1.417004e-001
         vertex -2.987790e-002 -4.000000e-001 -1.469943e-001
      endloop
   endfacet
   facet normal 0.000000e+000 -1.000000e+000 0.000000e+000
      outer loop
         vertex -1.264338e-001 -4.000000e-001 -8.071236e-002
         vertex -1.145478e-001 -4.000000e-001 -9.684418e-002
         vertex 0.000000e+000 -4.000000e-001 0.000000e+000
      endloop
   endfacet
   facet normal 0.000000e+000 -1.000000e+000 0.000000e+000
      outer loop
         vertex 0.000000e+000 -4.000000e-001 0.000000e+000
         vertex -1.145478e-001 -4.000000e-001 -9.684418e-002
         vertex -1.006177e-001 -4.000000e-001 -1.112478e-001
      endloop
   endfacet
   facet normal 0.000000e+000 -1.000000e+000 0.000000e+000
      outer loop
         vertex 0.000000e+000 -4.000000e-001 0.000000e+000
         vertex -1.006177e-001 -4.000000e-001 -1.112478e-001
         vertex -8.489206e-002 -4.000000e-001 -1.236662e-001
      endloop
   endfacet
   facet normal 0.000000e+000 -1.000000e+000 0.000000e+000
      outer loop
         vertex -1.479105e-001 -4.000000e-001 -2.494940e-002
         vertex -1.432654e-001 -4.000000e-001 -4.444134e-002
         vertex 0.000000e+000 -4.000000e-001 0.000000e+000
      endloop
   endfacet
   facet normal 0.000000e+000 -1.000000e+000 0.000000e+000
      outer loop
         vertex 0.000000e+000 -4.000000e-001 0.000000e+000
         vertex -1.432654e-001 -4.000000e-001 -4.444134e-002
         vertex -1.360636e-001 -4.000000e-001 -6.314021e-002
      endloop
   endfacet
   facet normal 0.000000e+000 -1.000000e+000 0.000000e+000
      outer loop
         vertex 0.000000e+000 -4.000000e-001 0.000000e+000
         vertex -1.360636e-001 -4.000000e-001 -6.314021e-002
         vertex -1.264338e-001 -4.000000e-001 -8.071236e-002
      endloop
   endfacet
   facet normal 0.000000e+000 -1.000000e+000 0.000000e+000
      outer loop
         vertex -1.459138e-001 -4.000000e-001 3.477302e-002
         vertex -1.492467e-001 -4.000000e-001 1.501435e-002
         vertex 0.000000e+000 -4.000000e-001 0.000000e+000
      endloop
   endfacet
   facet normal 0.000000e+000 -1.000000e+000 0.000000e+000
      outer loop
         vertex 0.000000e+000 -4.000000e-001 0.000000e+000
         vertex -1.492467e-001 -4.000000e-001 1.501435e-002
         vertex -1.499162e-001 -4.000000e-001 -5.012247e-003
      endloop
   endfacet
   facet normal 0.000000e+000 -1.000000e+000 0.000000e+000
      outer loop
         vertex 0.000000e+000 -4.000000e-001 0.000000e+000
         vertex -1.499162e-001 -4.000000e-001 -5.012247e-003
         vertex -1.479105e-001 -4.000000e-001 -2.494940e-002
      endloop
   endfacet
   facet normal 0.000000e+000 -1.000000e+000 0.000000e+000
      outer loop
         vertex -1.207605e-001 -4.000000e-001 8.897696e-002
         vertex -1.315425e-001 -4.000000e-001 7.208727e-002
         vertex 0.000000e+000 -4.000000e-001 0.000000e+000
      endloop
   endfacet
   facet normal 0.000000e+000 -1.000000e+000 0.000000e+000
      outer loop
         vertex 0.000000e+000 -4.000000e-001 0.000000e+000
         vertex -1.315425e-001 -4.000000e-001 7.208727e-002
         vertex -1.399771e-001 -4.000000e-001 5.391116e-002
      endloop
   endfacet
   facet normal 0.000000e+000 -1.000000e+000 0.000000e+000
      outer loop
         vertex 0.000000e+000 -4.000000e-001 0.000000e+000
         vertex -1.399771e-001 -4.000000e-001 5.391116e-002
         vertex -1.459138e-001 -4.000000e-001 3.477302e-002
      endloop
   endfacet
   facet normal 0.000000e+000 -1.000000e+000 0.000000e+000
      outer loop
         vertex -7.644249e-002 -4.000000e-001 1.290602e-001
         vertex -9.296248e-002 -4.000000e-001 1.177199e-001
         vertex 0.000000e+000 -4.000000e-001 0.000000e+000
      endloop
   endfacet
   facet normal 0.000000e+000 -1.000000e+000 0.000000e+000
      outer loop
         vertex 0.000000e+000 -4.000000e-001 0.000000e+000
         vertex -9.296248e-002 -4.000000e-001 1.177199e-001
         vertex -1.078236e-001 -4.000000e-001 1.042789e-001
      endloop
   endfacet
   facet normal 0.000000e+000 -1.000000e+000 0.000000e+000
      outer loop
         vertex 0.000000e+000 -4.000000e-001 0.000000e+000
         vertex -1.078236e-001 -4.000000e-001 1.042789e-001
         vertex -1.207605e-001 -4.000000e-001 8.897696e-002
      endloop
   endfacet
   facet normal 0.000000e+000 -1.000000e+000 0.000000e+000
      outer loop
         vertex -1.999304e-002 -4.000000e-001 1.486616e-001
         vertex -3.962931e-002 -4.000000e-001 1.446704e-001
         vertex 0.000000e+000 -4.000000e-001 0.000000e+000
      endloop
   endfacet
   facet normal 0.000000e+000 -1.000000e+000 0.000000e+000
      outer loop
         vertex 0.000000e+000 -4.000000e-001 0.000000e+000
         vertex -3.962931e-002 -4.000000e-001 1.446704e-001
         vertex -5.855839e-002 -4.000000e-001 1.380975e-001
      endloop
   endfacet
   facet normal 0.000000e+000 -1.000000e+000 0.000000e+000
      outer loop
         vertex 0.000000e+000 -4.000000e-001 0.000000e+000
         vertex -5.855839e-002 -4.000000e-001 1.380975e-001
         vertex -7.644249e-002 -4.000000e-001 1.290602e-001
      endloop
   endfacet
   facet normal 0.000000e+000 1.000000e+000 0.000000e+000
      outer loop
         vertex -3.673941e-017 2.000000e-001 1.500000e-001
         vertex 1.999304e-002 2.000000e-001 1.486616e-001
         vertex 0.000000e+000 2.000000e-001 0.000000e+000
      endloop
   endfacet
   facet normal 0.000000e+000 1.000000e+000 0.000000e+000
      outer loop
         vertex -3.673941e-017 2.000000e-001 1.500000e-001
         vertex 0.000000e+000 2.000000e-001 0.000000e+000
         vertex -1.999304e-002 2.000000e-001 1.486616e-001
      endloop
   endfacet
   facet normal 0.000000e+000 1.000000e+000 0.000000e+000
      outer loop
         vertex -7.644249e-002 2.000000e-001 1.290602e-001
         vertex -5.855839e-002 2.000000e-001 1.380975e-001
         vertex 0.000000e+000 2.000000e-001 0.000000e+000
      endloop
   endfacet
   facet normal 0.000000e+000 1.000000e+000 0.000000e+000
      outer loop
         vertex 0.000000e+000 2.000000e-001 0.000000e+000
         vertex -5.855839e-002 2.000000e-001 1.380975e-001
         vertex -3.962931e-002 2.000000e-001 1.446704e-001
      endloop
   endfacet
   facet normal 0.000000e+000 1.000000e+000 0.000000e+000
      outer loop
         vertex 0.000000e+000 2.000000e-001 0.000000e+000
         vertex -3.962931e-002 2.000000e-001 1.446704e-001
         vertex -1.999304e-002 2.000000e-001 1.486616e-001
      endloop
   endfacet
   facet normal 0.000000e+000 1.000000e+000 0.000000e+000
      outer loop
         vertex -1.207605e-001 2.000000e-001 8.897696e-002
         vertex -1.078236e-001 2.000000e-001 1.042789e-001
         vertex 0.000000e+000 2.000000e-001 0.000000e+000
      endloop
   endfacet
   facet normal 0.000000e+000 1.000000e+000 0.000000e+000
      outer loop
         vertex 0.000000e+000 2.000000e-001 0.000000e+000
         vertex -1.078236e-001 2.000000e-001 1.042789e-001
         vertex -9.296248e-002 2.000000e-001 1.177199e-001
      endloop
   endfacet
   facet normal 0.000000e+000 1.000000e+000 0.000000e+000
      outer loop
         vertex 0.000000e+000 2.000000e-001 0.000000e+000
         vertex -9.296248e-002 2.000000e-001 1.177199e-001
         vertex -7.644249e-002 2.000000e-001 1.290602e-001
      endloop
   endfacet
   facet normal 0.000000e+000 1.000000e+000 0.000000e+000
      outer loop
         vertex -1.459138e-001 2.000000e-001 3.477302e-002
         vertex -1.399771e-001 2.000000e-001 5.391116e-002
         vertex 0.000000e+000 2.000000e-001 0.000000e+000
      endloop
   endfacet
   facet normal 0.000000e+000 1.000000e+000 0.000000e+000
      outer loop
         vertex 0.000000e+000 2.000000e-001 0.000000e+000
         vertex -1.399771e-001 2.000000e-001 5.391116e-002
         vertex -1.315425e-001 2.000000e-001 7.208727e-002
      endloop
   endfacet
   facet normal 0.000000e+000 1.000000e+000 0.000000e+000
      outer loop
         vertex 0.000000e+000 2.000000e-001 0.000000e+000
         vertex -1.315425e-001 2.000000e-001 7.208727e-002
         vertex -1.207605e-001 2.000000e-001 8.897696e-002
      endloop
   endfacet
   facet normal 0.000000e+000 1.000000e+000 0.000000e+000
      outer loop
         vertex -1.479105e-001 2.000000e-001 -2.494940e-002
         vertex -1.499162e-001 2.000000e-001 -5.012247e-003
         vertex 0.000000e+000 2.000000e-001 0.000000e+000
      endloop
   endfacet
   facet normal 0.000000e+000 1.000000e+000 0.000000e+000
      outer loop
         vertex 0.000000e+000 2.000000e-001 0.000000e+000
         vertex -1.499162e-001 2.000000e-001 -5.012247e-003
         vertex -1.492467e-001 2.000000e-001 1.501435e-002
      endloop
   endfacet
   facet normal 0.000000e+000 1.000000e+000 0.000000e+000
      outer loop
         vertex 0.000000e+000 2.000000e-001 0.000000e+000
         vertex -1.492467e-001 2.000000e-001 1.501435e-002
         vertex -1.459138e-001 2.000000e-001 3.477302e-002
      endloop
   endfacet
   facet normal 0.000000e+000 1.000000e+000 0.000000e+000
      outer loop
         vertex -1.264338e-001 2.000000e-001 -8.071236e-002
         vertex -1.360636e-001 2.000000e-001 -6.314021e-002
         vertex 0.000000e+000 2.000000e-001 0.000000e+000
      endloop
   endfacet
   facet normal 0.000000e+000 1.000000e+000 0.000000e+000
      outer loop
         vertex 0.000000e+000 2.000000e-001 0.000000e+000
         vertex -1.360636e-001 2.000000e-001 -6.314021e-002
         vertex -1.432654e-001 2.000000e-001 -4.444134e-002
      endloop
   endfacet
   facet normal 0.000000e+000 1.000000e+000 0.000000e+000
      outer loop
         vertex 0.000000e+000 2.000000e-001 0.000000e+000
         vertex -1.432654e-001 2.000000e-001 -4.444134e-002
         vertex -1.479105e-001 2.000000e-001 -2.494940e-002
      endloop
   endfacet
   facet normal 0.000000e+000 1.000000e+000 0.000000e+000
      outer loop
         vertex -8.489206e-002 2.000000e-001 -1.236662e-001
         vertex -1.006177e-001 2.000000e-001 -1.112478e-001
         vertex 0.000000e+000 2.000000e-001 0.000000e+000
      endloop
   endfacet
   facet normal 0.000000e+000 1.000000e+000 0.000000e+000
      outer loop
         vertex 0.000000e+000 2.000000e-001 0.000000e+000
         vertex -1.006177e-001 2.000000e-001 -1.112478e-001
         vertex -1.145478e-001 2.000000e-001 -9.684418e-002
      endloop
   endfacet
   facet normal 0.000000e+000 1.000000e+000 0.000000e+000
      outer loop
         vertex 0.000000e+000 2.000000e-001 0.000000e+000
         vertex -1.145478e-001 2.000000e-001 -9.684418e-002
         vertex -1.264338e-001 2.000000e-001 -8.071236e-002
      endloop
   endfacet
   facet normal 0.000000e+000 1.000000e+000 0.000000e+000
      outer loop
         vertex -2.987790e-002 2.000000e-001 -1.469943e-001
         vertex -4.920373e-002 2.000000e-001 -1.417004e-001
         vertex 0.000000e+000 2.000000e-001 0.000000e+000
      endloop
   endfacet
   facet normal 0.000000e+000 1.000000e+000 0.000000e+000
      outer loop
         vertex 0.000000e+000 2.000000e-001 0.000000e+000
         vertex -4.920373e-002 2.000000e-001 -1.417004e-001
         vertex -6.765152e-002 2.000000e-001 -1.338778e-001
      endloop
   endfacet
   facet normal 0.000000e+000 1.000000e+000 0.000000e+000
      outer loop
         vertex 0.000000e+000 2.000000e-001 0.000000e+000
         vertex -6.765152e-002 2.000000e-001 -1.338778e-001
         vertex -8.489206e-002 2.000000e-001 -1.236662e-001
      endloop
   endfacet
   facet normal 0.000000e+000 1.000000e+000 0.000000e+000
      outer loop
         vertex 2.987790e-002 2.000000e-001 -1.469943e-001
         vertex 1.001890e-002 2.000000e-001 -1.496650e-001
         vertex 0.000000e+000 2.000000e-001 0.000000e+000
      endloop
   endfacet
   facet normal 0.000000e+000 1.000000e+000 0.000000e+000
      outer loop
         vertex 0.000000e+000 2.000000e-001 0.000000e+000
         vertex 1.001890e-002 2.000000e-001 -1.496650e-001
         vertex -1.001890e-002 2.000000e-001 -1.496650e-001
      endloop
   endfacet
   facet normal 0.000000e+000 1.000000e+000 0.000000e+000
      outer loop
         vertex 0.000000e+000 2.000000e-001 0.000000e+000
         vertex -1.001890e-002 2.000000e-001 -1.496650e-001
         vertex -2.987790e-002 2.000000e-001 -1.469943e-001
      endloop
   endfacet
   facet normal 0.000000e+000 1.000000e+000 0.000000e+000
      outer loop
         vertex 8.489206e-002 2.000000e-001 -1.236662e-001
         vertex 6.765152e-002 2.000000e-001 -1.338778e-001
         vertex 0.000000e+000 2.000000e-001 0.000000e+000
      endloop
   endfacet
   facet normal 0.000000e+000 1.000000e+000 0.000000e+000
      outer loop
         vertex 0.000000e+000 2.000000e-001 0.000000e+000
         vertex 6.765152e-002 2.000000e-001 -1.338778e-001
         vertex 4.920373e-002 2.000000e-001 -1.417004e-001
      endloop
   endfacet
   facet normal 0.000000e+000 1.000000e+000 0.000000e+000
      outer loop
         vertex 0.000000e+000 2.000000e-001 0.000000e+000
         vertex 4.920373e-002 2.000000e-001 -1.417004e-001
         vertex 2.987790e-002 2.000000e-001 -1.469943e-001
      endloop
   endfacet
   facet normal 0.000000e+000 1.000000e+000 0.000000e+000
      outer loop
         vertex 1.264338e-001 2.000000e-001 -8.071236e-002
         vertex 1.145478e-001 2.000000e-001 -9.684418e-002
         vertex 0.000000e+000 2.000000e-001 0.000000e+000
      endloop
   endfacet
   facet normal 0.000000e+000 1.000000e+000 0.000000e+000
      outer loop
         vertex 0.000000e+000 2.000000e-001 0.000000e+000
         vertex 1.145478e-001 2.000000e-001 -9.684418e-002
         vertex 1.006177e-001 2.000000e-001 -1.112478e-001
      endloop
   endfacet
   facet normal 0.000000e+000 1.000000e+000 0.000000e+000
      outer loop
         vertex 0.000000e+000 2.000000e-001 0.000000e+000
         vertex 1.006177e-001 2.000000e-001 -1.112478e-001
         vertex 8.489206e-002 2.000000e-001 -1.236662e-001
      endloop
   endfacet
   facet normal 0.000000e+000 1.000000e+000 0.000000e+000
      outer loop
         vertex 1.479105e-001 2.000000e-001 -2.494940e-002
         vertex 1.432654e-001 2.000000e-001 -4.444134e-002
         vertex 0.000000e+000 2.000000e-001 0.000000e+000
      endloop
   endfacet
   facet normal 0.000000e+000 1.000000e+000 0.000000e+000
      outer loop
         vertex 0.000000e+000 2.000000e-001 0.000000e+000
         vertex 1.432654e-001 2.000000e-001 -4.444134e-002
         vertex 1.360636e-001 2.000000e-001 -6.314021e-002
      endloop
   endfacet
   facet normal 0.000000e+000 1.000000e+000 0.000000e+000
      outer loop
         vertex 0.000000e+000 2.000000e-001 0.000000e+000
         vertex 1.360636e-001 2.000000e-001 -6.314021e-002
         vertex 1.264338e-001 2.000000e-001 -8.071236e-002
      endloop
   endfacet
   facet normal 0.000000e+000 1.000000e+000 0.000000e+000
      outer loop
         vertex 1.459138e-001 2.000000e-001 3.477302e-002
         vertex 1.492467e-001 2.000000e-001 1.501435e-002
         vertex 0.000000e+000 2.000000e-001 0.000000e+000
      endloop
   endfacet
   facet normal 0.000000e+000 1.000000e+000 0.000000e+000
      outer loop
         vertex 0.000000e+000 2.000000e-001 0.000000e+000
         vertex 1.492467e-001 2.000000e-001 1.501435e-002
         vertex 1.499162e-001 2.000000e-001 -5.012247e-003
      endloop
   endfacet
   facet normal 0.000000e+000 1.000000e+000 0.000000e+000
      outer loop
         vertex 0.000000e+000 2.000000e-001 0.000000e+000
         vertex 1.499162e-001 2.000000e-001 -5.012247e-003
         vertex 1.479105e-001 2.000000e-001 -2.494940e-002
      endloop
   endfacet
   facet normal 0.000000e+000 1.000000e+000 0.000000e+000
      outer loop
         vertex 1.207605e-001 2.000000e-001 8.897696e-002
         vertex 1.315425e-001 2.000000e-001 7.208727e-002
         vertex 0.000000e+000 2.000000e-001 0.000000e+000
      endloop
   endfacet
   facet normal 0.000000e+000 1.000000e+000 0.000000e+000
      outer loop
         vertex 0.000000e+000 2.000000e-001 0.000000e+000
         vertex 1.315425e-001 2.000000e-001 7.208727e-002
         vertex 1.399771e-001 2.000000e-001 5.391116e-002
      endloop
   endfacet
   facet normal 0.000000e+000 1.000000e+000 0.000000e+000
      outer loop
         vertex 0.000000e+000 2.000000e-001 0.000000e+000
         vertex 1.399771e-001 2.000000e-001 5.391116e-002
         vertex 1.459138e-001 2.000000e-001 3.477302e-002
      endloop
   endfacet
   facet normal 0.000000e+000 1.000000e+000 0.000000e+000
      outer loop
         vertex 7.644249e-002 2.000000e-001 1.290602e-001
         vertex 9.296248e-002 2.000000e-001 1.177199e-001
         vertex 0.000000e+000 2.000000e-001 0.000000e+000
      endloop
   endfacet
   facet normal 0.000000e+000 1.000000e+000 0.000000e+000
      outer loop
         vertex 0.000000e+000 2.000000e-001 0.000000e+000
         vertex 9.296248e-002 2.000000e-001 1.177199e-001
         vertex 1.078236e-001 2.000000e-001 1.042789e-001
      endloop
   endfacet
   facet normal 0.000000e+000 1.000000e+000 0.000000e+000
      outer loop
         vertex 0.000000e+000 2.000000e-001 0.000000e+000
         vertex 1.078236e-001 2.000000e-001 1.042789e-001
         vertex 1.207605e-001 2.000000e-001 8.897696e-002
      endloop
   endfacet
   facet normal 0.000000e+000 1.000000e+000 0.000000e+000
      outer loop
         vertex 1.999304e-002 2.000000e-001 1.486616e-001
         vertex 3.962931e-002 2.000000e-001 1.446704e-001
         vertex 0.000000e+000 2.000000e-001 0.000000e+000
      endloop
   endfacet
   facet normal 0.000000e+000 1.000000e+000 0.000000e+000
      outer loop
         vertex 0.000000e+000 2.000000e-001 0.000000e+000
         vertex 3.962931e-002 2.000000e-001 1.446704e-001
         vertex 5.855839e-002 2.000000e-001 1.380975e-001
      endloop
   endfacet
   facet normal 0.000000e+000 1.000000e+000 0.000000e+000
      outer loop
         vertex 0.000000e+000 2.000000e-001 0.000000e+000
         vertex 5.855839e-002 2.000000e-001 1.380975e-001
         vertex 7.644249e-002 2.000000e-001 1.290602e-001
      endloop
   endfacet
endsolid